<?xml version="1.0" standalone="no"?><!DOCTYPE svg PUBLIC "-//W3C//DTD SVG 1.1//EN" "http://www.w3.org/Graphics/SVG/1.1/DTD/svg11.dtd"><svg width="100%" height="100%" viewBox="0 0 629 45" version="1.1" xmlns="http://www.w3.org/2000/svg" xmlns:xlink="http://www.w3.org/1999/xlink" xml:space="preserve" style="fill-rule:evenodd;clip-rule:evenodd;stroke-linejoin:round;stroke-miterlimit:1.41421;"><path id="Background" d="M628.495,2.281c0,-1.259 -1.022,-2.281 -2.281,-2.281l-623.933,0c-1.259,0 -2.281,1.022 -2.281,2.281l0,40.438c0,1.259 1.022,2.281 2.281,2.281l623.933,0c1.259,0 2.281,-1.022 2.281,-2.281l0,-40.438Z" style="fill:#dcdcdc;"/><path id="Topography" d="M10.557,45l-0.631,0c0.428,-0.665 0.963,-1.359 1.601,-2.088c1.368,-1.571 1.833,-2.006 6.233,-6.023c2.666,-2.44 4.232,-3.98 5.604,-5.63c4.954,-5.95 6.61,-10.198 9.375,-23.453c0.714,-3.445 1.467,-5.908 2.46,-7.806l0.596,0c-1.036,1.882 -1.806,4.359 -2.548,7.921c-2.776,13.329 -4.457,17.65 -9.48,23.679c-1.393,1.67 -2.975,3.225 -5.656,5.677c-4.379,4.001 -4.84,4.441 -6.191,5.981c-0.53,0.608 -0.985,1.187 -1.363,1.742ZM15.797,45l-0.644,0c1.243,-1.855 3.235,-3.843 5.954,-6.121c0.828,-0.691 3.493,-2.848 3.713,-3.027c0.973,-0.764 1.889,-1.599 2.739,-2.498c2.148,-2.425 3.064,-5.002 4.086,-10.511c0.142,-0.763 0.283,-1.526 0.418,-2.289c0.173,-0.98 0.314,-1.728 0.462,-2.478c0.387,-1.98 0.785,-3.76 1.256,-5.567c0.524,-1.98 0.723,-2.881 1.236,-5.431c0.315,-1.582 0.487,-2.205 0.817,-2.865c0.546,-1.096 0.645,-1.275 4.243,-4.213l0.835,0c-3.986,3.243 -4.09,3.4 -4.611,4.444c-0.304,0.607 -0.462,1.204 -0.771,2.733c-0.513,2.562 -0.712,3.473 -1.241,5.468c-0.471,1.797 -0.864,3.562 -1.252,5.531c-0.237,1.211 -0.462,2.424 -0.675,3.64l-0.204,1.126c-1.038,5.594 -1.975,8.244 -4.212,10.758c-0.867,0.92 -1.802,1.774 -2.796,2.556c-0.22,0.177 -2.88,2.34 -3.703,3.027c-2.545,2.129 -4.432,3.995 -5.65,5.717ZM25.242,45l-1.066,0c0.2,-1.173 0.737,-2.477 1.613,-4.052c0.445,-0.801 0.953,-1.639 1.692,-2.802c-0.084,0.131 1.482,-2.304 1.922,-3.017c3.504,-5.604 5.159,-9.689 5.159,-14.256c-0.001,-8.679 4.76,-15.894 11.93,-20.873l1.887,0c-7.627,4.819 -12.77,12.081 -12.77,20.873c0,4.819 -1.718,9.056 -5.316,14.812l-1.927,3.022c-0.729,1.146 -1.231,1.974 -1.661,2.749c-0.778,1.4 -1.262,2.549 -1.463,3.544ZM36.633,45l-0.666,0c-0.6,-0.859 -0.733,-1.891 -0.531,-3.335c0.157,-1.115 1.975,-8.133 2.535,-10.815c0.33,-1.597 0.623,-3.216 0.916,-5.075c0.252,-1.551 0.487,-3.105 0.708,-4.661c0.744,-4.928 1.309,-7.474 2.352,-9.767c1.287,-2.844 3.21,-4.73 6.138,-5.83c3.451,-1.294 5.52,-1.623 9.443,-1.849c2.488,-0.141 3.498,-0.335 4.714,-1.073c0.319,-0.194 0.638,-0.425 0.952,-0.697c0.635,-0.547 1.225,-1.142 1.766,-1.78c0.028,-0.033 0.061,-0.073 0.099,-0.118l0.681,0c-0.156,0.189 -0.294,0.355 -0.382,0.458c-0.557,0.659 -1.165,1.274 -1.818,1.838c-0.34,0.288 -0.68,0.54 -1.026,0.749c-1.309,0.791 -2.383,0.995 -4.96,1.147c-3.87,0.22 -5.892,0.545 -9.281,1.818c-2.797,1.047 -4.619,2.828 -5.85,5.551c-1.011,2.237 -1.571,4.751 -2.31,9.632l-0.34,2.273l-0.366,2.393c-0.299,1.865 -0.587,3.494 -0.922,5.096c-0.566,2.713 -2.378,9.705 -2.53,10.784c-0.21,1.486 -0.05,2.448 0.678,3.261ZM43.638,45l-1.084,0c-0.585,-0.379 -1.061,-0.842 -1.404,-1.391c-0.974,-1.556 -1.099,-4.263 -0.555,-8.238c0.409,-2.976 0.974,-5.61 2.477,-12.036l0.063,-0.267c0.833,-3.562 1.242,-5.4 1.644,-7.406c0.76,-3.797 1.959,-6.007 3.803,-7.196c1.472,-0.943 2.896,-1.194 6.458,-1.373c2.792,-0.141 3.959,-0.24 5.661,-0.539c8.459,-1.503 13.806,-0.508 17.007,3.227c2.66,3.105 0.591,11.218 -3.106,18.618c-2.509,5.018 -5.552,8.49 -12.13,13.194c-2.056,1.467 -4.402,2.612 -6.778,3.407l-1.839,0c2.877,-0.76 5.815,-2.053 8.313,-3.837c6.51,-4.651 9.495,-8.06 11.962,-12.994c3.593,-7.186 5.63,-15.189 3.179,-18.043c-3.058,-3.567 -8.222,-4.53 -16.513,-3.059c-1.728,0.309 -2.912,0.409 -5.729,0.551c-3.468,0.172 -4.835,0.408 -6.202,1.287c-1.702,1.101 -2.839,3.19 -3.572,6.861c-0.403,2.012 -0.817,3.85 -1.65,7.422l-0.063,0.262c-1.498,6.41 -2.058,9.04 -2.461,11.993c-0.54,3.855 -0.414,6.474 0.471,7.893c0.446,0.712 1.15,1.264 2.048,1.664ZM62.899,45l-1.353,0c0.545,-0.227 1.118,-0.467 1.722,-0.721c8.49,-3.577 14.623,-13.099 18.703,-26.029c0.78,-2.463 2.157,-4.117 4.174,-5.238c1.534,-0.854 3.006,-1.284 6.217,-1.969c1.005,-0.21 1.194,-0.257 1.634,-0.356c4.776,-1.08 7.458,-2.462 9.479,-5.589c1.123,-1.736 1.897,-3.445 2.343,-5.098l0.542,0c-0.454,1.747 -1.261,3.552 -2.445,5.381c-2.115,3.268 -4.907,4.714 -9.804,5.819c-0.445,0.105 -0.629,0.141 -1.639,0.356c-3.164,0.676 -4.599,1.089 -6.076,1.912c-1.901,1.057 -3.19,2.607 -3.928,4.944c-4.122,13.056 -10.328,22.698 -19.001,26.349l-0.568,0.239ZM73.31,45l-1.586,0c6.647,-5.696 13.117,-15.075 13.117,-19.413c0,-3.09 1.817,-4.965 5.321,-6.573c0.576,-0.262 2.54,-1.089 2.891,-1.247c0.388,-0.177 0.692,-0.335 0.943,-0.486c0.481,-0.288 0.969,-0.525 1.702,-0.849c4.006,-1.755 5.63,-2.88 8.626,-6.872c0.534,-0.712 3.912,-4.933 4.436,-5.818c0.615,-1.034 0.948,-2.077 1.105,-3.742l1.051,0c-0.167,1.877 -0.54,3.071 -1.25,4.27c-0.576,0.964 -4.012,5.264 -4.504,5.919c-3.122,4.158 -4.886,5.384 -9.04,7.206c-0.702,0.304 -1.152,0.525 -1.587,0.786c-0.288,0.173 -0.628,0.346 -1.048,0.534c-0.371,0.173 -2.335,0.996 -2.89,1.252c-3.169,1.456 -4.709,3.038 -4.709,5.62c0.001,4.485 -6.047,13.495 -12.578,19.413ZM78.717,45l-0.648,0c0.28,-0.383 0.543,-0.764 0.79,-1.145c2.567,-3.949 8.019,-13.974 8.391,-14.56c1.713,-2.755 3.279,-4.405 5.331,-5.431c3.557,-1.781 8.721,-5.044 13.11,-8.548c6.033,-4.808 10.27,-9.705 11.899,-14.35c0.111,-0.316 0.201,-0.638 0.271,-0.966l0.534,0c-0.078,0.387 -0.182,0.767 -0.312,1.138c-1.666,4.767 -5.966,9.726 -12.062,14.592c-4.421,3.525 -9.616,6.809 -13.209,8.605c-1.948,0.974 -3.451,2.556 -5.117,5.232c-0.361,0.576 -5.813,10.606 -8.395,14.576c-0.186,0.286 -0.38,0.571 -0.583,0.857ZM85.775,45l-0.641,0c7.061,-9.912 14.532,-16.974 26.815,-23.75c6.872,-3.786 11.047,-7.788 13.183,-12.061c1.467,-2.944 1.84,-5.228 1.868,-9.189l0.524,0c-0.028,4.037 -0.408,6.393 -1.925,9.419c-2.19,4.379 -6.443,8.453 -13.398,12.292c-12.084,6.667 -19.471,13.6 -26.426,23.289ZM101.6,45l-0.828,0c4.379,-3.58 7.512,-5.529 11.209,-7.006c2.095,-0.838 4.609,-1.618 8.249,-2.597c0.11,-0.032 7.788,-2.043 10.066,-2.687c10.423,-2.938 16.928,-5.924 20.872,-10.36c3.016,-3.394 5.2,-7.343 8.998,-15.524l1.094,-2.356c0.752,-1.617 1.459,-3.101 2.134,-4.47l0.58,0c-0.709,1.43 -1.453,2.99 -2.248,4.7l-1.089,2.351c-3.824,8.223 -6.023,12.204 -9.088,15.645c-4.032,4.536 -10.605,7.552 -21.111,10.517c-2.289,0.643 -9.972,2.66 -10.077,2.686c-3.624,0.98 -6.117,1.749 -8.186,2.577c-3.499,1.4 -6.497,3.237 -10.575,6.524ZM127.503,45l-1.882,0c0.797,-0.225 1.575,-0.449 2.496,-0.716c6.573,-1.906 11.502,-3.613 14.739,-5.237c1.259,-0.601 2.568,-1.09 3.912,-1.461c4.536,-1.393 6.295,-2.148 8.888,-4.243c3.551,-2.859 6.845,-7.463 10.124,-14.596c4.579,-9.97 7.139,-15.207 9.642,-18.747l0.642,0c-2.549,3.506 -5.104,8.714 -9.813,18.956c-3.304,7.207 -6.651,11.879 -10.265,14.796c-2.66,2.147 -4.468,2.917 -9.061,4.331c-1.319,0.363 -2.603,0.842 -3.839,1.43c-3.268,1.634 -8.222,3.352 -14.822,5.269c-0.253,0.073 -0.507,0.145 -0.761,0.218ZM146.326,45l-3.204,0c8.166,-2.732 13.76,-5.365 16.782,-8.195c4.577,-4.294 6.169,-7.248 8.238,-13.627c1.058,-3.258 1.618,-4.735 2.656,-6.662c2.955,-5.487 7.676,-11.698 12.643,-16.516l1.517,0c-5.159,4.825 -10.178,11.325 -13.239,17.008c-0.995,1.86 -1.545,3.289 -2.582,6.495c-2.121,6.531 -3.787,9.631 -8.522,14.067c-2.777,2.604 -7.525,5 -14.289,7.43ZM161.581,45l-1.036,0c0.41,-0.23 0.789,-0.463 1.144,-0.7c4.504,-3.001 11.156,-12.973 19.295,-28.706c2.734,-5.29 6.426,-9.637 11.067,-13.466c0.923,-0.763 1.802,-1.449 2.729,-2.128l0.899,0c-1.141,0.814 -2.186,1.618 -3.293,2.532c-4.588,3.787 -8.238,8.081 -10.941,13.303c-8.176,15.817 -14.853,25.83 -19.462,28.905c-0.131,0.087 -0.265,0.174 -0.402,0.26ZM166.917,45l-0.747,0c3.931,-3.851 8.289,-9.032 12.206,-14.255c0.371,-0.497 7.07,-11.312 10.055,-15.502c4.897,-6.877 9.543,-11.81 14.115,-14.419c0.455,-0.26 0.899,-0.535 1.334,-0.824l0.922,0c-0.643,0.458 -1.307,0.883 -1.994,1.275c-4.489,2.566 -9.092,7.453 -13.947,14.266c-2.975,4.175 -9.673,15 -10.066,15.519c-3.809,5.078 -8.023,10.108 -11.878,13.94ZM172.604,45l-0.744,0c5.627,-5.603 11.014,-12.251 13.304,-16.831c1.178,-2.357 2.435,-3.342 4.022,-3.274c0.66,0.032 1.367,0.236 2.262,0.629c0.63,0.273 1.248,0.57 1.855,0.89l0.659,0.33c2.504,1.226 4.389,1.802 6.626,1.802c3.771,0 5.242,1.608 4.373,4.143c-0.733,2.126 -3.101,4.666 -5.813,6.295c-2.037,1.222 -3.516,3.288 -4.513,6.016l-0.561,0c1.034,-2.922 2.604,-5.144 4.807,-6.466c2.618,-1.571 4.896,-4.018 5.583,-6.013c0.743,-2.163 -0.435,-3.451 -3.876,-3.451c-2.331,0 -4.29,-0.597 -6.856,-1.854c-3.938,-1.922 -3.551,-1.75 -4.567,-1.796c-1.351,-0.053 -2.435,0.795 -3.53,2.985c-2.265,4.527 -7.5,11.031 -13.031,16.595ZM178.652,45l-0.546,0c0.662,-2.31 1.761,-4.037 3.433,-5.89c0.507,-0.607 0.949,-1.266 1.32,-1.964c0.309,-0.539 1.456,-2.687 1.424,-2.624c2.326,-4.263 4.039,-6.039 6.416,-5.447c0.613,0.157 1.152,0.404 1.875,0.833l0.729,0.44c0.515,0.326 1.059,0.606 1.623,0.838c0.366,0.141 0.942,0.168 2.487,0.136l0.378,-0.005c1.655,-0.026 2.503,0.042 3.053,0.346c0.844,0.465 0.629,1.34 -0.597,2.565c-0.665,0.666 -1.339,1.322 -2.021,1.97c-5.552,5.29 -6.678,6.494 -7.344,8.406c-0.047,0.137 -0.092,0.269 -0.135,0.396l-0.548,0c0.059,-0.179 0.123,-0.366 0.191,-0.563c0.702,-2.043 1.812,-3.232 7.474,-8.622c0.812,-0.769 1.43,-1.371 2.016,-1.953c1.017,-1.021 1.137,-1.509 0.707,-1.744c-0.429,-0.236 -1.241,-0.304 -2.786,-0.278l-0.377,0.006c-1.644,0.031 -2.231,0.01 -2.692,-0.178c-0.555,-0.215 -1.032,-0.472 -1.702,-0.875l-0.722,-0.435c-0.537,-0.342 -1.121,-0.602 -1.734,-0.77c-2.032,-0.508 -3.624,1.137 -5.829,5.186c0.036,-0.069 -1.121,2.084 -1.43,2.628c-0.39,0.732 -0.856,1.419 -1.388,2.054c-1.58,1.759 -2.63,3.385 -3.275,5.544ZM200.956,45l-0.56,0c0.667,-1.924 2.383,-3.852 5.79,-6.446c4.887,-3.723 6.108,-6.986 4.515,-9.951c-1.152,-2.142 -3.273,-3.729 -7.096,-5.85c-0.823,-0.46 -1.886,-0.696 -3.363,-0.822c-0.419,-0.036 -0.701,-0.052 -1.545,-0.099c-3.022,-0.157 -3.996,-0.446 -4.043,-1.749c-0.053,-1.473 1.833,-4.122 6.269,-8.742c3.42,-3.561 6.154,-6.123 8.553,-8.091c0.937,-0.771 1.791,-1.425 2.723,-2.112l1.595,-1.138l0.903,0l-0.031,0.023l-2.153,1.54c-0.921,0.669 -1.823,1.366 -2.702,2.089c-2.383,1.959 -5.102,4.505 -8.511,8.055c-4.321,4.494 -6.17,7.092 -6.128,8.355c0.036,0.864 0.859,1.104 3.556,1.246c0.843,0.047 1.127,0.063 1.561,0.104c1.545,0.126 2.666,0.383 3.567,0.881c3.917,2.173 6.091,3.802 7.306,6.064c1.728,3.222 0.419,6.747 -4.656,10.611c-3.235,2.462 -4.878,4.273 -5.55,6.032ZM255.186,45l-1.08,0c1.478,-0.83 2.956,-1.582 4.507,-2.292c4.148,-1.886 7.317,-2.33 13.932,-2.514c3.943,-0.104 5.604,-0.257 7.468,-0.827c2.383,-0.734 4.221,-2.095 5.724,-4.416c1.153,-1.785 3.588,-3.708 7.679,-6.316c0.843,-0.539 1.712,-1.073 2.959,-1.833c4.991,-3.064 6.054,-3.734 7.756,-5.012c2.797,-2.095 4.871,-4.384 7.165,-7.736c1.02,-1.502 2.002,-3.031 2.944,-4.582l0,0.994c-1.032,1.661 -1.781,2.818 -2.514,3.887c-2.316,3.393 -4.431,5.719 -7.281,7.856c-1.722,1.288 -2.786,1.964 -7.798,5.033c-0.988,0.602 -1.971,1.214 -2.948,1.833c-4.033,2.567 -6.422,4.463 -7.521,6.159c-1.572,2.425 -3.51,3.871 -6.013,4.635c-1.928,0.587 -3.614,0.744 -7.61,0.854c-6.546,0.178 -9.657,0.618 -13.722,2.462c-1.237,0.562 -2.453,1.168 -3.647,1.815ZM280.816,45l-14.657,0c1.66,-0.669 3.493,-1.004 5.658,-1.004c1.283,0 2.377,0.021 3.834,0.063c3.933,0.12 4.645,0.09 5.902,-0.366c1.587,-0.576 2.896,-1.587 7.725,-5.85c4.19,-3.698 5.615,-4.672 11.978,-8.627c0.754,-0.471 1.356,-0.853 1.932,-1.241c1.763,-1.163 3.421,-2.477 4.956,-3.928c2.156,-2.032 4.2,-4.111 6.096,-6.232l0,1.56c-1.728,1.877 -3.522,3.69 -5.38,5.436c-1.665,1.572 -3.246,2.803 -5.09,4.034c-0.587,0.397 -1.195,0.785 -1.964,1.257c-6.311,3.928 -7.704,4.881 -11.837,8.526c-4.954,4.373 -6.29,5.405 -8.06,6.049c-0.387,0.141 -0.725,0.247 -1.093,0.323ZM291.083,45l-0.783,0c1.365,-1.23 3.055,-2.772 5.2,-4.733l1.645,-1.492c5.054,-4.562 8.443,-7.244 11.218,-8.632c2.226,-1.11 3.981,-2.455 5.877,-4.504l0,9.501c-3.315,1.953 -6.594,3.86 -7.411,4.362c-3.06,1.893 -5.694,3.693 -7.974,5.498l-0.837,0c2.413,-1.957 5.229,-3.898 8.533,-5.942c0.848,-0.524 4.284,-2.52 7.688,-4.526l0,-8.134c-1.791,1.87 -3.504,3.143 -5.646,4.217c-2.712,1.357 -6.08,4.017 -11.103,8.547l-1.634,1.493c-1.925,1.759 -3.485,3.181 -4.773,4.345ZM314.239,45l-0.997,0c0.33,-0.173 0.663,-0.342 0.997,-0.506l0,0.506ZM314.404,45l-0.159,0l0,-0.512l0.409,-0.204c2.367,-1.183 7.159,-3.372 7.384,-3.483c0.506,-0.249 1.003,-0.518 1.487,-0.806c1.54,-0.916 3.08,-2.142 5.73,-4.573c5.086,-4.661 10.527,-15.978 14.073,-26.6c0.508,-1.529 1.017,-3.781 1.954,-8.448l0.075,-0.374l0.533,0l-0.095,0.473c-0.943,4.693 -1.451,6.956 -1.975,8.516c-3.561,10.706 -9.039,22.081 -14.208,26.816c-2.677,2.461 -4.243,3.703 -5.814,4.64c-0.471,0.283 -0.964,0.545 -1.53,0.823c-0.23,0.115 -5.028,2.304 -7.384,3.488l-0.48,0.244ZM324.807,45l-0.631,0c0.428,-0.665 0.963,-1.359 1.602,-2.088c1.367,-1.571 1.833,-2.006 6.232,-6.023c2.666,-2.44 4.232,-3.98 5.604,-5.63c4.954,-5.95 6.61,-10.198 9.375,-23.453c0.714,-3.445 1.467,-5.908 2.46,-7.806l0.596,0c-1.036,1.882 -1.806,4.359 -2.548,7.921c-2.776,13.329 -4.457,17.65 -9.479,23.679c-1.394,1.67 -2.976,3.225 -5.657,5.677c-4.378,4.001 -4.84,4.441 -6.19,5.981c-0.531,0.608 -0.986,1.187 -1.364,1.742ZM330.047,45l-0.644,0c1.243,-1.855 3.235,-3.843 5.953,-6.121c0.828,-0.691 3.494,-2.848 3.714,-3.027c0.973,-0.764 1.889,-1.599 2.74,-2.498c2.147,-2.425 3.063,-5.002 4.085,-10.511c0.142,-0.763 0.283,-1.526 0.418,-2.289c0.173,-0.98 0.315,-1.728 0.462,-2.478c0.387,-1.98 0.785,-3.76 1.257,-5.567c0.523,-1.98 0.722,-2.881 1.236,-5.431c0.314,-1.582 0.486,-2.205 0.816,-2.865c0.546,-1.096 0.645,-1.275 4.243,-4.213l0.835,0c-3.986,3.243 -4.09,3.4 -4.611,4.444c-0.304,0.607 -0.461,1.204 -0.77,2.733c-0.513,2.562 -0.713,3.473 -1.242,5.468c-0.471,1.797 -0.864,3.562 -1.251,5.531c-0.238,1.211 -0.463,2.424 -0.676,3.64l-0.204,1.126c-1.037,5.594 -1.975,8.244 -4.211,10.758c-0.868,0.92 -1.803,1.774 -2.797,2.556c-0.22,0.177 -2.88,2.34 -3.703,3.027c-2.545,2.129 -4.432,3.995 -5.65,5.717ZM339.492,45l-1.066,0c0.2,-1.173 0.737,-2.477 1.613,-4.052c0.445,-0.801 0.953,-1.639 1.692,-2.802c-0.084,0.131 1.482,-2.304 1.922,-3.017c3.504,-5.604 5.158,-9.689 5.158,-14.256c0,-8.679 4.761,-15.894 11.931,-20.873l1.887,0c-7.627,4.819 -12.77,12.081 -12.77,20.873c0,4.819 -1.718,9.056 -5.316,14.812l-1.927,3.022c-0.729,1.146 -1.231,1.974 -1.661,2.749c-0.778,1.4 -1.262,2.549 -1.463,3.544ZM350.883,45l-0.666,0c-0.6,-0.859 -0.733,-1.891 -0.531,-3.335c0.158,-1.115 1.975,-8.133 2.535,-10.815c0.33,-1.597 0.623,-3.216 0.916,-5.075c0.252,-1.551 0.487,-3.105 0.708,-4.661c0.744,-4.928 1.309,-7.474 2.352,-9.767c1.287,-2.844 3.21,-4.73 6.138,-5.83c3.451,-1.294 5.52,-1.623 9.443,-1.849c2.488,-0.141 3.498,-0.335 4.714,-1.073c0.319,-0.194 0.638,-0.425 0.952,-0.697c0.635,-0.547 1.225,-1.142 1.766,-1.78c0.028,-0.033 0.061,-0.073 0.099,-0.118l0.681,0c-0.156,0.189 -0.294,0.355 -0.382,0.458c-0.557,0.659 -1.165,1.274 -1.818,1.838c-0.34,0.288 -0.68,0.54 -1.026,0.749c-1.309,0.791 -2.383,0.995 -4.96,1.147c-3.87,0.22 -5.892,0.545 -9.281,1.818c-2.797,1.047 -4.619,2.828 -5.85,5.551c-1.011,2.237 -1.571,4.751 -2.31,9.632l-0.34,2.273l-0.366,2.393c-0.299,1.865 -0.587,3.494 -0.922,5.096c-0.566,2.713 -2.378,9.705 -2.53,10.784c-0.21,1.486 -0.05,2.448 0.678,3.261ZM357.888,45l-1.084,0c-0.585,-0.379 -1.061,-0.842 -1.404,-1.391c-0.974,-1.556 -1.099,-4.263 -0.555,-8.238c0.409,-2.976 0.974,-5.61 2.478,-12.036l0.063,-0.267c0.832,-3.562 1.241,-5.4 1.644,-7.406c0.759,-3.797 1.959,-6.007 3.802,-7.196c1.472,-0.943 2.897,-1.194 6.458,-1.373c2.792,-0.141 3.959,-0.24 5.661,-0.539c8.459,-1.503 13.806,-0.508 17.006,3.227c2.661,3.105 0.592,11.218 -3.105,18.618c-2.509,5.018 -5.552,8.49 -12.13,13.194c-2.056,1.467 -4.402,2.612 -6.778,3.407l-1.839,0c2.877,-0.76 5.815,-2.053 8.313,-3.837c6.51,-4.651 9.495,-8.06 11.962,-12.994c3.593,-7.186 5.63,-15.189 3.179,-18.043c-3.058,-3.567 -8.222,-4.53 -16.513,-3.059c-1.728,0.309 -2.913,0.409 -5.73,0.551c-3.467,0.172 -4.834,0.408 -6.201,1.287c-1.702,1.101 -2.839,3.19 -3.572,6.861c-0.403,2.012 -0.817,3.85 -1.65,7.422l-0.063,0.262c-1.498,6.41 -2.058,9.04 -2.461,11.993c-0.54,3.855 -0.413,6.474 0.471,7.893c0.446,0.712 1.15,1.264 2.048,1.664ZM377.149,45l-1.353,0c0.545,-0.227 1.118,-0.467 1.722,-0.721c8.49,-3.577 14.623,-13.099 18.703,-26.029c0.78,-2.463 2.157,-4.117 4.174,-5.238c1.535,-0.854 3.006,-1.284 6.217,-1.969c1.006,-0.21 1.194,-0.257 1.634,-0.356c4.776,-1.08 7.458,-2.462 9.479,-5.589c1.123,-1.736 1.897,-3.445 2.343,-5.098l0.542,0c-0.454,1.747 -1.261,3.552 -2.445,5.381c-2.115,3.268 -4.907,4.714 -9.804,5.819c-0.445,0.105 -0.629,0.141 -1.639,0.356c-3.163,0.676 -4.599,1.089 -6.076,1.912c-1.901,1.057 -3.19,2.607 -3.927,4.944c-4.122,13.056 -10.329,22.698 -19.002,26.349l-0.568,0.239ZM387.56,45l-1.586,0c6.647,-5.696 13.117,-15.075 13.117,-19.413c0,-3.09 1.817,-4.965 5.321,-6.573c0.576,-0.262 2.54,-1.089 2.891,-1.247c0.388,-0.177 0.692,-0.335 0.943,-0.486c0.481,-0.288 0.969,-0.525 1.702,-0.849c4.006,-1.755 5.63,-2.88 8.626,-6.872c0.534,-0.712 3.912,-4.933 4.436,-5.818c0.615,-1.034 0.948,-2.077 1.105,-3.742l1.051,0c-0.167,1.877 -0.54,3.071 -1.25,4.27c-0.576,0.964 -4.012,5.264 -4.504,5.919c-3.122,4.158 -4.886,5.384 -9.04,7.206c-0.702,0.304 -1.152,0.525 -1.587,0.786c-0.288,0.173 -0.628,0.346 -1.048,0.534c-0.371,0.173 -2.335,0.996 -2.89,1.252c-3.169,1.456 -4.709,3.038 -4.709,5.62c0,4.485 -6.047,13.495 -12.578,19.413ZM392.967,45l-0.648,0c0.28,-0.383 0.543,-0.764 0.791,-1.145c2.566,-3.949 8.019,-13.974 8.39,-14.56c1.713,-2.755 3.279,-4.405 5.332,-5.431c3.556,-1.781 8.72,-5.044 13.109,-8.548c6.034,-4.808 10.27,-9.705 11.899,-14.35c0.111,-0.316 0.201,-0.638 0.271,-0.966l0.534,0c-0.078,0.387 -0.182,0.767 -0.312,1.138c-1.666,4.767 -5.965,9.726 -12.062,14.592c-4.421,3.525 -9.616,6.809 -13.208,8.605c-1.949,0.974 -3.452,2.556 -5.118,5.232c-0.361,0.576 -5.813,10.606 -8.395,14.576c-0.186,0.286 -0.38,0.571 -0.583,0.857ZM400.025,45l-0.641,0c7.061,-9.912 14.532,-16.974 26.815,-23.75c6.872,-3.786 11.046,-7.788 13.183,-12.061c1.467,-2.944 1.84,-5.228 1.868,-9.189l0.524,0c-0.028,4.037 -0.408,6.393 -1.925,9.419c-2.189,4.379 -6.443,8.453 -13.398,12.292c-12.084,6.667 -19.471,13.6 -26.426,23.289ZM415.85,45l-0.828,0c4.379,-3.58 7.512,-5.529 11.209,-7.006c2.095,-0.838 4.609,-1.618 8.249,-2.597c0.11,-0.032 7.788,-2.043 10.066,-2.687c10.423,-2.938 16.928,-5.924 20.872,-10.36c3.016,-3.394 5.2,-7.343 8.997,-15.524l1.095,-2.356c0.752,-1.617 1.459,-3.101 2.134,-4.47l0.58,0c-0.709,1.43 -1.453,2.99 -2.248,4.7l-1.09,2.351c-3.823,8.223 -6.022,12.204 -9.087,15.645c-4.032,4.536 -10.605,7.552 -21.111,10.517c-2.289,0.643 -9.972,2.66 -10.077,2.686c-3.624,0.98 -6.117,1.749 -8.186,2.577c-3.499,1.4 -6.497,3.237 -10.575,6.524ZM441.753,45l-1.882,0c0.797,-0.225 1.575,-0.449 2.496,-0.716c6.573,-1.906 11.502,-3.613 14.739,-5.237c1.259,-0.601 2.568,-1.09 3.912,-1.461c4.536,-1.393 6.295,-2.148 8.888,-4.243c3.551,-2.859 6.845,-7.463 10.124,-14.596c4.579,-9.97 7.139,-15.207 9.642,-18.747l0.642,0c-2.549,3.506 -5.104,8.714 -9.813,18.956c-3.304,7.207 -6.651,11.879 -10.265,14.796c-2.66,2.147 -4.468,2.917 -9.061,4.331c-1.319,0.363 -2.603,0.842 -3.839,1.43c-3.268,1.634 -8.222,3.352 -14.822,5.269c-0.253,0.073 -0.507,0.145 -0.761,0.218ZM460.576,45l-3.204,0c8.166,-2.732 13.76,-5.365 16.782,-8.195c4.577,-4.294 6.169,-7.248 8.238,-13.627c1.058,-3.258 1.618,-4.735 2.656,-6.662c2.955,-5.487 7.676,-11.698 12.643,-16.516l1.517,0c-5.159,4.825 -10.178,11.325 -13.239,17.008c-0.995,1.86 -1.545,3.289 -2.582,6.495c-2.121,6.531 -3.787,9.631 -8.521,14.067c-2.778,2.604 -7.526,5 -14.29,7.43ZM475.831,45l-1.036,0c0.41,-0.23 0.789,-0.463 1.145,-0.7c4.503,-3.001 11.155,-12.973 19.294,-28.706c2.734,-5.29 6.426,-9.637 11.067,-13.466c0.923,-0.763 1.802,-1.449 2.729,-2.128l0.899,0c-1.141,0.814 -2.186,1.618 -3.293,2.532c-4.588,3.787 -8.238,8.081 -10.941,13.303c-8.175,15.817 -14.853,25.83 -19.462,28.905c-0.131,0.087 -0.265,0.174 -0.402,0.26ZM481.167,45l-0.747,0c3.931,-3.851 8.289,-9.032 12.206,-14.255c0.372,-0.497 7.071,-11.312 10.056,-15.502c4.896,-6.877 9.543,-11.81 14.115,-14.419c0.454,-0.26 0.898,-0.535 1.333,-0.824l0.922,0c-0.643,0.458 -1.307,0.883 -1.994,1.275c-4.488,2.566 -9.092,7.453 -13.947,14.266c-2.975,4.175 -9.673,15 -10.066,15.519c-3.809,5.078 -8.023,10.108 -11.878,13.94ZM486.854,45l-0.744,0c5.627,-5.603 11.014,-12.251 13.304,-16.831c1.178,-2.357 2.435,-3.342 4.022,-3.274c0.66,0.032 1.367,0.236 2.262,0.629c0.63,0.273 1.248,0.57 1.855,0.89l0.659,0.33c2.504,1.226 4.389,1.802 6.625,1.802c3.771,0 5.243,1.608 4.374,4.143c-0.733,2.126 -3.101,4.666 -5.814,6.295c-2.036,1.222 -3.515,3.288 -4.512,6.016l-0.561,0c1.034,-2.922 2.604,-5.144 4.806,-6.466c2.619,-1.571 4.897,-4.018 5.583,-6.013c0.744,-2.163 -0.435,-3.451 -3.876,-3.451c-2.33,0 -4.289,-0.597 -6.855,-1.854c-3.939,-1.922 -3.551,-1.75 -4.567,-1.796c-1.352,-0.053 -2.435,0.795 -3.53,2.985c-2.265,4.527 -7.5,11.031 -13.031,16.595ZM492.902,45l-0.546,0c0.662,-2.31 1.761,-4.037 3.433,-5.89c0.507,-0.607 0.949,-1.266 1.32,-1.964c0.309,-0.539 1.456,-2.687 1.424,-2.624c2.326,-4.263 4.039,-6.039 6.417,-5.447c0.612,0.157 1.152,0.404 1.875,0.833l0.728,0.44c0.515,0.326 1.059,0.606 1.623,0.838c0.367,0.141 0.943,0.168 2.488,0.136l0.377,-0.005c1.655,-0.026 2.503,0.042 3.053,0.346c0.844,0.465 0.629,1.34 -0.597,2.565c-0.665,0.666 -1.339,1.322 -2.021,1.97c-5.551,5.289 -6.678,6.494 -7.343,8.406l-0.09,0.261l-0.046,0.135l-0.548,0c0.059,-0.179 0.123,-0.366 0.192,-0.563c0.702,-2.043 1.812,-3.232 7.473,-8.622c0.812,-0.769 1.43,-1.371 2.016,-1.953c1.016,-1.021 1.137,-1.509 0.707,-1.744c-0.429,-0.236 -1.241,-0.304 -2.786,-0.278l-0.377,0.006c-1.644,0.031 -2.231,0.01 -2.692,-0.178c-0.555,-0.215 -1.032,-0.472 -1.702,-0.875l-0.723,-0.435c-0.536,-0.342 -1.12,-0.602 -1.734,-0.77c-2.031,-0.508 -3.624,1.137 -5.829,5.186c0.037,-0.069 -1.12,2.084 -1.429,2.628c-0.39,0.732 -0.856,1.419 -1.388,2.054c-1.58,1.759 -2.63,3.385 -3.275,5.544ZM515.206,45l-0.56,0c0.667,-1.924 2.383,-3.852 5.79,-6.446c4.887,-3.723 6.107,-6.986 4.515,-9.951c-1.153,-2.142 -3.274,-3.729 -7.096,-5.85c-0.823,-0.46 -1.886,-0.696 -3.363,-0.822c-0.419,-0.036 -0.702,-0.052 -1.545,-0.099c-3.022,-0.157 -3.996,-0.446 -4.043,-1.749c-0.053,-1.473 1.833,-4.122 6.269,-8.742c3.42,-3.561 6.154,-6.123 8.553,-8.091c0.937,-0.771 1.791,-1.425 2.723,-2.112l1.595,-1.138l0.903,0l-0.031,0.023l-2.153,1.54c-0.921,0.669 -1.823,1.366 -2.702,2.089c-2.383,1.959 -5.101,4.505 -8.511,8.055c-4.321,4.494 -6.169,7.092 -6.127,8.355c0.036,0.864 0.858,1.104 3.555,1.246c0.843,0.047 1.127,0.063 1.561,0.104c1.545,0.126 2.666,0.383 3.567,0.881c3.917,2.173 6.091,3.802 7.306,6.064c1.729,3.222 0.419,6.747 -4.656,10.611c-3.235,2.462 -4.878,4.273 -5.55,6.032ZM569.436,45l-1.08,0c1.478,-0.83 2.956,-1.582 4.507,-2.292c4.148,-1.886 7.317,-2.33 13.932,-2.514c3.943,-0.104 5.604,-0.257 7.468,-0.827c2.383,-0.734 4.221,-2.095 5.724,-4.416c1.153,-1.785 3.588,-3.708 7.679,-6.316c0.843,-0.539 1.712,-1.073 2.958,-1.833c4.992,-3.064 6.055,-3.734 7.757,-5.012c2.797,-2.095 4.871,-4.384 7.165,-7.736c1.02,-1.502 2.001,-3.031 2.943,-4.582l0,0.994c-1.031,1.661 -1.78,2.818 -2.513,3.887c-2.316,3.393 -4.431,5.719 -7.281,7.856c-1.722,1.288 -2.786,1.964 -7.798,5.033c-0.988,0.602 -1.971,1.214 -2.948,1.833c-4.033,2.567 -6.422,4.463 -7.522,6.159c-1.571,2.425 -3.509,3.871 -6.012,4.635c-1.928,0.587 -3.614,0.744 -7.61,0.854c-6.546,0.178 -9.657,0.618 -13.722,2.462c-1.237,0.562 -2.453,1.168 -3.647,1.815ZM595.066,45l-14.657,0c1.66,-0.669 3.493,-1.004 5.657,-1.004c1.284,0 2.378,0.021 3.834,0.063c3.933,0.12 4.646,0.09 5.903,-0.366c1.587,-0.576 2.896,-1.587 7.725,-5.85c4.19,-3.698 5.614,-4.672 11.978,-8.627c0.754,-0.471 1.356,-0.853 1.932,-1.241c1.763,-1.163 3.421,-2.477 4.955,-3.928c2.157,-2.032 4.2,-4.111 6.096,-6.232l0,1.56c-1.727,1.877 -3.521,3.69 -5.379,5.436c-1.665,1.572 -3.246,2.803 -5.09,4.034c-0.587,0.397 -1.195,0.785 -1.964,1.257c-6.311,3.928 -7.704,4.881 -11.837,8.526c-4.954,4.373 -6.29,5.405 -8.06,6.049c-0.387,0.141 -0.725,0.247 -1.093,0.323ZM605.333,45l-0.783,0c1.365,-1.23 3.055,-2.772 5.2,-4.733l1.645,-1.492c5.054,-4.562 8.442,-7.244 11.218,-8.632c2.226,-1.11 3.981,-2.455 5.877,-4.504l0,0.759c-1.792,1.87 -3.505,3.143 -5.646,4.217c-2.713,1.357 -6.081,4.017 -11.103,8.547l-1.635,1.493c-1.925,1.759 -3.485,3.181 -4.773,4.345ZM613.105,45l-0.837,0c2.413,-1.957 5.229,-3.898 8.533,-5.942c0.848,-0.524 4.284,-2.52 7.688,-4.526l0,-8.134l0,8.742c-3.315,1.953 -6.594,3.86 -7.41,4.362c-3.06,1.893 -5.694,3.693 -7.974,5.498ZM0.973,44.587c-0.155,-0.108 -0.295,-0.235 -0.418,-0.378c2.413,-1.199 7.013,-3.3 7.233,-3.408c0.506,-0.249 1.003,-0.518 1.487,-0.806c1.54,-0.916 3.08,-2.142 5.73,-4.573c5.086,-4.661 10.527,-15.978 14.073,-26.6c0.508,-1.529 1.016,-3.781 1.954,-8.448l0.075,-0.374l0.533,0l-0.095,0.473c-0.943,4.693 -1.451,6.956 -1.975,8.516c-3.561,10.706 -9.04,22.081 -14.209,26.816c-2.676,2.461 -4.242,3.703 -5.814,4.64c-0.471,0.283 -0.963,0.545 -1.529,0.823c-0.219,0.109 -4.597,2.107 -7.045,3.319ZM560.093,45l-1.119,0c0.851,-0.439 1.757,-0.948 2.916,-1.627c-0.157,0.095 2.792,-1.655 3.656,-2.152c5.668,-3.253 10.297,-5.065 16.294,-5.866c9.024,-1.205 11.994,-2.488 14.964,-5.573c2.225,-2.31 2.639,-2.703 4.304,-3.813c2.452,-1.629 5.243,-3.739 9.192,-6.882c0.85,-0.677 1.698,-1.356 2.545,-2.037l0.671,-0.534c1.087,-0.87 2.174,-1.74 3.263,-2.609c1.922,-1.519 3.43,-2.681 4.75,-3.64c2.145,-1.566 4.484,-5.055 6.55,-9.299c0.125,0.177 0.225,0.372 0.296,0.581c-2.067,4.164 -4.388,7.574 -6.537,9.143c-1.314,0.953 -2.818,2.105 -4.734,3.624c-1.092,0.865 -2.179,1.735 -3.264,2.608l-0.665,0.534c-0.849,0.682 -1.699,1.363 -2.55,2.043c-3.955,3.142 -6.757,5.264 -9.223,6.908c-1.624,1.079 -2.022,1.456 -4.222,3.734c-3.059,3.179 -6.138,4.515 -15.267,5.735c-5.918,0.786 -10.496,2.572 -16.105,5.798c-0.864,0.493 -3.808,2.236 -3.65,2.148c-0.783,0.457 -1.451,0.84 -2.065,1.176ZM245.843,45l-1.119,0c0.851,-0.439 1.757,-0.948 2.916,-1.627c-0.156,0.095 2.792,-1.655 3.657,-2.152c5.666,-3.253 10.296,-5.065 16.293,-5.866c9.024,-1.205 11.993,-2.488 14.964,-5.573c2.225,-2.31 2.639,-2.703 4.305,-3.813c2.45,-1.629 5.242,-3.739 9.191,-6.882c0.85,-0.677 1.699,-1.356 2.545,-2.037l0.671,-0.534c1.087,-0.87 2.174,-1.74 3.263,-2.609c1.922,-1.519 3.431,-2.681 4.75,-3.64c2.289,-1.671 4.798,-5.53 6.961,-10.16l0,1.21c-2.096,4.269 -4.463,7.777 -6.652,9.375c-1.314,0.953 -2.818,2.105 -4.734,3.624c-1.091,0.865 -2.179,1.735 -3.263,2.608l-0.666,0.534c-0.849,0.682 -1.699,1.363 -2.55,2.043c-3.954,3.142 -6.756,5.264 -9.223,6.908c-1.624,1.079 -2.022,1.456 -4.222,3.734c-3.058,3.179 -6.138,4.515 -15.267,5.735c-5.918,0.786 -10.495,2.572 -16.105,5.798c-0.864,0.493 -3.808,2.236 -3.65,2.148c-0.783,0.457 -1.451,0.84 -2.065,1.176ZM69.128,9.691c3.73,0 5.584,1.614 5.893,4.557c0.22,2.106 -0.226,4.263 -1.451,8.349c-1.341,4.461 -9.616,13.292 -14.246,16.382c-3.671,2.446 -10.486,2.97 -13.916,0.518c-2.09,-1.492 -1.849,-6.326 0.01,-13.858c0.357,-1.44 0.771,-2.959 1.242,-4.587c0.51,-1.778 1.042,-3.548 1.597,-5.311l0.194,-0.629c0.775,-2.514 2.671,-4.059 5.62,-4.855c2.304,-0.629 4.997,-0.785 9.155,-0.697l2.037,0.053c2.027,0.057 2.839,0.078 3.865,0.078l0,0ZM383.378,9.691c3.73,0 5.584,1.614 5.893,4.557c0.22,2.106 -0.226,4.263 -1.451,8.349c-1.34,4.461 -9.616,13.292 -14.246,16.382c-3.671,2.446 -10.485,2.97 -13.916,0.518c-2.089,-1.492 -1.849,-6.326 0.011,-13.858c0.356,-1.44 0.77,-2.959 1.241,-4.587c0.51,-1.778 1.042,-3.548 1.597,-5.311l0.195,-0.629c0.774,-2.514 2.67,-4.059 5.619,-4.855c2.304,-0.629 4.997,-0.785 9.155,-0.697l2.038,0.053c2.026,0.057 2.838,0.078 3.864,0.078l0,0ZM572.712,0c0.201,0.265 0.4,0.48 0.601,0.652c0.378,0.314 0.759,0.628 1.152,0.942l-0.005,0c1.802,1.419 3.666,2.671 5.992,4.059c0.555,0.336 4.41,2.567 5.421,3.195c5.902,3.666 7.855,6.992 6.468,13.266c-0.76,3.415 -2.373,5.814 -4.918,7.563c-2.006,1.377 -4.227,2.232 -8.422,3.436c-6.269,1.807 -7.164,2.09 -9.857,3.289c-1.415,0.628 -2.782,1.36 -4.09,2.189c-5.819,3.703 -10.004,4.033 -14.644,1.718c-1.865,-0.927 -9.008,-5.761 -9.008,-5.766c-0.892,-0.563 -1.8,-1.099 -2.723,-1.608c-8.401,-4.625 -17.95,-12.654 -18.08,-16.681c-0.058,-1.812 1.042,-3.441 3.289,-5.374c0.539,-0.471 1.142,-0.948 1.927,-1.545c0.378,-0.288 1.77,-1.341 2.063,-1.571c2.342,-1.781 3.761,-3.032 4.882,-4.426c0.891,-1.108 1.836,-2.228 2.81,-3.338l1.403,0c-1.183,1.325 -2.329,2.671 -3.396,3.998c-1.189,1.477 -2.66,2.776 -5.065,4.604l-2.063,1.56c-0.641,0.486 -1.268,0.988 -1.88,1.509c-2.027,1.744 -2.969,3.143 -2.923,4.551c0.11,3.478 9.501,11.376 17.535,15.791c0.922,0.508 1.833,1.048 2.776,1.639c0.063,0.042 7.128,4.83 8.92,5.72c4.305,2.147 8.097,1.843 13.617,-1.666c1.351,-0.855 2.764,-1.609 4.227,-2.257c2.749,-1.231 3.666,-1.519 9.993,-3.342c4.084,-1.173 6.232,-2 8.118,-3.299c2.325,-1.592 3.786,-3.76 4.482,-6.924c1.278,-5.772 -0.434,-8.694 -5.997,-12.151c-0.994,-0.618 -4.833,-2.838 -5.404,-3.184c-2.357,-1.409 -4.259,-2.681 -6.097,-4.138c-0.403,-0.314 -0.796,-0.634 -1.183,-0.964c-0.414,-0.352 -0.799,-0.823 -1.19,-1.447l1.269,0ZM69.128,10.215c-1.031,0 -1.849,-0.021 -3.88,-0.078l-2.033,-0.053c-4.111,-0.089 -6.766,0.068 -9.008,0.681c-2.786,0.749 -4.541,2.179 -5.253,4.504c-0.278,0.911 -0.557,1.82 -0.838,2.729c-0.356,1.152 -0.665,2.184 -0.953,3.195c-0.472,1.623 -0.88,3.137 -1.236,4.572c-1.796,7.269 -2.027,12.009 -0.21,13.303c3.232,2.315 9.81,1.807 13.314,-0.524c4.535,-3.027 12.742,-11.779 14.036,-16.094c1.205,-4.017 1.645,-6.133 1.43,-8.15c-0.278,-2.671 -1.907,-4.085 -5.369,-4.085ZM383.378,10.215c-1.031,0 -1.848,-0.021 -3.88,-0.078l-2.033,-0.053c-4.11,-0.089 -6.766,0.068 -9.008,0.681c-2.786,0.749 -4.54,2.179 -5.253,4.504c-0.278,0.911 -0.557,1.82 -0.838,2.729c-0.356,1.152 -0.665,2.184 -0.953,3.195c-0.472,1.623 -0.88,3.137 -1.236,4.572c-1.796,7.269 -2.027,12.009 -0.21,13.303c3.232,2.315 9.81,1.807 13.314,-0.524c4.535,-3.027 12.742,-11.779 14.036,-16.094c1.205,-4.017 1.645,-6.133 1.43,-8.15c-0.278,-2.671 -1.907,-4.085 -5.369,-4.085l0,0ZM254.654,9.712c2.43,1.231 9.045,4.316 10.155,4.939c1.406,0.744 2.658,1.746 3.693,2.954c0.718,0.86 1.374,1.77 1.963,2.724c1.257,1.98 0.021,4.011 -3.247,6.09c-2.603,1.656 -6.379,3.3 -11.496,5.144c-2.535,0.911 -10.281,3.499 -11.051,3.771c-3.451,1.22 -7.777,0.052 -13.167,-3.069c-2.058,-1.19 -4.189,-2.619 -6.777,-4.473c-1.168,-0.843 -4.975,-3.661 -5.604,-4.112c-1.441,-1.089 -2.951,-2.087 -4.52,-2.985c-2.525,-1.362 -2.33,-3.477 0.089,-6.353c1.713,-2.032 2.184,-2.446 9.48,-8.553c1.586,-1.311 3.139,-2.662 4.656,-4.054c0.612,-0.563 1.209,-1.142 1.792,-1.735l0.725,0c-0.699,0.728 -1.42,1.434 -2.161,2.118c-1.299,1.204 -2.703,2.419 -4.671,4.069c-7.26,6.076 -7.737,6.495 -9.417,8.49c-2.242,2.661 -2.4,4.4 -0.242,5.557c1.169,0.629 2.567,1.566 4.578,3.022c0.629,0.456 4.436,3.268 5.604,4.111c2.168,1.593 4.415,3.078 6.73,4.447c5.269,3.048 9.464,4.18 12.727,3.027c0.775,-0.272 8.521,-2.864 11.051,-3.771c5.08,-1.833 8.83,-3.461 11.392,-5.09c3.058,-1.943 4.137,-3.719 3.089,-5.374c-0.576,-0.931 -1.219,-1.82 -1.922,-2.661c-0.994,-1.161 -2.199,-2.124 -3.551,-2.838c-1.089,-0.607 -7.688,-3.693 -10.139,-4.924c-2.54,-1.283 -4.808,-3.032 -7.563,-5.635c-0.55,-0.524 -3.404,-3.32 -4.175,-4.028c-0.197,-0.182 -0.389,-0.355 -0.575,-0.52l0.786,0c0.048,0.044 0.097,0.088 0.146,0.133c0.775,0.717 3.635,3.519 4.179,4.033c2.724,2.571 4.955,4.295 7.437,5.552l0.006,-0.006ZM568.903,9.712c2.431,1.231 9.046,4.316 10.155,4.939c1.407,0.744 2.659,1.746 3.693,2.954c0.719,0.86 1.375,1.77 1.964,2.724c1.257,1.98 0.021,4.011 -3.247,6.09c-2.603,1.656 -6.379,3.3 -11.496,5.144c-2.535,0.911 -10.282,3.499 -11.051,3.771c-3.452,1.22 -7.778,0.052 -13.167,-3.069c-2.058,-1.19 -4.19,-2.619 -6.777,-4.473c-1.168,-0.843 -4.976,-3.661 -5.604,-4.112c-1.441,-1.089 -2.951,-2.087 -4.52,-2.985c-2.525,-1.362 -2.331,-3.477 0.089,-6.353c1.713,-2.032 2.184,-2.446 9.48,-8.553c1.586,-1.311 3.139,-2.662 4.656,-4.054c0.612,-0.563 1.209,-1.142 1.792,-1.735l0.725,0c-0.699,0.728 -1.42,1.434 -2.161,2.118c-1.299,1.204 -2.703,2.419 -4.672,4.069c-7.259,6.076 -7.736,6.495 -9.417,8.49c-2.241,2.661 -2.399,4.4 -0.241,5.557c1.168,0.629 2.567,1.566 4.578,3.022c0.628,0.456 4.436,3.268 5.604,4.111c2.168,1.593 4.414,3.078 6.73,4.447c5.268,3.048 9.464,4.18 12.727,3.027c0.775,-0.272 8.521,-2.864 11.051,-3.771c5.08,-1.833 8.83,-3.461 11.391,-5.09c3.059,-1.943 4.137,-3.719 3.09,-5.374c-0.576,-0.931 -1.219,-1.82 -1.922,-2.661c-0.994,-1.161 -2.199,-2.124 -3.551,-2.838c-1.089,-0.607 -7.688,-3.693 -10.139,-4.924l-0.119,-0.06c-2.492,-1.278 -4.733,-3.013 -7.444,-5.575c-0.55,-0.524 -3.404,-3.32 -4.175,-4.028c-0.197,-0.182 -0.389,-0.355 -0.575,-0.52l0.786,0c0.048,0.044 0.097,0.088 0.145,0.133c0.776,0.717 3.636,3.519 4.18,4.033c2.724,2.571 4.955,4.295 7.437,5.552l0.005,-0.006ZM337.695,0c-0.094,0.774 -0.144,1.478 -0.144,2.097c0,8.558 -8.536,23.453 -15.827,28.497c-0.981,0.678 -3.549,2.222 -6.296,3.847l-1.183,0.699l0,-0.613c2.428,-1.4 4.821,-2.855 7.18,-4.368c7.154,-4.955 15.603,-19.693 15.603,-28.067c0,-0.62 0.048,-1.321 0.14,-2.092l0.527,0ZM0,35.136l0,-0.612c2.426,-1.399 4.818,-2.854 7.175,-4.365c7.154,-4.955 15.602,-19.693 15.602,-28.067c0,-0.62 0.049,-1.321 0.141,-2.092l0.527,0c-0.094,0.774 -0.144,1.478 -0.144,2.097c0,8.558 -8.537,23.453 -15.827,28.497c-1.12,0.774 -4.312,2.679 -7.474,4.542ZM59.811,13.882c1.523,0.034 3.034,0.281 4.489,0.732c2.838,0.933 4.566,2.635 4.566,5.29c0,5.023 -4.98,9.008 -11.7,11.245c-5.143,1.718 -7.133,-0.938 -6.107,-8.663c0.441,-3.289 2.001,-5.588 4.316,-7.049c1.344,-0.842 2.86,-1.373 4.436,-1.555l0,0ZM374.061,13.882c1.523,0.034 3.034,0.281 4.489,0.732c2.839,0.933 4.567,2.635 4.567,5.29c0,5.023 -4.981,9.008 -11.701,11.245c-5.143,1.718 -7.133,-0.938 -6.107,-8.663c0.441,-3.289 2.001,-5.588 4.317,-7.049c1.344,-0.842 2.859,-1.373 4.435,-1.555l0,0ZM59.497,14.447c-1.365,0.21 -2.673,0.697 -3.844,1.43c-2.189,1.383 -3.656,3.551 -4.07,6.683c-0.989,7.39 0.712,9.663 5.415,8.097c6.526,-2.179 11.345,-6.039 11.345,-10.753c0,-2.388 -1.561,-3.928 -4.206,-4.792c-1.388,-0.447 -2.836,-0.686 -4.295,-0.707c-0.068,0 -0.183,0.016 -0.345,0.042l0,0ZM373.747,14.447c-1.365,0.21 -2.673,0.697 -3.844,1.43c-2.189,1.383 -3.656,3.551 -4.07,6.683c-0.99,7.39 0.712,9.663 5.416,8.097c6.525,-2.179 11.344,-6.039 11.344,-10.753c0,-2.388 -1.561,-3.928 -4.206,-4.792c-1.388,-0.447 -2.836,-0.686 -4.294,-0.707c-0.069,0 -0.183,0.016 -0.346,0.042l0,0ZM234.076,14.4c1.629,-0.194 2.985,-0.068 4.399,0.367c1.126,0.345 1.435,0.486 4.525,1.974c2.488,1.199 4.394,2.022 6.908,2.912c4.389,1.555 5.929,3.263 4.625,5.112c-1.089,1.54 -4.211,3.1 -9.344,4.807c-4.426,1.477 -8.107,1.231 -11.223,-0.471c-2.436,-1.335 -4.363,-3.404 -6.363,-6.442c-1.519,-2.309 -1.431,-4.295 0.083,-5.792c1.299,-1.284 3.598,-2.132 6.39,-2.462l0,-0.005ZM548.326,14.4c1.629,-0.194 2.985,-0.068 4.399,0.367c1.126,0.345 1.435,0.486 4.525,1.974c2.488,1.199 4.394,2.022 6.908,2.912c4.389,1.555 5.929,3.263 4.625,5.112c-1.089,1.54 -4.211,3.1 -9.344,4.807c-4.425,1.477 -8.107,1.231 -11.224,-0.471c-2.435,-1.335 -4.362,-3.404 -6.362,-6.442c-1.519,-2.309 -1.431,-4.295 0.083,-5.792c1.299,-1.284 3.598,-2.132 6.39,-2.462l0,-0.005ZM157.184,0c-0.345,1.285 -0.71,2.628 -0.926,3.349c-0.806,2.774 -1.893,5.459 -3.242,8.013c-3.247,6.054 -8.086,10.779 -15.168,14.016c-8.432,3.854 -12.045,3.43 -11.302,-0.546c0.524,-2.77 3.352,-7.242 6.804,-11.38c0.956,-1.132 1.801,-2.353 2.525,-3.645c1.59,-2.883 2.251,-5.256 2.505,-9.807l0.525,0c-0.258,4.654 -0.933,7.09 -2.57,10.058c-0.741,1.322 -1.608,2.571 -2.587,3.729c-3.389,4.07 -6.186,8.485 -6.683,11.14c-0.629,3.32 2.456,3.682 10.564,-0.026c6.971,-3.185 11.731,-7.83 14.926,-13.785c1.331,-2.526 2.401,-5.181 3.195,-7.924c0.208,-0.688 0.555,-1.954 0.889,-3.192l0.545,0ZM471.434,0c-0.345,1.285 -0.71,2.628 -0.926,3.349c-0.806,2.774 -1.893,5.459 -3.241,8.013c-3.248,6.054 -8.087,10.779 -15.168,14.016c-8.433,3.854 -12.046,3.43 -11.303,-0.546c0.524,-2.77 3.353,-7.242 6.804,-11.38c0.955,-1.132 1.801,-2.353 2.524,-3.645c1.591,-2.883 2.252,-5.256 2.506,-9.807l0.525,0c-0.258,4.654 -0.933,7.09 -2.57,10.058c-0.741,1.322 -1.608,2.571 -2.587,3.729c-3.389,4.07 -6.186,8.485 -6.683,11.14c-0.628,3.32 2.456,3.682 10.564,-0.026c6.971,-3.185 11.731,-7.83 14.926,-13.785c1.331,-2.526 2.401,-5.181 3.195,-7.924c0.208,-0.688 0.555,-1.954 0.889,-3.192l0.545,0ZM331.915,0c-2.574,6.484 -5.146,11.413 -7.536,13.803c-1.467,1.466 -2.65,2.953 -5.447,6.787c-1.78,2.451 -3.263,4.321 -4.687,5.814l0,-0.812c1.435,-1.561 3,-3.572 4.965,-6.269c2.11,-2.891 3.31,-4.4 4.803,-5.887c2.306,-2.309 4.815,-7.111 7.336,-13.436l0.566,0ZM0,26.398l0,-0.812c1.433,-1.56 2.998,-3.57 4.96,-6.263c2.11,-2.891 3.31,-4.4 4.803,-5.887c2.306,-2.309 4.815,-7.111 7.336,-13.436l0.566,0c-2.574,6.484 -5.146,11.413 -7.535,13.803c-1.467,1.466 -2.651,2.953 -5.448,6.787c-1.725,2.375 -3.17,4.204 -4.554,5.673l-0.128,0.135ZM327.169,0c-2.732,6.594 -7.122,13.003 -12.656,19.076l-0.268,0.294l0,-1.561c5.104,-5.698 9.176,-11.678 11.781,-17.809l1.143,0ZM0,19.364l0,-1.561c5.102,-5.696 9.172,-11.674 11.776,-17.803l1.143,0c-2.732,6.594 -7.122,13.003 -12.656,19.076l-0.263,0.288ZM151.73,0l-0.065,0.243c-1.561,5.855 -2.619,8.851 -4.279,11.423c-2.645,4.09 -5.955,6.641 -8.322,6.798c-0.039,0.002 -0.076,0.005 -0.114,0.005l-0.111,0.003c-2.254,0.005 -2.48,-2.327 -0.268,-5.523c2.814,-4.064 4.691,-8.214 5.527,-12.949l0.531,0c-0.842,4.847 -2.754,9.091 -5.628,13.243c-2.079,3.011 -1.844,4.818 0.031,4.697c2.169,-0.146 5.348,-2.592 7.914,-6.557c1.624,-2.514 2.672,-5.473 4.216,-11.276l0.029,-0.107l0.539,0ZM465.98,0l-0.065,0.243c-1.561,5.855 -2.619,8.851 -4.279,11.423c-2.645,4.09 -5.955,6.641 -8.322,6.798c-0.039,0.002 -0.076,0.005 -0.114,0.005l-0.111,0.003c-2.254,0.005 -2.48,-2.327 -0.267,-5.523c2.813,-4.064 4.69,-8.214 5.526,-12.949l0.531,0c-0.842,4.847 -2.754,9.091 -5.628,13.243c-2.08,3.011 -1.844,4.818 0.031,4.697c2.169,-0.146 5.347,-2.592 7.914,-6.557c1.624,-2.514 2.671,-5.473 4.216,-11.276l0.029,-0.107l0.539,0ZM234.139,14.923c-2.688,0.315 -4.887,1.132 -6.087,2.316c-1.325,1.309 -1.403,3.021 -0.01,5.132c1.954,2.975 3.823,4.981 6.18,6.269c2.986,1.629 6.511,1.87 10.8,0.44c5.023,-1.676 8.086,-3.205 9.082,-4.619c1.015,-1.441 -0.262,-2.854 -4.374,-4.316c-2.535,-0.901 -4.452,-1.728 -6.955,-2.933c-3.059,-1.471 -3.362,-1.608 -4.452,-1.943c-1.354,-0.421 -2.785,-0.54 -4.19,-0.346l0.006,0ZM548.389,14.923c-2.688,0.315 -4.887,1.132 -6.087,2.316c-1.325,1.309 -1.403,3.021 -0.01,5.132c1.954,2.975 3.823,4.981 6.18,6.269c2.986,1.629 6.511,1.87 10.8,0.44c5.023,-1.676 8.087,-3.205 9.082,-4.619c1.015,-1.441 -0.262,-2.854 -4.373,-4.316c-2.535,-0.901 -4.452,-1.728 -6.956,-2.933c-3.058,-1.471 -3.362,-1.608 -4.452,-1.943c-1.354,-0.421 -2.785,-0.54 -4.189,-0.346l0.005,0ZM311.593,0c-0.467,0.957 -0.922,1.741 -1.339,2.26c-0.23,0.288 -1.399,1.812 -1.65,2.142c-0.853,1.099 -1.624,2.042 -2.42,2.943c-2.136,2.415 -4.137,4.158 -6.039,5.08c-1.566,0.755 -3.021,0.917 -4.336,0.388c-1.487,-0.592 -2.2,-2.273 -3.221,-6.468c-0.147,-0.605 -0.294,-1.208 -0.44,-1.813c-0.419,-1.675 -0.77,-2.854 -1.194,-3.907c-0.084,-0.21 -0.168,-0.419 -0.25,-0.625l0.561,0l0.171,0.427c0.499,1.296 0.906,2.626 1.22,3.98c0.151,0.603 0.298,1.207 0.44,1.812c0.974,3.991 1.66,5.609 2.912,6.112c1.158,0.461 2.462,0.314 3.913,-0.377c1.822,-0.885 3.781,-2.587 5.865,-4.96c0.797,-0.891 1.556,-1.828 2.404,-2.917l1.655,-2.147c0.362,-0.452 0.757,-1.117 1.165,-1.93l0.583,0ZM625.843,0c-0.467,0.957 -0.922,1.741 -1.339,2.26c-0.23,0.288 -1.399,1.812 -1.65,2.142c-0.854,1.099 -1.624,2.042 -2.42,2.943c-2.136,2.415 -4.137,4.158 -6.039,5.08c-1.566,0.755 -3.021,0.917 -4.336,0.388c-1.487,-0.592 -2.2,-2.273 -3.221,-6.468c-0.147,-0.605 -0.294,-1.208 -0.44,-1.813c-0.419,-1.675 -0.77,-2.854 -1.194,-3.907c-0.084,-0.21 -0.168,-0.419 -0.25,-0.625l0.561,0l0.171,0.427c0.498,1.296 0.906,2.626 1.22,3.98c0.151,0.603 0.298,1.207 0.44,1.812c0.974,3.991 1.66,5.609 2.912,6.112c1.158,0.461 2.462,0.314 3.912,-0.377c1.823,-0.885 3.782,-2.587 5.866,-4.96c0.797,-0.891 1.556,-1.828 2.404,-2.917l1.655,-2.147c0.362,-0.452 0.757,-1.117 1.165,-1.93l0.583,0ZM321.076,0c-1.172,1.637 -2.596,3.687 -3.993,5.905l-2.838,4.561l0,-0.994l2.398,-3.85c1.205,-1.904 2.455,-3.778 3.749,-5.622l0.684,0ZM0,10.458l0,-0.995l2.393,-3.841c1.205,-1.904 2.455,-3.778 3.749,-5.622l0.684,0c-1.172,1.637 -2.596,3.687 -3.993,5.905l-2.833,4.553ZM307.285,0c-1.621,2.315 -3.607,4.49 -5.972,6.491c-2.251,1.901 -3.88,2.3 -5.106,1.278c-0.985,-0.822 -1.624,-2.393 -2.414,-5.488c-0.095,-0.362 -0.345,-1.389 -0.564,-2.281l0.541,0l0.531,2.149c0.764,2.986 1.372,4.494 2.242,5.217c0.979,0.817 2.351,0.487 4.436,-1.278c2.226,-1.884 4.11,-3.923 5.666,-6.088l0.64,0ZM621.535,0c-1.621,2.315 -3.607,4.49 -5.972,6.491c-2.251,1.901 -3.88,2.3 -5.106,1.278c-0.985,-0.822 -1.623,-2.393 -2.414,-5.488c-0.095,-0.362 -0.345,-1.389 -0.564,-2.281l0.541,0l0.531,2.149c0.764,2.986 1.372,4.494 2.242,5.217c0.979,0.817 2.351,0.487 4.436,-1.278c2.226,-1.884 4.11,-3.923 5.666,-6.088l0.64,0ZM102.377,0c-0.139,0.701 -0.313,1.425 -0.519,2.17l-0.006,-0.005c-1.425,5.133 -7.819,5.165 -13.995,1.729c-1.793,-0.995 -3.198,-2.387 -4.096,-3.894l0.611,0c0.851,1.323 2.126,2.544 3.737,3.438c5.924,3.294 11.941,3.263 13.24,-1.414c0.194,-0.696 0.357,-1.371 0.491,-2.024l0.537,0ZM416.627,0c-0.139,0.701 -0.313,1.425 -0.519,2.17l-0.006,-0.005c-1.425,5.133 -7.819,5.165 -13.995,1.729c-1.793,-0.995 -3.198,-2.387 -4.096,-3.894l0.611,0c0.851,1.323 2.126,2.544 3.737,3.438c5.924,3.294 11.941,3.263 13.24,-1.414c0.194,-0.696 0.357,-1.371 0.491,-2.024l0.537,0ZM258.462,0c0.201,0.265 0.4,0.48 0.602,0.652c0.377,0.314 0.759,0.628 1.152,0.942l-0.006,0c1.802,1.419 3.666,2.671 5.992,4.059c0.555,0.336 4.41,2.567 5.421,3.195c5.903,3.666 7.856,6.992 6.468,13.266c-0.76,3.415 -2.373,5.814 -4.918,7.563c-2.006,1.377 -4.227,2.232 -8.421,3.436c-6.27,1.807 -7.165,2.09 -9.858,3.289c-1.415,0.628 -2.782,1.36 -4.09,2.189c-5.819,3.703 -10.004,4.033 -14.644,1.718c-1.864,-0.927 -9.008,-5.761 -9.008,-5.766c-0.892,-0.563 -1.8,-1.099 -2.723,-1.608c-8.401,-4.625 -17.949,-12.654 -18.08,-16.681c-0.058,-1.812 1.042,-3.441 3.289,-5.374c0.539,-0.471 1.142,-0.948 1.927,-1.545c0.378,-0.288 1.77,-1.341 2.064,-1.571c2.341,-1.781 3.76,-3.032 4.881,-4.426c0.891,-1.108 1.836,-2.228 2.81,-3.338l1.403,0c-1.183,1.325 -2.329,2.671 -3.396,3.998c-1.189,1.477 -2.66,2.776 -5.065,4.604l-2.063,1.56c-0.641,0.486 -1.268,0.988 -1.88,1.509c-2.027,1.744 -2.969,3.143 -2.923,4.551c0.11,3.478 9.501,11.376 17.535,15.791c0.922,0.508 1.833,1.048 2.776,1.639c0.063,0.042 7.128,4.83 8.92,5.72c4.305,2.147 8.097,1.843 13.617,-1.666c1.351,-0.855 2.764,-1.609 4.227,-2.257c2.749,-1.231 3.666,-1.519 9.993,-3.342c4.084,-1.173 6.232,-2 8.118,-3.299c2.325,-1.592 3.786,-3.76 4.482,-6.924c1.278,-5.772 -0.434,-8.694 -5.997,-12.151c-0.994,-0.618 -4.833,-2.838 -5.404,-3.184c-2.357,-1.409 -4.259,-2.681 -6.097,-4.138c-0.403,-0.314 -0.796,-0.634 -1.183,-0.964c-0.414,-0.352 -0.799,-0.823 -1.19,-1.447l1.269,0ZM314.868,0c-0.204,0.444 -0.412,0.882 -0.623,1.312l0,-1.205l0.049,-0.107l0.574,0ZM303.437,0c-2.192,1.881 -3.709,2.292 -5.046,1.191c-0.36,-0.298 -0.685,-0.668 -1.018,-1.191l1.296,0c0.128,0.15 0.256,0.276 0.387,0.385c0.668,0.548 1.456,0.479 2.692,-0.385l1.689,0ZM617.687,0c-2.192,1.881 -3.709,2.292 -5.046,1.191c-0.36,-0.298 -0.685,-0.668 -1.018,-1.191l1.296,0c0.128,0.15 0.256,0.276 0.387,0.385c0.668,0.548 1.456,0.479 2.692,-0.385l1.689,0ZM98.367,0c-0.448,0.308 -0.968,0.528 -1.553,0.662c-1.539,0.354 -3.475,0.057 -5.182,-0.662l1.636,0c1.199,0.309 2.415,0.386 3.43,0.154c0.182,-0.042 0.357,-0.094 0.524,-0.154l1.145,0ZM412.617,0c-0.448,0.308 -0.968,0.528 -1.553,0.662c-1.539,0.354 -3.475,0.057 -5.182,-0.662l1.636,0c1.199,0.309 2.415,0.386 3.43,0.154c0.182,-0.042 0.357,-0.094 0.524,-0.154l1.145,0Z" style="fill:#b0b0b0;"/><path id="Pill" d="M203.702,17.049c0,-2.685 -2.179,-4.864 -4.863,-4.864l-168.622,0.084c-2.685,0 -4.864,2.18 -4.864,4.864l0,9.727c0,2.685 2.179,4.864 4.864,4.864l168.622,-0.084c2.684,0 4.863,-2.18 4.863,-4.864l0,-9.727Z" style="fill:#fff;"/><path id="Icon" d="M34.164,22.143l-2.43,-2.449l-1.353,1.353l-1.435,-1.446l1.353,-1.363l-0.338,-0.317l1.005,-1.005l0.317,0.318l1.343,-1.353l1.435,1.455l-1.332,1.353l2.418,2.45l2.43,-2.44l-1.343,-1.363l1.445,-1.455l1.343,1.363l0.318,-0.328l0.994,1.005l-0.328,0.317c0.341,0.547 0.594,1.784 0.758,3.711l-2.193,-2.255l-2.419,2.46l1.291,1.301l2.327,1.978l-1.343,1.353l-1.968,-2.336l-1.312,-1.302l-1.291,1.302l-1.968,2.336l-1.343,-1.353l2.307,-1.978l1.312,-1.312Z" style="fill:#000;fill-rule:nonzero;"/><g id="Slogan"><path d="M52.309,21.605l1.519,0l0,3.444c-0.445,0.354 -0.963,0.625 -1.556,0.815c-0.592,0.189 -1.201,0.283 -1.826,0.283c-0.881,0 -1.675,-0.191 -2.383,-0.573c-0.707,-0.383 -1.263,-0.912 -1.666,-1.587c-0.403,-0.674 -0.605,-1.436 -0.605,-2.283c0,-0.848 0.202,-1.609 0.605,-2.284c0.403,-0.674 0.961,-1.203 1.672,-1.586c0.712,-0.382 1.512,-0.574 2.401,-0.574c0.724,0 1.383,0.12 1.975,0.358c0.593,0.239 1.091,0.589 1.494,1.049l-1.012,0.988c-0.659,-0.658 -1.453,-0.988 -2.383,-0.988c-0.609,0 -1.15,0.128 -1.623,0.383c-0.473,0.255 -0.843,0.613 -1.111,1.074c-0.267,0.461 -0.401,0.987 -0.401,1.58c0,0.576 0.134,1.094 0.401,1.555c0.268,0.461 0.638,0.823 1.111,1.086c0.473,0.264 1.01,0.395 1.611,0.395c0.675,0 1.267,-0.148 1.777,-0.444l0,-2.691Z" style="fill:#000;fill-rule:nonzero;"/><path d="M61.962,23.222l-5.172,0c0.091,0.486 0.327,0.87 0.71,1.154c0.382,0.284 0.858,0.426 1.425,0.426c0.725,0 1.321,-0.239 1.79,-0.716l0.827,0.951c-0.296,0.353 -0.67,0.621 -1.123,0.802c-0.453,0.181 -0.963,0.271 -1.531,0.271c-0.724,0 -1.361,-0.144 -1.913,-0.432c-0.551,-0.288 -0.977,-0.689 -1.277,-1.203c-0.301,-0.514 -0.451,-1.097 -0.451,-1.747c0,-0.642 0.146,-1.22 0.438,-1.734c0.292,-0.514 0.698,-0.915 1.216,-1.203c0.519,-0.288 1.103,-0.432 1.753,-0.432c0.642,0 1.216,0.142 1.722,0.425c0.506,0.284 0.901,0.683 1.185,1.198c0.284,0.514 0.426,1.109 0.426,1.783c0,0.107 -0.009,0.26 -0.025,0.457ZM57.401,21.031c-0.341,0.292 -0.549,0.681 -0.623,1.167l3.74,0c-0.066,-0.478 -0.268,-0.864 -0.605,-1.161c-0.337,-0.296 -0.757,-0.444 -1.259,-0.444c-0.494,0 -0.911,0.146 -1.253,0.438Z" style="fill:#000;fill-rule:nonzero;"/><path d="M73.762,20.081c0.486,0.481 0.729,1.203 0.729,2.166l0,3.777l-1.543,0l0,-3.58c0,-0.576 -0.128,-1.01 -0.383,-1.302c-0.255,-0.292 -0.621,-0.438 -1.099,-0.438c-0.518,0 -0.934,0.171 -1.246,0.512c-0.313,0.342 -0.469,0.829 -0.469,1.463l0,3.345l-1.543,0l0,-3.58c0,-0.576 -0.128,-1.01 -0.383,-1.302c-0.255,-0.292 -0.621,-0.438 -1.098,-0.438c-0.527,0 -0.945,0.169 -1.253,0.506c-0.309,0.337 -0.463,0.827 -0.463,1.469l0,3.345l-1.543,0l0,-6.591l1.469,0l0,0.839c0.247,-0.296 0.555,-0.523 0.925,-0.679c0.371,-0.156 0.782,-0.234 1.235,-0.234c0.494,0 0.932,0.092 1.314,0.277c0.383,0.185 0.685,0.459 0.908,0.821c0.271,-0.345 0.621,-0.615 1.049,-0.808c0.428,-0.194 0.901,-0.29 1.419,-0.29c0.831,0 1.49,0.24 1.975,0.722Z" style="fill:#000;fill-rule:nonzero;"/><path d="M81.212,20.056c0.514,0.465 0.771,1.166 0.771,2.105l0,3.863l-1.457,0l0,-0.802c-0.189,0.288 -0.458,0.508 -0.808,0.66c-0.35,0.152 -0.772,0.228 -1.265,0.228c-0.494,0 -0.926,-0.084 -1.296,-0.253c-0.371,-0.168 -0.657,-0.403 -0.858,-0.703c-0.202,-0.301 -0.303,-0.64 -0.303,-1.018c0,-0.593 0.221,-1.068 0.661,-1.426c0.44,-0.358 1.133,-0.537 2.08,-0.537l1.703,0l0,-0.099c0,-0.461 -0.138,-0.815 -0.413,-1.061c-0.276,-0.247 -0.686,-0.371 -1.229,-0.371c-0.37,0 -0.734,0.058 -1.092,0.173c-0.358,0.115 -0.66,0.276 -0.907,0.482l-0.605,-1.124c0.346,-0.263 0.761,-0.465 1.247,-0.605c0.485,-0.139 0.999,-0.209 1.543,-0.209c0.971,0 1.713,0.232 2.228,0.697ZM79.804,24.722c0.301,-0.177 0.513,-0.43 0.636,-0.759l0,-0.766l-1.592,0c-0.889,0 -1.333,0.293 -1.333,0.877c0,0.28 0.111,0.502 0.333,0.666c0.222,0.165 0.531,0.247 0.926,0.247c0.386,0 0.73,-0.088 1.03,-0.265Z" style="fill:#000;fill-rule:nonzero;"/><path d="M85.205,25.678c-0.544,-0.288 -0.967,-0.689 -1.272,-1.203c-0.304,-0.514 -0.456,-1.097 -0.456,-1.747c0,-0.65 0.152,-1.23 0.456,-1.74c0.305,-0.51 0.726,-0.909 1.265,-1.197c0.539,-0.288 1.155,-0.432 1.846,-0.432c0.65,0 1.22,0.131 1.709,0.395c0.49,0.263 0.858,0.641 1.105,1.135l-1.185,0.691c-0.189,-0.304 -0.426,-0.532 -0.71,-0.685c-0.284,-0.152 -0.594,-0.228 -0.932,-0.228c-0.576,0 -1.053,0.187 -1.431,0.562c-0.379,0.374 -0.568,0.874 -0.568,1.499c0,0.626 0.187,1.126 0.561,1.5c0.375,0.374 0.854,0.562 1.438,0.562c0.338,0 0.648,-0.076 0.932,-0.229c0.284,-0.152 0.521,-0.38 0.71,-0.685l1.185,0.692c-0.255,0.493 -0.627,0.874 -1.117,1.141c-0.49,0.268 -1.055,0.401 -1.697,0.401c-0.683,0 -1.296,-0.144 -1.839,-0.432Z" style="fill:#000;fill-rule:nonzero;"/><path d="M96.869,20.087c0.502,0.485 0.753,1.205 0.753,2.16l0,3.777l-1.543,0l0,-3.58c0,-0.576 -0.136,-1.01 -0.407,-1.302c-0.272,-0.292 -0.658,-0.438 -1.16,-0.438c-0.568,0 -1.017,0.171 -1.346,0.512c-0.329,0.342 -0.494,0.833 -0.494,1.475l0,3.333l-1.543,0l0,-9.159l1.543,0l0,3.333c0.255,-0.272 0.57,-0.479 0.945,-0.623c0.374,-0.144 0.792,-0.216 1.252,-0.216c0.832,0 1.498,0.242 2,0.728Z" style="fill:#000;fill-rule:nonzero;"/><path d="M103.547,25.666c-0.181,0.148 -0.401,0.259 -0.66,0.333c-0.26,0.074 -0.533,0.111 -0.821,0.111c-0.724,0 -1.284,-0.189 -1.679,-0.567c-0.395,-0.379 -0.592,-0.93 -0.592,-1.654l0,-3.173l-1.087,0l0,-1.234l1.087,0l0,-1.506l1.542,0l0,1.506l1.766,0l0,1.234l-1.766,0l0,3.136c0,0.321 0.079,0.565 0.235,0.734c0.156,0.169 0.383,0.253 0.679,0.253c0.345,0 0.633,-0.09 0.864,-0.271l0.432,1.098Z" style="fill:#000;fill-rule:nonzero;"/><path d="M108.225,19.433l1.543,0l0,6.591l-1.543,0l0,-6.591ZM108.299,18.081c-0.189,-0.177 -0.284,-0.397 -0.284,-0.66c0,-0.264 0.095,-0.484 0.284,-0.661c0.189,-0.177 0.424,-0.265 0.704,-0.265c0.279,0 0.514,0.084 0.703,0.253c0.19,0.169 0.284,0.381 0.284,0.636c0,0.271 -0.092,0.5 -0.278,0.685c-0.185,0.185 -0.421,0.277 -0.709,0.277c-0.28,0 -0.515,-0.088 -0.704,-0.265Z" style="fill:#000;fill-rule:nonzero;"/><path d="M122.087,20.081c0.485,0.481 0.728,1.203 0.728,2.166l0,3.777l-1.543,0l0,-3.58c0,-0.576 -0.127,-1.01 -0.383,-1.302c-0.255,-0.292 -0.621,-0.438 -1.098,-0.438c-0.519,0 -0.934,0.171 -1.247,0.512c-0.313,0.342 -0.469,0.829 -0.469,1.463l0,3.345l-1.543,0l0,-3.58c0,-0.576 -0.127,-1.01 -0.382,-1.302c-0.256,-0.292 -0.622,-0.438 -1.099,-0.438c-0.527,0 -0.944,0.169 -1.253,0.506c-0.308,0.337 -0.463,0.827 -0.463,1.469l0,3.345l-1.543,0l0,-6.591l1.469,0l0,0.839c0.247,-0.296 0.556,-0.523 0.926,-0.679c0.37,-0.156 0.782,-0.234 1.234,-0.234c0.494,0 0.932,0.092 1.315,0.277c0.383,0.185 0.685,0.459 0.907,0.821c0.272,-0.345 0.621,-0.615 1.049,-0.808c0.428,-0.194 0.901,-0.29 1.42,-0.29c0.831,0 1.489,0.24 1.975,0.722Z" style="fill:#000;fill-rule:nonzero;"/><path d="M133.998,26.024l-1.765,-2.53c-0.074,0.008 -0.185,0.012 -0.333,0.012l-1.951,0l0,2.518l-1.604,0l0,-8.64l3.555,0c0.749,0 1.401,0.123 1.956,0.37c0.556,0.247 0.981,0.601 1.278,1.061c0.296,0.461 0.444,1.009 0.444,1.642c0,0.65 -0.158,1.21 -0.475,1.679c-0.317,0.469 -0.772,0.819 -1.364,1.049l1.987,2.839l-1.728,0ZM133.418,19.186c-0.362,-0.296 -0.893,-0.445 -1.592,-0.445l-1.877,0l0,3.444l1.877,0c0.699,0 1.23,-0.15 1.592,-0.45c0.362,-0.301 0.543,-0.726 0.543,-1.278c0,-0.551 -0.181,-0.975 -0.543,-1.271Z" style="fill:#000;fill-rule:nonzero;"/><path d="M143.601,19.433l0,6.591l-1.469,0l0,-0.839c-0.246,0.296 -0.555,0.524 -0.925,0.685c-0.371,0.16 -0.77,0.24 -1.198,0.24c-0.88,0 -1.573,-0.244 -2.079,-0.734c-0.507,-0.49 -0.76,-1.216 -0.76,-2.179l0,-3.764l1.543,0l0,3.555c0,0.592 0.134,1.034 0.401,1.326c0.268,0.293 0.649,0.439 1.142,0.439c0.552,0 0.99,-0.171 1.315,-0.513c0.325,-0.341 0.487,-0.833 0.487,-1.475l0,-3.332l1.543,0Z" style="fill:#000;fill-rule:nonzero;"/><path d="M151.365,20.087c0.502,0.485 0.753,1.205 0.753,2.16l0,3.777l-1.543,0l0,-3.58c0,-0.576 -0.135,-1.01 -0.407,-1.302c-0.272,-0.292 -0.658,-0.438 -1.16,-0.438c-0.568,0 -1.017,0.171 -1.346,0.512c-0.329,0.342 -0.493,0.833 -0.493,1.475l0,3.333l-1.543,0l0,-9.159l1.543,0l0,3.333c0.255,-0.272 0.569,-0.479 0.944,-0.623c0.374,-0.144 0.792,-0.216 1.253,-0.216c0.831,0 1.497,0.242 1.999,0.728Z" style="fill:#000;fill-rule:nonzero;"/><path d="M157.895,19.359l0,1.468c-0.132,-0.024 -0.251,-0.037 -0.358,-0.037c-0.601,0 -1.07,0.175 -1.407,0.525c-0.338,0.35 -0.506,0.854 -0.506,1.512l0,3.197l-1.543,0l0,-6.591l1.469,0l0,0.962c0.444,-0.691 1.226,-1.036 2.345,-1.036Z" style="fill:#000;fill-rule:nonzero;"/><path d="M165.684,19.433l0,5.591c0,2.321 -1.185,3.481 -3.555,3.481c-0.634,0 -1.235,-0.08 -1.802,-0.241c-0.568,-0.16 -1.037,-0.393 -1.408,-0.697l0.692,-1.16c0.288,0.238 0.652,0.43 1.092,0.574c0.44,0.144 0.887,0.216 1.339,0.216c0.725,0 1.255,-0.165 1.593,-0.494c0.337,-0.329 0.506,-0.831 0.506,-1.506l0,-0.346c-0.264,0.288 -0.585,0.507 -0.963,0.655c-0.379,0.148 -0.794,0.222 -1.247,0.222c-0.625,0 -1.191,-0.134 -1.697,-0.401c-0.506,-0.268 -0.905,-0.644 -1.197,-1.13c-0.292,-0.485 -0.438,-1.041 -0.438,-1.666c0,-0.626 0.146,-1.179 0.438,-1.66c0.292,-0.482 0.691,-0.854 1.197,-1.117c0.506,-0.264 1.072,-0.395 1.697,-0.395c0.478,0 0.912,0.078 1.303,0.234c0.39,0.156 0.717,0.395 0.981,0.716l0,-0.876l1.469,0ZM163.604,23.895c0.374,-0.35 0.561,-0.805 0.561,-1.364c0,-0.551 -0.187,-1 -0.561,-1.346c-0.375,-0.345 -0.854,-0.518 -1.438,-0.518c-0.593,0 -1.076,0.173 -1.451,0.518c-0.374,0.346 -0.561,0.795 -0.561,1.346c0,0.559 0.187,1.014 0.561,1.364c0.375,0.35 0.858,0.524 1.451,0.524c0.584,0 1.063,-0.174 1.438,-0.524Z" style="fill:#000;fill-rule:nonzero;"/><path d="M173.88,23.222l-5.172,0c0.09,0.486 0.327,0.87 0.71,1.154c0.382,0.284 0.857,0.426 1.425,0.426c0.724,0 1.321,-0.239 1.79,-0.716l0.827,0.951c-0.296,0.353 -0.671,0.621 -1.123,0.802c-0.453,0.181 -0.963,0.271 -1.531,0.271c-0.724,0 -1.362,-0.144 -1.913,-0.432c-0.551,-0.288 -0.977,-0.689 -1.278,-1.203c-0.3,-0.514 -0.45,-1.097 -0.45,-1.747c0,-0.642 0.146,-1.22 0.438,-1.734c0.292,-0.514 0.697,-0.915 1.216,-1.203c0.518,-0.288 1.103,-0.432 1.753,-0.432c0.642,0 1.216,0.142 1.722,0.425c0.506,0.284 0.901,0.683 1.185,1.198c0.283,0.514 0.425,1.109 0.425,1.783c0,0.107 -0.008,0.26 -0.024,0.457ZM169.319,21.031c-0.342,0.292 -0.549,0.681 -0.624,1.167l3.741,0c-0.066,-0.478 -0.268,-0.864 -0.605,-1.161c-0.338,-0.296 -0.757,-0.444 -1.259,-0.444c-0.494,0 -0.912,0.146 -1.253,0.438Z" style="fill:#000;fill-rule:nonzero;"/><path d="M180.761,19.778c0.506,0.28 0.903,0.675 1.191,1.185c0.288,0.51 0.432,1.099 0.432,1.765c0,0.667 -0.144,1.257 -0.432,1.772c-0.288,0.514 -0.685,0.911 -1.191,1.191c-0.506,0.28 -1.08,0.419 -1.722,0.419c-0.452,0 -0.866,-0.078 -1.24,-0.234c-0.375,-0.156 -0.689,-0.391 -0.945,-0.704l0,0.852l-1.468,0l0,-9.159l1.543,0l0,3.37c0.263,-0.288 0.574,-0.506 0.931,-0.654c0.358,-0.148 0.751,-0.222 1.179,-0.222c0.642,0 1.216,0.139 1.722,0.419ZM180.267,24.222c0.367,-0.379 0.55,-0.876 0.55,-1.494c0,-0.617 -0.183,-1.115 -0.55,-1.493c-0.366,-0.379 -0.833,-0.568 -1.401,-0.568c-0.37,0 -0.703,0.084 -0.999,0.253c-0.297,0.169 -0.531,0.409 -0.704,0.722c-0.173,0.313 -0.259,0.675 -0.259,1.086c0,0.412 0.086,0.774 0.259,1.087c0.173,0.312 0.407,0.553 0.704,0.722c0.296,0.168 0.629,0.253 0.999,0.253c0.568,0 1.035,-0.19 1.401,-0.568Z" style="fill:#000;fill-rule:nonzero;"/><path d="M183.853,19.433l1.543,0l0,6.591l-1.543,0l0,-6.591ZM183.927,18.081c-0.189,-0.177 -0.284,-0.397 -0.284,-0.66c0,-0.264 0.095,-0.484 0.284,-0.661c0.19,-0.177 0.424,-0.265 0.704,-0.265c0.28,0 0.514,0.084 0.703,0.253c0.19,0.169 0.284,0.381 0.284,0.636c0,0.271 -0.092,0.5 -0.277,0.685c-0.186,0.185 -0.422,0.277 -0.71,0.277c-0.28,0 -0.514,-0.088 -0.704,-0.265Z" style="fill:#000;fill-rule:nonzero;"/><path d="M193.592,23.222l-5.172,0c0.091,0.486 0.327,0.87 0.71,1.154c0.383,0.284 0.858,0.426 1.426,0.426c0.724,0 1.32,-0.239 1.789,-0.716l0.827,0.951c-0.296,0.353 -0.67,0.621 -1.123,0.802c-0.452,0.181 -0.963,0.271 -1.53,0.271c-0.725,0 -1.362,-0.144 -1.914,-0.432c-0.551,-0.288 -0.977,-0.689 -1.277,-1.203c-0.3,-0.514 -0.451,-1.097 -0.451,-1.747c0,-0.642 0.146,-1.22 0.439,-1.734c0.292,-0.514 0.697,-0.915 1.215,-1.203c0.519,-0.288 1.103,-0.432 1.753,-0.432c0.642,0 1.216,0.142 1.722,0.425c0.506,0.284 0.901,0.683 1.185,1.198c0.284,0.514 0.426,1.109 0.426,1.783c0,0.107 -0.008,0.26 -0.025,0.457ZM189.031,21.031c-0.341,0.292 -0.549,0.681 -0.623,1.167l3.74,0c-0.066,-0.478 -0.267,-0.864 -0.605,-1.161c-0.337,-0.296 -0.757,-0.444 -1.259,-0.444c-0.494,0 -0.911,0.146 -1.253,0.438Z" style="fill:#000;fill-rule:nonzero;"/><path d="M199.06,25.666c-0.181,0.148 -0.401,0.259 -0.66,0.333c-0.259,0.074 -0.533,0.111 -0.821,0.111c-0.724,0 -1.284,-0.189 -1.679,-0.567c-0.395,-0.379 -0.592,-0.93 -0.592,-1.654l0,-3.173l-1.086,0l0,-1.234l1.086,0l0,-1.506l1.543,0l0,1.506l1.765,0l0,1.234l-1.765,0l0,3.136c0,0.321 0.078,0.565 0.234,0.734c0.157,0.169 0.383,0.253 0.679,0.253c0.346,0 0.634,-0.09 0.864,-0.271l0.432,1.098Z" style="fill:#000;fill-rule:nonzero;"/></g></svg>