<?xml version="1.0" standalone="no"?>
<!DOCTYPE svg PUBLIC "-//W3C//DTD SVG 1.1//EN" "http://www.w3.org/Graphics/SVG/1.1/DTD/svg11.dtd">
<svg width="100%" height="100%" viewBox="0 0 180 180" version="1.1" xmlns="http://www.w3.org/2000/svg" xmlns:xlink="http://www.w3.org/1999/xlink" xml:space="preserve" style="fill-rule:evenodd;clip-rule:evenodd;stroke-linejoin:round;stroke-miterlimit:1.41421;">
    <g transform="matrix(1.5,0,0,1.5,-0,-0)">
        <g transform="matrix(1.16163,0,0,1.16163,-323.693,-18.7509)">
            <path d="M381.924,26.096C381.924,20.602 377.463,16.142 371.969,16.142L288.608,16.142C283.114,16.142 278.654,20.602 278.654,26.096L278.654,109.457C278.654,114.951 283.114,119.412 288.608,119.412L371.969,119.412C377.463,119.412 381.924,114.951 381.924,109.457L381.924,26.096Z" style="fill:rgb(220,220,220);"/>
        </g>
        <g transform="matrix(1,0,0,1,-207.524,-0.0417082)">
            <path d="M327.486,103.731C325.834,104.635 324.356,105.816 322.915,107.39C321.045,109.501 318.639,111.069 315.953,111.929C313.718,112.627 311.958,112.816 308.097,112.941C303.921,113.081 302.238,113.339 300.492,114.429C299.513,115.054 298.524,115.661 297.524,116.251C296.309,116.966 295.052,117.608 293.76,118.172C292.637,118.662 291.367,119.15 289.855,119.663L287.597,119.663C290.037,118.906 291.909,118.223 293.481,117.536C294.747,116.982 295.978,116.353 297.168,115.651C297.936,115.197 298.39,114.925 300.129,113.835C302.014,112.662 303.774,112.383 308.076,112.243C311.875,112.117 313.593,111.943 315.736,111.258C318.307,110.437 320.609,108.936 322.398,106.915C323.994,105.178 325.634,103.902 327.486,102.942L327.486,103.731ZM327.486,84.86C322.073,85.225 318.632,86.005 314.424,87.914C312.388,88.84 310.394,89.853 308.446,90.951C305.443,92.648 297.035,98.088 295.771,98.821C290.464,101.915 285.974,103.312 280.059,103.312C268.937,103.312 261.516,106.993 248.836,119.663L247.846,119.663C260.96,106.463 268.575,102.613 280.059,102.613C285.841,102.613 290.213,101.252 295.422,98.214C296.665,97.495 305.073,92.055 308.104,90.344C310.08,89.233 312.056,88.228 314.13,87.278C318.444,85.317 321.963,84.525 327.486,84.155L327.486,84.86ZM318.717,119.663L318.296,119.663C321.018,118.456 323.291,117.036 325.213,115.274L325.317,115.179C323.741,117.373 321.415,118.992 318.717,119.663ZM327.486,90.798C323.907,91.54 321.074,93.307 318.167,96.133C317.859,96.433 315.01,99.373 314.2,100.085C312.545,101.545 311.086,102.264 309.389,102.264C305.827,102.264 304.78,102.334 303.411,102.725C301.547,103.27 299.717,104.38 295.136,107.718C288.292,112.697 282.671,114.136 273.774,114.136C270.796,114.136 266.844,116.257 262.823,119.663L260.695,119.663C265.366,115.44 270.132,112.739 273.774,112.739C282.406,112.739 287.741,111.37 294.312,106.594C299.033,103.158 300.946,101.985 303.02,101.384C304.57,100.937 305.674,100.867 309.389,100.867C310.688,100.867 311.854,100.288 313.278,99.038C314.033,98.367 316.847,95.462 317.189,95.127C320.363,92.053 323.497,90.134 327.486,89.372L327.486,90.798ZM216.7,98.256C217.105,98.619 218.446,99.583 218.481,99.604C219.85,100.7 219.906,101.915 218.488,104.045C215.876,107.983 212.322,106.203 212.322,100.867C212.322,98.207 212.678,96.908 213.767,96.664C214.591,96.482 215.164,96.873 216.7,98.256ZM215.765,99.289C214.717,98.347 214.207,97.997 214.068,98.032C213.949,98.053 213.719,98.891 213.719,100.867C213.719,104.967 215.583,105.902 217.329,103.277C218.376,101.698 218.355,101.293 217.608,100.693C217.629,100.714 216.247,99.715 215.765,99.296L215.765,99.289L215.765,99.289ZM207.524,88.244C208.416,86.143 209.67,84.361 211.365,82.481C212.041,81.671 212.63,80.793 213.125,79.862C213.537,79.143 215.066,76.28 215.024,76.363C218.125,70.679 220.409,68.312 223.579,69.101C224.396,69.31 225.115,69.639 226.079,70.211L227.05,70.798C227.737,71.233 228.462,71.606 229.214,71.915C229.703,72.104 230.471,72.139 232.531,72.097L233.034,72.09C235.241,72.055 236.372,72.146 237.105,72.551C238.23,73.172 237.943,74.338 236.309,75.972C235.422,76.859 234.523,77.734 233.614,78.598C226.212,85.651 224.71,87.257 223.823,89.806C222.51,93.605 222.441,94.527 223.139,98.717C223.963,103.647 222.175,110.295 219.305,110.295C218.953,110.295 218.601,110.312 218.251,110.344L217.804,110.372C215.807,110.497 214.431,110.49 212.957,110.253C210.619,109.874 208.771,108.944 207.524,107.351L207.524,106.098C208.633,108.067 210.525,109.152 213.069,109.562C214.473,109.792 215.807,109.799 217.755,109.673C218.041,109.657 218.328,109.641 218.614,109.624C218.907,109.603 219.124,109.596 219.305,109.596C221.54,109.596 223.216,103.381 222.448,98.828C221.735,94.527 221.812,93.493 223.167,89.583C224.103,86.859 225.583,85.274 233.132,78.088C234.214,77.062 235.038,76.259 235.82,75.483C237.175,74.122 237.336,73.472 236.763,73.158C236.191,72.844 235.108,72.753 233.048,72.788L232.545,72.795C230.353,72.837 229.57,72.809 228.956,72.558C228.216,72.271 227.58,71.929 226.686,71.391L225.723,70.812C225.008,70.356 224.229,70.009 223.411,69.785C220.702,69.108 218.579,71.301 215.639,76.699C215.688,76.608 214.145,79.478 213.733,80.204C213.213,81.179 212.592,82.096 211.882,82.942C209.783,85.28 208.385,87.441 207.524,90.306L207.524,88.244ZM327.486,77.994C327.067,78.054 326.637,78.113 326.197,78.172C318.306,79.219 312.203,81.601 304.724,85.902C303.572,86.559 299.647,88.884 299.857,88.766C297.971,89.869 296.581,90.644 295.22,91.321C291.288,93.277 287.908,94.233 284.249,94.233C272.287,94.233 255.311,102.271 248.195,110.176C245.319,113.374 241.846,116.646 238.134,119.663L237.019,119.663C240.956,116.522 244.652,113.075 247.678,109.715C254.92,101.664 272.084,93.535 284.249,93.535C287.79,93.535 291.072,92.606 294.905,90.693C296.253,90.023 297.629,89.261 299.5,88.165C299.291,88.291 303.222,85.958 304.375,85.295C311.931,80.958 318.104,78.542 326.1,77.474C326.575,77.41 327.037,77.347 327.486,77.283L327.486,77.994ZM327.486,72.861C326.035,73.378 324.349,73.901 322.315,74.485C313.956,76.894 312.762,77.271 309.172,78.87C307.285,79.708 305.462,80.684 303.718,81.789C295.96,86.726 290.38,87.166 284.193,84.08C281.707,82.844 272.182,76.398 272.182,76.391C270.993,75.641 269.782,74.926 268.551,74.247C257.35,68.081 244.619,57.376 244.445,52.006C244.368,49.59 245.834,47.418 248.83,44.841C249.549,44.213 250.353,43.577 251.4,42.781C251.903,42.397 253.76,40.993 254.151,40.686C257.273,38.312 259.165,36.643 260.66,34.785C268.425,25.134 279.2,14.757 284.654,12.243C293.076,8.375 298.509,8.214 303.767,12.327C306.037,14.101 307.713,16.894 309.759,21.65C309.961,22.104 311.365,25.456 311.77,26.357C312.901,28.905 313.795,30.407 314.731,31.203C315.234,31.622 315.743,32.041 316.267,32.46L316.26,32.46C318.662,34.352 321.148,36.021 324.249,37.872C324.608,38.088 325.996,38.896 327.486,39.768L327.486,41.383C325.755,40.37 323.957,39.324 323.53,39.066C320.387,37.188 317.852,35.491 315.401,33.549C314.864,33.13 314.34,32.704 313.823,32.264C312.685,31.294 311.707,29.653 310.492,26.922C310.087,26.014 308.676,22.648 308.481,22.202C306.519,17.662 304.933,15.009 302.908,13.431C298.139,9.695 293.236,9.834 285.241,13.514C280.038,15.903 269.389,26.168 261.749,35.665C260.164,37.634 258.202,39.366 254.996,41.803L252.245,43.884C251.39,44.531 250.554,45.201 249.738,45.896C247.036,48.221 245.779,50.086 245.841,51.964C245.988,56.601 258.509,67.132 269.221,73.018C270.45,73.696 271.665,74.415 272.922,75.204C273.006,75.26 282.426,81.643 284.815,82.83C290.555,85.693 295.611,85.288 302.971,80.609C304.773,79.469 306.657,78.463 308.607,77.599C312.273,75.958 313.495,75.574 321.931,73.144C324.166,72.502 325.966,71.938 327.486,71.376L327.486,72.861ZM211.737,117.364C211.555,117.214 211.379,117.059 211.207,116.899C212.402,115.893 213.965,115.191 216.994,114.101L217.706,113.842C223.712,111.657 225.939,109.883 225.939,105.756C225.939,94.164 228.404,85.365 234.487,81.713C237.978,79.618 241.016,76.356 241.931,73.696C242.922,70.812 241.351,69.094 236.763,69.094C233.656,69.094 231.044,68.298 227.622,66.622C222.371,64.059 222.888,64.289 221.533,64.227C219.731,64.157 218.286,65.288 216.826,68.207C214.959,71.939 211.577,76.68 207.524,81.508L207.524,80.415C211.302,75.855 214.437,71.415 216.198,67.893C217.769,64.75 219.445,63.437 221.561,63.528C222.441,63.57 223.383,63.842 224.577,64.366C225.417,64.73 226.241,65.126 227.05,65.553L227.929,65.993C231.267,67.627 233.781,68.396 236.763,68.396C241.791,68.396 243.753,70.539 242.594,73.919C241.617,76.754 238.46,80.141 234.843,82.313C229.047,85.791 226.638,94.394 226.638,105.756C226.638,108.263 225.681,110.141 223.858,111.594C222.476,112.697 220.925,113.409 217.943,114.499L217.231,114.757C214.358,115.793 212.852,116.463 211.737,117.364ZM327.486,64.233C326.93,64.674 326.302,65.116 325.604,65.56C322.133,67.767 317.098,69.96 310.276,72.418C306.896,73.633 296.567,77.083 295.541,77.446C290.939,79.073 285.171,77.516 277.985,73.354C275.241,71.768 272.399,69.862 268.949,67.39C267.392,66.266 262.315,62.509 261.477,61.908C259.555,60.455 257.542,59.125 255.45,57.928C252.084,56.112 252.343,53.291 255.569,49.457C257.853,46.748 258.481,46.196 268.209,38.053C270.324,36.305 272.394,34.503 274.417,32.648C275.553,31.602 276.652,30.517 277.713,29.394C281.26,25.602 284.556,24.862 288.167,26.657C289.731,27.425 291.33,28.647 293.355,30.512C294.389,31.468 298.202,35.204 298.928,35.889C302.559,39.317 305.534,41.615 308.844,43.291L308.851,43.284C312.093,44.925 320.912,49.038 322.391,49.869C324.266,50.861 325.936,52.197 327.315,53.808L327.486,54.014L327.486,55.131C327.258,54.837 327.024,54.547 326.784,54.261C325.458,52.713 323.852,51.429 322.049,50.477C320.597,49.667 311.798,45.553 308.53,43.912C305.143,42.201 302.119,39.869 298.446,36.398C297.713,35.7 293.907,31.971 292.88,31.028C290.904,29.206 289.347,28.026 287.852,27.278C284.535,25.63 281.568,26.301 278.216,29.869C277.146,31.004 276.037,32.101 274.892,33.158C273.16,34.764 271.288,36.384 268.663,38.584C258.984,46.685 258.348,47.243 256.107,49.904C253.118,53.451 252.908,55.77 255.785,57.313C257.343,58.151 259.207,59.401 261.889,61.342C262.727,61.95 267.804,65.7 269.361,66.824C272.252,68.948 275.247,70.927 278.334,72.753C285.359,76.817 290.953,78.326 295.304,76.789C296.337,76.426 306.665,72.97 310.038,71.761C316.812,69.317 321.812,67.146 325.227,64.974C326.103,64.418 326.856,63.872 327.486,63.336L327.486,64.233ZM207.524,71.989L207.524,70.757C209.349,67.92 216.966,55.696 220.555,50.658C227.084,41.489 233.279,34.911 239.375,31.433C244.466,28.521 248.565,24.255 252.503,18.354C253.851,16.329 259.85,6.028 261.393,4.101C262.468,2.753 263.488,1.859 264.549,1.385C265.622,0.908 266.661,0.461 267.676,0.042L269.543,0.042C268.03,0.636 266.469,1.297 264.829,2.027C263.893,2.446 262.95,3.27 261.938,4.541C260.429,6.412 254.452,16.685 253.083,18.738C249.089,24.722 244.913,29.073 239.724,32.034C233.739,35.456 227.601,41.971 221.128,51.056C217.161,56.622 208.23,71.056 207.706,71.747L207.524,71.989ZM281.414,49.534C283.586,49.275 285.394,49.443 287.28,50.023C288.781,50.484 289.193,50.672 293.313,52.655C296.63,54.254 299.172,55.351 302.524,56.538C308.376,58.612 310.429,60.889 308.69,63.354C307.238,65.407 303.076,67.488 296.232,69.764C290.331,71.733 285.422,71.405 281.267,69.136C278.02,67.355 275.45,64.597 272.783,60.546C270.758,57.467 270.876,54.82 272.894,52.823C274.626,51.112 277.692,49.981 281.414,49.541L281.414,49.534ZM207.524,58.479L207.524,57.011C208.539,55.123 209.573,53.16 210.625,51.126C214.27,44.073 219.193,38.277 225.381,33.172C228.963,30.211 232.057,28.109 237.636,24.632C242.818,21.405 244.354,20.344 245.583,18.933C246.42,17.898 247.113,16.754 247.643,15.533C248.069,14.625 249.647,11.014 249.738,10.805C250.688,8.71 251.526,7.034 252.496,5.407C253.67,3.434 254.982,1.645 256.466,0.042L257.429,0.042C255.792,1.727 254.364,3.636 253.097,5.763C252.085,7.484 251.176,9.263 250.373,11.091C250.29,11.287 248.705,14.911 248.272,15.833C247.715,17.113 246.987,18.311 246.107,19.394C244.808,20.882 243.265,21.95 238.006,25.225C232.455,28.689 229.382,30.777 225.827,33.71C219.71,38.759 214.843,44.485 211.24,51.447C209.975,53.896 208.735,56.241 207.524,58.479ZM281.498,50.232C277.915,50.651 274.982,51.741 273.383,53.319C271.616,55.065 271.512,57.348 273.369,60.162C275.974,64.129 278.467,66.803 281.609,68.521C285.59,70.693 290.29,71.014 296.009,69.108C302.706,66.873 306.791,64.834 308.118,62.949C309.472,61.028 307.769,59.143 302.287,57.194C298.907,55.993 296.351,54.89 293.013,53.284C288.935,51.322 288.53,51.14 287.077,50.693C285.272,50.131 283.364,49.973 281.491,50.232L281.498,50.232ZM207.524,39.39L207.524,37.2C213.836,29.707 221.185,23.179 227.42,20.616C237.301,16.545 240.953,12.418 240.953,7.991C240.953,6.268 242.342,3.213 244.529,0.042L246.242,0.042C243.885,3.287 242.35,6.492 242.35,7.991C242.35,13.067 238.3,17.641 227.95,21.901C221.598,24.518 213.935,31.52 207.524,39.39ZM207.524,26.293L207.524,25.325C209.053,23.872 210.753,22.517 212.804,20.979C214.997,19.331 217.252,18.116 220.786,16.51L222.413,15.784C230.744,12.048 234.193,9.548 237.147,3.647C237.787,2.365 238.214,1.29 238.556,0.042L239.278,0.042C238.917,1.407 238.463,2.56 237.769,3.947C236.218,7.13 233.899,9.878 231.023,11.943C228.844,13.521 226.868,14.548 222.692,16.412L221.079,17.139C217.58,18.724 215.367,19.925 213.223,21.531C210.977,23.216 209.16,24.676 207.524,26.293ZM327.379,10.027C326.945,9.664 326.51,9.305 326.072,8.947C325.095,8.14 324.145,7.302 323.222,6.433C321.316,4.618 320.527,3.34 320.932,2.278C321.043,1.991 321.251,1.734 321.553,1.505C321.774,1.628 321.991,1.759 322.203,1.897C321.886,2.086 321.678,2.297 321.588,2.53C321.323,3.207 322.007,4.311 323.704,5.931C324.41,6.608 325.255,7.348 326.525,8.41L327.182,8.961C327.264,9.31 327.33,9.666 327.379,10.027ZM209.157,5.681C209.417,5.247 209.704,4.832 210.016,4.437C210.331,4.274 210.648,4.116 210.967,3.961L213.788,2.586C215.468,1.759 216.828,0.977 218.004,0.092C218.361,0.059 218.722,0.042 219.088,0.042L219.174,0.042C217.79,1.215 216.174,2.184 214.089,3.214L211.274,4.583C210.558,4.93 209.852,5.297 209.157,5.681ZM221.885,119.663L219.989,119.663C220.458,119.466 220.939,119.274 221.442,119.08C222.098,118.828 224.138,118.081 224.431,117.969C227.888,116.657 229.626,115.49 231.512,112.851C232.455,111.524 233.383,109.848 234.347,107.704C236.421,103.109 236.714,100.309 236.246,95.902C236.093,94.844 236.03,93.774 236.058,92.704C236.212,89.254 238.3,86.252 244.228,81.74C250.744,76.775 252.371,72.425 250.248,68.472C248.711,65.616 245.883,63.5 240.786,60.672C239.689,60.058 238.272,59.743 236.302,59.576C235.744,59.527 235.367,59.506 234.242,59.443C230.213,59.234 228.914,58.849 228.851,57.111C228.781,55.148 231.295,51.615 237.21,45.456C241.77,40.707 245.415,37.292 248.614,34.667C249.864,33.64 251.002,32.767 252.245,31.852L255.122,29.799C255.674,29.394 256.142,29.045 256.589,28.689C258.865,26.873 260.89,24.743 263.718,21.049C264.305,20.28 264.886,19.507 265.464,18.731L267.077,16.573C268.334,14.904 269.2,13.78 270.073,12.746C275.988,5.644 281.931,2.998 296.1,2.062C295.792,2.076 304.479,1.433 306.1,1.378C308.627,1.308 310.324,1.489 312.007,2.062C312.566,2.25 313.139,2.495 313.732,2.788C315.317,3.584 315.946,5.491 316.714,10.365L317.021,12.292C317.14,13.04 317.252,13.668 317.37,14.269C318.376,19.639 319.898,22.851 322.817,24.443C324.646,25.438 326.169,26.202 327.486,26.756L327.486,27.513C326.079,26.939 324.455,26.128 322.489,25.058C319.326,23.333 317.727,19.96 316.679,14.401C316.56,13.794 316.456,13.158 316.33,12.404L316.03,10.477C315.296,5.882 314.703,4.052 313.425,3.417C312.859,3.137 312.315,2.9 311.777,2.718C310.192,2.181 308.565,2.006 306.121,2.076C304.521,2.125 295.855,2.774 296.505,2.725C282.154,3.682 276.393,6.252 270.604,13.193C269.582,14.434 268.592,15.7 267.636,16.992L266.03,19.15L264.277,21.468C261.414,25.211 259.347,27.39 257.022,29.234C256.568,29.597 256.093,29.96 255.534,30.365L252.664,32.418C251.435,33.31 250.233,34.239 249.061,35.204C245.883,37.816 242.259,41.21 237.713,45.944C231.952,51.936 229.487,55.4 229.543,57.083C229.591,58.235 230.688,58.556 234.284,58.745C235.408,58.808 235.786,58.829 236.365,58.884C238.425,59.052 239.92,59.394 241.121,60.058C246.344,62.956 249.242,65.127 250.862,68.144C253.167,72.439 251.421,77.139 244.654,82.292C238.872,86.692 236.903,89.534 236.756,92.739C236.714,93.556 236.756,94.087 236.938,95.833C237.42,100.351 237.112,103.27 234.982,107.997C234.187,109.84 233.214,111.601 232.077,113.256C230.108,116.028 228.258,117.264 224.675,118.626C224.401,118.728 222.675,119.363 221.885,119.663Z" style="fill:rgb(176,176,176);"/>
        </g>
        <g transform="matrix(0.890723,0,0,0.890723,-20.5454,6.36713)">
            <path id="Pill" d="M147,53.515C147,49.936 144.094,47.03 140.515,47.03L40.296,47.03C36.716,47.03 33.811,49.936 33.811,53.515L33.811,66.485C33.811,70.064 36.716,72.97 40.296,72.97L140.515,72.97C144.094,72.97 147,70.064 147,66.485L147,53.515Z" style="fill:white;"/>
            <path id="WettkampfDB" d="M147,53.515C147,49.936 144.094,47.03 140.515,47.03L40.296,47.03C36.716,47.03 33.811,49.936 33.811,53.515L33.811,66.485C33.811,70.064 36.716,72.97 40.296,72.97L140.515,72.97C144.094,72.97 147,70.064 147,66.485L147,53.515ZM121.738,70.953L123.6,49.047L41.306,49.047C38.284,49.047 35.83,51.501 35.83,54.524L35.83,65.476C35.83,68.499 38.284,70.953 41.306,70.953L121.738,70.953ZM80.45,67.687L84.963,67.687L85.61,64.383L88.611,64.383L89.259,67.687L91.461,67.687L88.028,52.314L86.193,52.314L82.768,67.651L79.219,58.467L82.22,52.314L80.018,52.314L76.801,59.331L76.758,59.331L76.758,52.314L74.555,52.314L74.555,67.687L76.758,67.687L76.758,63.088L77.945,60.864L80.45,67.687ZM104.546,52.314L104.546,67.687L106.748,67.687L106.748,61.684L107.871,61.684C108.691,61.684 109.353,61.544 109.857,61.263C110.361,60.982 110.764,60.59 111.066,60.086C111.325,59.669 111.494,59.219 111.574,58.737C111.653,58.255 111.692,57.675 111.692,56.999C111.692,56.078 111.62,55.347 111.476,54.807C111.332,54.267 111.073,53.796 110.699,53.393C110.325,52.99 109.907,52.709 109.447,52.551C108.986,52.393 108.454,52.314 107.849,52.314L104.546,52.314L104.546,52.314ZM113.333,52.314L113.333,67.687L115.535,67.687L115.535,61.123L119.336,61.123L119.336,59.05L115.535,59.05L115.535,54.386L119.897,54.386L119.897,52.314L113.333,52.314L113.333,52.314ZM54.432,54.386L54.432,58.899L58.233,58.899L58.233,60.972L54.432,60.972L54.432,65.484L58.794,65.484L58.794,67.687L52.23,67.687L52.23,52.314L73.584,52.314L73.584,54.386L71.036,54.386L71.036,67.687L68.834,67.687L68.834,54.386L63.868,54.386L63.868,67.687L61.665,67.687L61.665,54.386L54.432,54.386L54.432,54.386ZM126.691,52.314L126.691,67.687L129.757,67.687C131.067,67.687 132.071,67.345 132.769,66.661C133.467,65.977 133.816,64.916 133.816,63.476L133.816,56.286C133.816,55.034 133.485,54.059 132.823,53.361C132.161,52.663 131.204,52.314 129.952,52.314L126.691,52.314L126.691,52.314ZM135.889,67.687L138.89,67.687C140.33,67.687 141.377,67.327 142.032,66.607C142.687,65.887 143.014,64.851 143.014,63.498L143.014,62.634C143.014,61.828 142.892,61.184 142.647,60.702C142.402,60.219 142.021,59.856 141.503,59.611C141.747,59.468 141.964,59.313 142.151,59.147C142.338,58.982 142.496,58.791 142.625,58.575C142.755,58.359 142.852,58.107 142.917,57.819C142.982,57.532 143.014,57.179 143.014,56.761L143.014,56.2C143.014,55.696 142.946,55.21 142.809,54.743C142.672,54.275 142.446,53.861 142.129,53.501C141.812,53.141 141.406,52.853 140.909,52.638C140.412,52.421 139.811,52.314 139.106,52.314L135.889,52.314L135.889,67.687ZM128.894,65.614L129.908,65.614C130.527,65.614 130.966,65.459 131.225,65.15C131.485,64.84 131.614,64.354 131.614,63.692L131.614,56.286C131.614,55.682 131.492,55.214 131.247,54.883C131.002,54.552 130.556,54.386 129.908,54.386L128.894,54.386L128.894,65.614ZM138.091,65.484L139.041,65.484C139.488,65.484 139.837,65.42 140.089,65.29C140.341,65.16 140.531,64.98 140.661,64.75C140.79,64.52 140.869,64.246 140.898,63.93C140.927,63.613 140.941,63.267 140.941,62.893C140.941,62.505 140.92,62.166 140.877,61.878C140.833,61.591 140.743,61.35 140.607,61.155C140.47,60.961 140.279,60.813 140.034,60.713C139.79,60.612 139.466,60.561 139.063,60.561L138.091,60.561L138.091,65.484ZM87.122,56.74L88.201,62.31L85.999,62.31L87.078,56.74L87.122,56.74ZM48.56,67.687L50.848,52.314L48.516,52.314L47.458,62.31L47.415,62.31L45.623,52.314L43.939,52.314L42.212,62.073L42.168,62.073L41.067,52.314L38.736,52.314L41.024,67.687L43.097,67.687L44.759,57.711L44.803,57.711L46.487,67.687L48.56,67.687ZM92.541,52.314L92.541,67.687L94.743,67.687L94.743,58.337L94.786,58.337L96.946,64.944L98.047,64.944L100.227,58.337L100.271,58.337L100.271,67.687L102.473,67.687L102.473,52.314L100.335,52.314L97.528,60.453L97.485,60.453L94.657,52.314L92.541,52.314L92.541,52.314ZM106.748,59.611L106.748,54.386L107.892,54.386C108.324,54.386 108.655,54.455 108.885,54.591C109.116,54.728 109.285,54.915 109.393,55.153C109.501,55.39 109.566,55.671 109.587,55.995C109.609,56.319 109.62,56.66 109.62,57.021C109.62,57.409 109.609,57.762 109.587,58.078C109.566,58.395 109.497,58.665 109.382,58.888C109.267,59.111 109.087,59.288 108.842,59.417C108.598,59.547 108.252,59.611 107.806,59.611L106.748,59.611L106.748,59.611ZM138.091,58.618L139.085,58.618C139.819,58.618 140.312,58.435 140.564,58.068C140.815,57.701 140.941,57.164 140.941,56.459C140.941,55.768 140.801,55.25 140.52,54.904C140.24,54.559 139.732,54.386 138.998,54.386L138.091,54.386L138.091,58.618Z" style="fill:rgb(17,17,17);"/>
        </g>
    </g>
</svg>
