<?xml version="1.0" standalone="no"?><!DOCTYPE svg PUBLIC "-//W3C//DTD SVG 1.1//EN" "http://www.w3.org/Graphics/SVG/1.1/DTD/svg11.dtd"><svg width="100%" height="100%" viewBox="0 0 838 120" version="1.1" xmlns="http://www.w3.org/2000/svg" xmlns:xlink="http://www.w3.org/1999/xlink" xml:space="preserve" style="fill-rule:evenodd;clip-rule:evenodd;stroke-linejoin:round;stroke-miterlimit:1.41421;"><path id="Background" d="M837.993,5.642c0,-3.114 -2.528,-5.642 -5.642,-5.642l-826.709,0c-3.114,0 -5.642,2.528 -5.642,5.642l0,108.716c0,3.114 2.528,5.642 5.642,5.642l826.709,0c3.114,0 5.642,-2.528 5.642,-5.642l0,-108.716l0,0Z" style="fill:#dcdcdc;"/><path id="Topography" d="M16.461,120l-0.75,0l0.029,-0.074c2.06,-5.146 1.411,-9.008 -1.508,-15.565c-2.228,-5.007 -2.71,-6.383 -2.71,-8.743c0,-2.339 1.306,-4.819 3.855,-7.731c1.823,-2.094 2.444,-2.674 8.31,-8.03c3.555,-3.254 5.643,-5.307 7.472,-7.507c6.606,-7.933 8.813,-13.597 12.5,-31.271c2.179,-10.51 4.63,-14.162 10.559,-17.633c0.558,-0.328 2.758,-1.571 3.282,-1.871c1.284,-0.735 2.538,-1.522 3.757,-2.36l0,0.007c3.003,-2.081 5.503,-3.492 8.477,-4.854c0.587,-0.279 1.209,-0.545 1.942,-0.866l3.051,-1.313c4.252,-1.833 8.389,-3.923 12.389,-6.257c3.555,-2.077 7.166,-4.055 10.829,-5.932l1.552,0c-4.076,2.056 -8.089,4.237 -12.032,6.54c-4.024,2.347 -8.187,4.448 -12.465,6.292l-3.052,1.313c-0.726,0.314 -1.341,0.586 -1.927,0.859c-2.933,1.334 -5.736,2.938 -8.373,4.79c-1.233,0.851 -2.5,1.65 -3.799,2.395l-3.282,1.865c-5.747,3.366 -8.08,6.85 -10.231,17.179c-3.701,17.772 -5.942,23.533 -12.639,31.571c-1.858,2.227 -3.967,4.301 -7.542,7.57c-5.838,5.335 -6.453,5.921 -8.254,7.974c-2.444,2.801 -3.68,5.14 -3.68,7.277c0,2.221 0.474,3.561 2.653,8.464c2.945,6.62 3.642,10.633 1.587,15.911l0,0ZM31.948,120l-0.698,0c-0.104,-4.507 -0.98,-7.482 -3.499,-10.884c-1.395,-1.84 -3.051,-3.468 -4.916,-4.832c-2.744,-2.06 -4.239,-4.267 -4.581,-6.627c-0.677,-4.616 2.703,-9.12 9.895,-15.147c1.104,-0.921 4.658,-3.798 4.951,-4.036c1.298,-1.019 2.519,-2.132 3.653,-3.331c2.863,-3.233 4.085,-6.669 5.447,-14.015c0.19,-1.017 0.377,-2.034 0.558,-3.052c0.231,-1.306 0.419,-2.304 0.615,-3.303c0.517,-2.64 1.047,-5.014 1.676,-7.423c0.698,-2.64 0.963,-3.841 1.648,-7.242c0.419,-2.109 0.649,-2.94 1.089,-3.82c0.852,-1.71 0.887,-1.745 8.555,-7.974c5.377,-4.365 8.589,-5.706 16.536,-7.87c4.274,-1.167 6.369,-2.06 8.596,-3.995c2.654,-2.304 5.217,-3.156 11.076,-4.26c1.92,-0.363 2.562,-0.488 3.533,-0.712c3.827,-0.866 6.62,-2.046 9.148,-4.113c3.785,-3.098 8.431,-5.639 13.091,-7.364l2.137,0c-5.202,1.675 -10.548,4.438 -14.788,7.909c-2.626,2.144 -5.517,3.359 -9.427,4.252c-0.985,0.224 -1.641,0.35 -3.569,0.713c-5.733,1.082 -8.212,1.906 -10.74,4.106c-2.332,2.025 -4.504,2.947 -8.869,4.134c-7.863,2.144 -10.998,3.45 -16.277,7.744c-7.521,6.104 -7.598,6.174 -8.38,7.738c-0.405,0.81 -0.615,1.606 -1.027,3.645c-0.684,3.415 -0.95,4.63 -1.655,7.29c-0.628,2.396 -1.152,4.749 -1.669,7.375c-0.317,1.614 -0.617,3.232 -0.901,4.853l-0.272,1.501c-1.383,7.459 -2.633,10.992 -5.615,14.344c-1.157,1.227 -2.403,2.366 -3.729,3.408c-0.293,0.237 -3.84,3.121 -4.937,4.036c-7.011,5.866 -10.279,10.231 -9.658,14.511c0.315,2.165 1.704,4.211 4.309,6.166c2.095,1.572 3.764,3.227 5.056,4.972c2.631,3.546 3.532,6.648 3.638,11.303l0,0ZM68.845,120l-1.197,0c1.191,-0.865 2.561,-1.829 4.153,-2.93l6.006,-4.113c2.535,-1.732 4.504,-3.1 6.418,-4.469c10.286,-7.36 17.067,-13.394 20.928,-19.344c3.422,-5.265 10.692,-18.631 11.187,-19.413c2.284,-3.673 4.372,-5.873 7.109,-7.241c4.742,-2.375 11.627,-6.725 17.479,-11.397c8.045,-6.411 13.694,-12.94 15.866,-19.134c2.144,-6.131 -1.41,-14.155 -8.743,-21.99c-3.965,-4.236 -8.64,-7.902 -12.39,-9.969l1.39,0c3.633,2.179 7.864,5.6 11.51,9.494c7.493,8.003 11.145,16.25 8.89,22.695c-2.221,6.355 -7.954,12.968 -16.083,19.456c-5.894,4.699 -12.821,9.078 -17.611,11.473c-2.598,1.299 -4.602,3.408 -6.823,6.976c-0.482,0.768 -7.751,14.141 -11.194,19.435c-3.925,6.04 -10.754,12.122 -21.11,19.525c-2.127,1.516 -4.268,3.01 -6.425,4.483c-0.091,0.063 -4.756,3.247 -6.006,4.113c-1.249,0.861 -2.36,1.639 -3.354,2.35l0,0ZM82.96,120l-1.158,0c12.263,-9.265 26.182,-21.343 30.341,-27.364c9.833,-14.26 19.952,-24.155 37.13,-33.631c9.162,-5.049 14.728,-10.384 17.577,-16.082c2.039,-4.093 2.493,-7.228 2.493,-12.94c0,-7.773 -0.517,-13.08 -2.584,-19.155c-1.407,-4.119 -3.402,-7.754 -6.071,-10.828l0.918,0c2.533,3.046 4.445,6.605 5.81,10.604c2.109,6.166 2.625,11.53 2.625,19.379c0,5.81 -0.461,9.043 -2.569,13.247c-2.919,5.838 -8.59,11.271 -17.864,16.389c-17.074,9.421 -27.115,19.239 -36.892,33.408c-4.12,5.972 -17.623,17.746 -29.756,26.973l0,0ZM99.049,120l-1.283,0c1.158,-0.744 2.155,-1.387 2.646,-1.708c3.463,-2.248 6.285,-4.176 9.022,-6.194c3.75,-2.758 7.116,-5.642 13.087,-11.047l1.187,-1.076c12.402,-11.236 18.142,-15.663 25.607,-18.645c2.793,-1.117 6.145,-2.158 10.999,-3.463c0.146,-0.042 10.384,-2.724 13.421,-3.583c13.897,-3.917 22.57,-7.898 27.829,-13.813c4.022,-4.525 6.934,-9.79 11.997,-20.698l1.459,-3.142c6.194,-13.317 10.084,-19.875 15.901,-25.07c3.217,-2.919 6.833,-5.364 10.74,-7.263l2.821,-1.375c1.946,-0.958 3.464,-1.856 4.762,-2.923l1.055,0c-1.479,1.348 -3.211,2.413 -5.516,3.551l-2.815,1.369c-3.851,1.87 -7.415,4.281 -10.586,7.158c-5.726,5.118 -9.581,11.613 -15.74,24.86l-1.453,3.135c-5.098,10.964 -8.03,16.271 -12.116,20.859c-5.377,6.048 -14.141,10.07 -28.149,14.023c-3.052,0.858 -13.296,3.547 -13.436,3.582c-4.832,1.306 -8.156,2.332 -10.914,3.436c-7.368,2.947 -13.066,7.346 -25.405,18.519l-1.188,1.076c-5.991,5.419 -9.364,8.31 -13.135,11.089c-2.758,2.025 -5.587,3.959 -9.057,6.222c-0.358,0.233 -0.982,0.634 -1.74,1.121l0,0ZM119.968,120l-1.284,0c2.972,-1.91 5.903,-3.789 6.804,-4.417c1.39,-0.978 3.024,-2.305 5.426,-4.4c-0.014,0 5.049,-4.462 6.613,-5.796c3.471,-2.974 6.348,-5.237 9.114,-7.088c3.296,-2.199 6.264,-3.687 8.987,-4.413c8.925,-2.381 10.894,-2.919 15.202,-4.169c8.764,-2.542 15.336,-4.818 19.651,-6.983c1.679,-0.801 3.424,-1.453 5.217,-1.948c6.047,-1.858 8.393,-2.864 11.85,-5.657c4.735,-3.813 9.127,-9.951 13.499,-19.462c11.152,-24.281 13.324,-27.507 22.451,-34.351c2.193,-1.648 4.448,-2.863 7.982,-4.469l1.627,-0.726c8.331,-3.736 11.78,-6.236 14.734,-12.137c0.703,-1.41 1.15,-2.569 1.509,-3.984l0.719,0c-0.378,1.536 -0.849,2.771 -1.606,4.284c-1.551,3.183 -3.87,5.931 -6.746,7.996c-2.179,1.578 -4.155,2.605 -8.331,4.469l-1.613,0.727c-3.499,1.585 -5.712,2.786 -7.856,4.392c-9.009,6.76 -11.124,9.895 -22.242,34.078c-4.406,9.609 -8.868,15.838 -13.687,19.728c-3.547,2.863 -5.957,3.889 -12.081,5.775c-1.759,0.484 -3.471,1.122 -5.119,1.906c-4.357,2.179 -10.963,4.47 -19.762,7.025c-5.056,1.456 -10.131,2.846 -15.223,4.169c-2.633,0.706 -5.538,2.165 -8.771,4.323c-3.152,2.162 -6.172,4.51 -9.044,7.032c-1.564,1.341 -6.62,5.796 -6.62,5.796c-1.747,1.576 -3.575,3.061 -5.475,4.449c-0.816,0.571 -3.275,2.15 -5.925,3.851l0,0ZM134.811,120l-2.275,0c1.484,-1.091 2.879,-2.297 4.174,-3.607c1.069,-1.048 4.861,-4.979 4.972,-5.098c5.014,-5.098 8.869,-8.072 13.785,-10.042c2.347,-0.935 5.678,-1.948 12.186,-3.757c2.742,-0.765 5.484,-1.528 8.226,-2.29c2.959,-0.829 5.908,-1.69 8.848,-2.584c14.246,-4.357 23.743,-8.436 28.485,-12.877c6.103,-5.726 8.226,-9.665 10.984,-18.17c1.411,-4.344 2.158,-6.313 3.541,-8.883c6.662,-12.367 20.048,-27.493 30.377,-31.739c9.881,-4.071 13.533,-8.198 13.533,-12.625c0,-1.791 1.501,-5.023 3.84,-8.328l1.727,0c-2.514,3.372 -4.17,6.771 -4.17,8.328c0,5.076 -4.05,9.65 -14.4,13.91c-9.965,4.106 -23.156,19.002 -29.678,31.11c-1.327,2.48 -2.06,4.386 -3.443,8.66c-2.828,8.708 -5.049,12.842 -11.362,18.757c-4.944,4.636 -14.574,8.777 -29.029,13.191c-2.947,0.896 -5.903,1.759 -8.869,2.591c-2.743,0.774 -5.49,1.538 -8.24,2.29c-6.452,1.802 -9.755,2.8 -12.039,3.715c-4.7,1.879 -8.415,4.749 -13.303,9.721c-0.105,0.105 -3.911,4.05 -4.993,5.112c-0.912,0.922 -1.873,1.795 -2.877,2.615ZM142.758,120l-1.007,0c2.658,-2.594 5.149,-4.689 8.193,-6.861c6.941,-4.958 14.944,-8.631 24.567,-10.88c25.858,-6.034 35.614,-8.869 41.082,-12.521c6.005,-4.001 14.874,-17.297 25.726,-38.275c3.645,-7.053 8.568,-12.849 14.756,-17.954c3.582,-2.961 6.676,-5.063 12.255,-8.54c5.182,-3.227 6.718,-4.288 7.947,-5.699c0.837,-1.035 1.53,-2.179 2.06,-3.4c0.426,-0.908 2.004,-4.519 2.095,-4.728c0.95,-2.095 1.788,-3.771 2.758,-5.398c1.267,-2.129 2.695,-4.045 4.326,-5.744l0.981,0c-1.794,1.777 -3.344,3.812 -4.706,6.1c-1.012,1.721 -1.921,3.5 -2.724,5.328c-0.083,0.196 -1.668,3.82 -2.101,4.742c-0.557,1.28 -1.285,2.478 -2.165,3.561c-1.299,1.488 -2.842,2.556 -8.101,5.831c-5.551,3.464 -8.624,5.552 -12.179,8.485c-6.117,5.049 -10.984,10.775 -14.587,17.737c-10.901,21.09 -19.805,34.441 -25.95,38.541c-5.573,3.715 -15.342,6.557 -41.32,12.618c-9.532,2.221 -17.444,5.859 -24.315,10.768c-2.809,2.008 -5.147,3.948 -7.591,6.289l0,0ZM151.325,120l-1.116,0c6.883,-5.553 12.977,-9.368 15.985,-9.368c6.927,0 37.597,-8.366 45.935,-12.535c6.606,-3.303 16.983,-14.791 25.712,-26.432c0.496,-0.663 9.428,-15.083 13.408,-20.67c6.529,-9.169 12.724,-15.747 18.82,-19.225c5.091,-2.912 9.19,-7.178 13.128,-13.079c1.348,-2.025 7.347,-12.326 8.89,-14.253c1.075,-1.348 2.095,-2.242 3.156,-2.716c1.402,-0.623 2.748,-1.196 4.056,-1.722l1.919,0c-1.818,0.689 -3.699,1.476 -5.695,2.364c-0.936,0.419 -1.879,1.243 -2.891,2.514c-1.509,1.871 -7.486,12.144 -8.855,14.197c-3.994,5.984 -8.17,10.335 -13.359,13.296c-5.985,3.422 -12.123,9.937 -18.596,19.022c-3.967,5.566 -12.898,20 -13.422,20.691c-8.799,11.732 -19.218,23.269 -25.964,26.641c-8.421,4.211 -39.203,12.605 -46.242,12.605c-2.752,0 -8.395,3.505 -14.869,8.67l0,0ZM160.079,120l-1.495,0c1.43,-0.807 3.196,-1.584 5.403,-2.364c2.591,-0.915 6.075,-1.885 11.243,-3.177c1.802,-0.454 11.543,-2.822 14.357,-3.527c13.68,-3.443 22.032,-6.215 26.697,-9.323c10.426,-6.948 25.747,-23.659 30.608,-33.379c1.571,-3.143 3.247,-4.456 5.363,-4.365c0.88,0.042 1.822,0.314 3.016,0.838c0.84,0.364 1.664,0.76 2.473,1.187l0.879,0.44c3.338,1.634 5.852,2.403 8.834,2.403c5.028,0 6.99,2.143 5.831,5.523c-0.977,2.835 -4.134,6.222 -7.751,8.394c-5.796,3.478 -8.205,12.081 -8.205,23.443c0,2.507 -0.957,4.385 -2.78,5.838c-1.382,1.103 -2.933,1.815 -5.915,2.905l-0.712,0.258c-3.387,1.222 -4.874,1.934 -6.061,3.115c-0.67,0.671 -1.399,1.267 -2.176,1.791l-1.328,0c1.102,-0.628 2.116,-1.385 3.015,-2.28c1.278,-1.285 2.821,-2.025 6.313,-3.282l0.712,-0.259c6.006,-2.185 8.233,-3.959 8.233,-8.086c0,-11.592 2.465,-20.391 8.548,-24.043c3.491,-2.095 6.529,-5.357 7.444,-8.017c0.991,-2.884 -0.58,-4.602 -5.168,-4.602c-3.107,0 -5.719,-0.796 -9.141,-2.472c-5.251,-2.563 -4.734,-2.333 -6.089,-2.395c-1.802,-0.07 -3.247,1.061 -4.707,3.98c-4.916,9.825 -20.321,26.634 -30.845,33.652c-4.755,3.17 -13.156,5.95 -26.92,9.413c-2.814,0.713 -12.556,3.073 -14.358,3.527c-5.146,1.285 -8.61,2.256 -11.173,3.156c-1.61,0.568 -2.978,1.133 -4.145,1.708l0,0ZM268.828,120l-1.115,0c3.937,-3.141 7.633,-6.588 10.659,-9.948c7.242,-8.051 24.406,-16.18 36.571,-16.18c3.541,0 6.823,-0.929 10.656,-2.842c1.348,-0.67 2.724,-1.432 4.595,-2.528c-0.209,0.126 3.722,-2.207 4.875,-2.87c7.556,-4.337 13.729,-6.753 21.725,-7.821c12.032,-1.606 15.991,-3.317 19.951,-7.43c2.967,-3.08 3.519,-3.604 5.74,-5.084c3.268,-2.172 6.99,-4.986 12.255,-9.176c1.134,-0.903 2.265,-1.808 3.394,-2.717l0.894,-0.712c1.449,-1.16 2.899,-2.32 4.351,-3.478c2.562,-2.025 4.574,-3.575 6.333,-4.853c3.052,-2.228 6.397,-7.374 9.281,-13.547l0,1.613c-2.794,5.692 -5.95,10.37 -8.869,12.5c-1.752,1.271 -3.757,2.807 -6.312,4.832c-1.455,1.154 -2.905,2.313 -4.351,3.478l-0.887,0.712c-1.132,0.909 -2.266,1.817 -3.401,2.723c-5.272,4.19 -9.008,7.019 -12.297,9.211c-2.165,1.439 -2.696,1.942 -5.629,4.979c-4.078,4.239 -8.184,6.02 -20.356,7.647c-7.891,1.047 -13.994,3.429 -21.473,7.73c-1.152,0.657 -5.077,2.982 -4.867,2.864c-1.886,1.103 -3.276,1.878 -4.637,2.555c-3.932,1.956 -7.312,2.912 -10.971,2.912c-11.962,0 -28.938,8.038 -36.054,15.943c-2.876,3.198 -6.349,6.47 -10.061,9.487l0,0ZM279.53,120l-0.99,0c13.114,-13.2 20.729,-17.05 32.213,-17.05c5.782,0 10.154,-1.361 15.363,-4.399c1.243,-0.719 9.651,-6.159 12.682,-7.87c1.976,-1.111 3.952,-2.116 6.026,-3.066c5.531,-2.514 9.756,-3.107 18.576,-3.352c5.258,-0.139 7.472,-0.342 9.958,-1.103c3.177,-0.978 5.628,-2.793 7.632,-5.887c1.537,-2.381 4.784,-4.944 10.238,-8.422c1.124,-0.719 2.283,-1.431 3.945,-2.444c6.655,-4.085 8.073,-4.979 10.342,-6.683c3.729,-2.793 6.495,-5.845 9.553,-10.314c1.36,-2.003 2.669,-4.041 3.925,-6.11l0,1.326c-1.376,2.214 -2.374,3.757 -3.352,5.182c-3.087,4.525 -5.908,7.626 -9.707,10.475c-2.297,1.718 -3.715,2.619 -10.398,6.711c-1.317,0.803 -2.628,1.618 -3.931,2.444c-5.377,3.422 -8.562,5.95 -10.028,8.212c-2.095,3.233 -4.679,5.161 -8.017,6.18c-2.57,0.782 -4.818,0.992 -10.146,1.138c-8.729,0.238 -12.877,0.825 -18.296,3.283c-2.036,0.926 -4.03,1.939 -5.978,3.037c-3.003,1.697 -11.411,7.137 -12.675,7.87c-5.307,3.094 -9.797,4.491 -15.712,4.491c-11.122,0 -18.543,3.681 -31.223,16.351l0,0ZM293.517,120l-2.128,0c4.671,-4.223 9.437,-6.924 13.079,-6.924c8.632,0 13.967,-1.369 20.538,-6.145c4.721,-3.436 6.634,-4.609 8.708,-5.21c1.55,-0.447 2.654,-0.517 6.369,-0.517c1.299,0 2.465,-0.579 3.889,-1.829c0.755,-0.671 3.569,-3.576 3.911,-3.911c4.218,-4.085 8.366,-6.131 14.546,-6.131c1.711,0 3.17,0.028 5.112,0.084c5.244,0.16 6.194,0.119 7.87,-0.489c2.116,-0.768 3.861,-2.116 10.3,-7.8c5.587,-4.93 7.486,-6.229 15.971,-11.502c1.005,-0.628 1.808,-1.138 2.576,-1.655c2.35,-1.55 4.561,-3.303 6.607,-5.237c2.876,-2.709 5.6,-5.481 8.128,-8.31l0,2.081c-2.303,2.502 -4.695,4.92 -7.172,7.248c-2.22,2.095 -4.329,3.737 -6.787,5.378c-0.783,0.53 -1.593,1.047 -2.619,1.676c-8.415,5.237 -10.272,6.508 -15.782,11.368c-6.606,5.831 -8.387,7.207 -10.747,8.066c-1.914,0.698 -2.926,0.74 -8.387,0.572c-1.928,-0.055 -3.373,-0.083 -5.07,-0.083c-5.775,0 -9.602,1.885 -13.568,5.74c-0.308,0.3 -3.157,3.24 -3.967,3.952c-1.655,1.46 -3.114,2.179 -4.811,2.179c-3.562,0 -4.609,0.07 -5.978,0.461c-1.864,0.545 -3.694,1.655 -8.275,4.993c-6.844,4.979 -12.465,6.418 -21.362,6.418c-2.978,0 -6.93,2.121 -10.951,5.527l0,0ZM320.549,120l-2.258,0c2.44,-0.757 4.312,-1.44 5.884,-2.127c1.266,-0.554 2.497,-1.183 3.687,-1.885c0.768,-0.454 1.222,-0.726 2.961,-1.816c1.885,-1.173 3.645,-1.452 7.947,-1.592c3.799,-0.126 5.517,-0.3 7.66,-0.985c2.571,-0.821 4.873,-2.322 6.662,-4.343c3.401,-3.701 7.005,-5.314 12.424,-6.215c0.747,-0.126 1.312,-0.21 2.695,-0.405c4.818,-0.678 6.941,-1.18 9.413,-2.528c3.143,-1.711 4.742,-3.101 16.383,-13.743l2.193,-1.99c6.739,-6.083 11.257,-9.658 14.958,-11.509c2.967,-1.48 5.307,-3.274 7.835,-6.005l0,-8.352l0,-2.081l0,23.1c-4.42,2.605 -8.792,5.147 -9.881,5.817c-7.361,4.553 -12.877,8.708 -17.102,13.213c-3.974,4.245 -8.841,7.157 -15.894,10.055c-1.019,0.419 -2.081,0.831 -3.387,1.334l-3.317,1.271c-6.746,2.584 -10.202,4.316 -13.031,6.914c-1.652,1.512 -3.55,2.778 -5.749,3.872l-1.642,0c2.722,-1.207 4.995,-2.627 6.917,-4.389c2.919,-2.675 6.424,-4.434 13.254,-7.053l3.317,-1.271c1.306,-0.489 2.36,-0.908 3.373,-1.327c6.969,-2.856 11.759,-5.726 15.656,-9.881c4.267,-4.56 9.832,-8.75 17.235,-13.331c1.131,-0.698 5.712,-3.359 10.251,-6.034l0,-10.845c-2.388,2.493 -4.672,4.19 -7.528,5.622c-3.617,1.809 -8.107,5.356 -14.804,11.396l-2.179,1.991c-11.732,10.719 -13.303,12.081 -16.522,13.84c-2.57,1.397 -4.749,1.921 -9.651,2.605c-1.376,0.196 -1.942,0.28 -2.682,0.398c-5.279,0.88 -8.743,2.43 -12.018,6.006c-1.87,2.111 -4.276,3.679 -6.962,4.539c-2.235,0.698 -3.995,0.887 -7.856,1.012c-4.176,0.14 -5.859,0.398 -7.605,1.488c-0.979,0.625 -1.968,1.232 -2.968,1.822c-1.215,0.715 -2.472,1.357 -3.764,1.921c-1.123,0.49 -2.393,0.978 -3.905,1.491l0,0ZM373.855,120l-1.396,0c1.894,-1.11 4.185,-2.451 6.995,-4.096l1.816,-1.061c7.144,-4.19 11.941,-7.123 15.873,-9.742c2.1,-1.392 4.15,-2.859 6.145,-4.399c1.489,-1.174 2.972,-2.357 4.448,-3.548c3.481,-2.788 7.255,-5.188 11.257,-7.158l0,0.783c-3.843,1.91 -7.469,4.228 -10.817,6.913c0.126,-0.098 -3.324,2.681 -4.455,3.561c-2.006,1.553 -4.067,3.032 -6.18,4.435c-3.946,2.625 -8.75,5.558 -15.908,9.755l-1.816,1.069c-2.318,1.355 -4.282,2.504 -5.962,3.488l0,0ZM391.276,120l-1.304,0c7.749,-4.9 8.249,-5.277 10.648,-7.196c7.856,-6.285 13.75,-9.791 18.373,-10.545l0,0.712c-4.448,0.768 -10.209,4.19 -17.94,10.377c-2.33,1.864 -2.875,2.285 -9.777,6.652l0,0ZM399.465,120l-1.288,0c0.17,-0.103 0.303,-0.184 0.383,-0.234c0.88,-0.559 1.816,-1.229 3.003,-2.158c0.559,-0.433 2.723,-2.165 3.233,-2.563c5.426,-4.26 9.42,-6.313 14.197,-6.494l0,0.698c-4.581,0.182 -8.457,2.186 -13.764,6.341l-3.233,2.57c-0.817,0.649 -1.661,1.263 -2.531,1.84l0,0ZM435.461,120l-0.75,0l0.029,-0.074c2.06,-5.146 1.411,-9.008 -1.508,-15.565c-2.228,-5.007 -2.71,-6.383 -2.71,-8.743c0,-2.339 1.306,-4.819 3.855,-7.731c1.823,-2.094 2.444,-2.674 8.31,-8.03c3.555,-3.254 5.643,-5.307 7.472,-7.507c6.606,-7.933 8.813,-13.597 12.5,-31.271c2.179,-10.51 4.63,-14.162 10.559,-17.633c0.558,-0.328 2.758,-1.571 3.282,-1.871c1.284,-0.735 2.538,-1.522 3.757,-2.36l0,0.007c3.003,-2.081 5.503,-3.492 8.477,-4.854c0.587,-0.279 1.209,-0.545 1.942,-0.866l3.051,-1.313c4.252,-1.833 8.389,-3.923 12.389,-6.257c3.555,-2.077 7.166,-4.055 10.829,-5.932l1.552,0c-4.076,2.056 -8.089,4.237 -12.032,6.54c-4.024,2.347 -8.187,4.448 -12.465,6.292l-3.052,1.313c-0.726,0.314 -1.341,0.586 -1.927,0.859c-2.933,1.334 -5.736,2.938 -8.373,4.79c-1.233,0.851 -2.5,1.65 -3.799,2.395l-3.282,1.865c-5.747,3.366 -8.08,6.85 -10.231,17.179c-3.701,17.772 -5.942,23.533 -12.639,31.571c-1.858,2.227 -3.967,4.301 -7.542,7.57c-5.838,5.335 -6.453,5.921 -8.254,7.974c-2.444,2.801 -3.68,5.14 -3.68,7.277c0,2.221 0.474,3.561 2.653,8.464c2.945,6.62 3.642,10.633 1.587,15.911l0,0ZM450.948,120l-0.698,0c-0.104,-4.507 -0.98,-7.482 -3.499,-10.884c-1.395,-1.84 -3.051,-3.468 -4.916,-4.832c-2.744,-2.06 -4.239,-4.267 -4.581,-6.627c-0.677,-4.616 2.703,-9.12 9.895,-15.147c1.104,-0.921 4.658,-3.798 4.951,-4.036c1.298,-1.019 2.519,-2.132 3.653,-3.331c2.863,-3.233 4.085,-6.669 5.447,-14.015c0.19,-1.017 0.377,-2.034 0.558,-3.052c0.231,-1.306 0.419,-2.304 0.615,-3.303c0.517,-2.64 1.047,-5.014 1.676,-7.423c0.698,-2.64 0.963,-3.841 1.648,-7.242c0.419,-2.109 0.649,-2.94 1.089,-3.82c0.852,-1.71 0.887,-1.745 8.555,-7.974c5.377,-4.365 8.589,-5.706 16.536,-7.87c4.274,-1.167 6.369,-2.06 8.596,-3.995c2.654,-2.304 5.217,-3.156 11.076,-4.26c1.92,-0.363 2.562,-0.488 3.533,-0.712c3.827,-0.866 6.62,-2.046 9.148,-4.113c3.785,-3.098 8.431,-5.639 13.091,-7.364l2.137,0c-5.202,1.675 -10.548,4.438 -14.788,7.909c-2.626,2.144 -5.517,3.359 -9.427,4.252c-0.985,0.224 -1.641,0.35 -3.569,0.713c-5.733,1.082 -8.212,1.906 -10.74,4.106c-2.332,2.025 -4.504,2.947 -8.869,4.134c-7.863,2.144 -10.998,3.45 -16.277,7.744c-7.521,6.104 -7.598,6.174 -8.38,7.738c-0.405,0.81 -0.615,1.606 -1.027,3.645c-0.684,3.415 -0.95,4.63 -1.655,7.29c-0.628,2.396 -1.152,4.749 -1.669,7.375c-0.317,1.614 -0.617,3.232 -0.901,4.853l-0.272,1.501c-1.383,7.459 -2.633,10.992 -5.615,14.344c-1.157,1.227 -2.403,2.366 -3.729,3.408c-0.293,0.237 -3.84,3.121 -4.937,4.036c-7.011,5.866 -10.279,10.231 -9.658,14.511c0.315,2.165 1.704,4.211 4.309,6.166c2.095,1.572 3.764,3.227 5.056,4.972c2.631,3.546 3.532,6.648 3.638,11.303l0,0ZM487.845,120l-1.197,0c1.191,-0.865 2.561,-1.829 4.153,-2.93l6.006,-4.113c2.535,-1.732 4.504,-3.1 6.418,-4.469c10.286,-7.36 17.067,-13.394 20.928,-19.344c3.422,-5.265 10.692,-18.631 11.187,-19.413c2.284,-3.673 4.372,-5.873 7.109,-7.241c4.742,-2.375 11.627,-6.725 17.479,-11.397c8.045,-6.411 13.694,-12.94 15.866,-19.134c2.144,-6.131 -1.41,-14.155 -8.743,-21.99c-3.965,-4.236 -8.64,-7.902 -12.39,-9.969l1.39,0c3.633,2.179 7.864,5.6 11.51,9.494c7.493,8.003 11.145,16.25 8.89,22.695c-2.221,6.355 -7.954,12.968 -16.083,19.456c-5.894,4.699 -12.821,9.078 -17.611,11.473c-2.598,1.299 -4.602,3.408 -6.823,6.976c-0.482,0.768 -7.751,14.141 -11.194,19.435c-3.925,6.04 -10.754,12.122 -21.11,19.525c-2.127,1.516 -4.268,3.01 -6.425,4.483c-0.091,0.063 -4.756,3.247 -6.006,4.113c-1.249,0.861 -2.36,1.639 -3.354,2.35l0,0ZM501.96,120l-1.158,0c12.263,-9.265 26.182,-21.343 30.341,-27.364c9.833,-14.26 19.952,-24.155 37.13,-33.631c9.162,-5.049 14.728,-10.384 17.577,-16.082c2.039,-4.093 2.493,-7.228 2.493,-12.94c0,-7.773 -0.517,-13.08 -2.584,-19.155c-1.407,-4.119 -3.402,-7.754 -6.071,-10.828l0.918,0c2.533,3.046 4.445,6.605 5.81,10.604c2.109,6.166 2.625,11.53 2.625,19.379c0,5.81 -0.461,9.043 -2.569,13.247c-2.919,5.838 -8.59,11.271 -17.864,16.389c-17.074,9.421 -27.115,19.239 -36.892,33.408c-4.12,5.972 -17.623,17.746 -29.756,26.973l0,0ZM518.049,120l-1.283,0c1.158,-0.744 2.155,-1.387 2.646,-1.708c3.463,-2.248 6.285,-4.176 9.022,-6.194c3.75,-2.758 7.116,-5.642 13.087,-11.047l1.187,-1.076c12.402,-11.236 18.142,-15.663 25.607,-18.645c2.793,-1.117 6.145,-2.158 10.999,-3.463c0.146,-0.042 10.384,-2.724 13.421,-3.583c13.897,-3.917 22.57,-7.898 27.829,-13.813c4.022,-4.525 6.934,-9.79 11.997,-20.698l1.459,-3.142c6.194,-13.317 10.084,-19.875 15.901,-25.07c3.217,-2.919 6.833,-5.364 10.74,-7.263l2.821,-1.375c1.946,-0.958 3.464,-1.856 4.762,-2.923l1.055,0c-1.479,1.348 -3.211,2.413 -5.516,3.551l-2.815,1.369c-3.851,1.87 -7.415,4.281 -10.586,7.158c-5.726,5.118 -9.581,11.613 -15.74,24.86l-1.453,3.135c-5.098,10.964 -8.03,16.271 -12.116,20.859c-5.377,6.048 -14.141,10.07 -28.149,14.023c-3.052,0.858 -13.296,3.547 -13.436,3.582c-4.832,1.306 -8.156,2.332 -10.914,3.436c-7.368,2.947 -13.066,7.346 -25.405,18.519l-1.188,1.076c-5.991,5.419 -9.364,8.31 -13.135,11.089c-2.758,2.025 -5.587,3.959 -9.057,6.222c-0.358,0.233 -0.982,0.634 -1.74,1.121l0,0ZM538.968,120l-1.284,0c2.972,-1.91 5.903,-3.789 6.804,-4.417c1.39,-0.978 3.024,-2.305 5.426,-4.4c-0.014,0 5.049,-4.462 6.613,-5.796c3.471,-2.974 6.348,-5.237 9.114,-7.088c3.296,-2.199 6.264,-3.687 8.987,-4.413c8.925,-2.381 10.894,-2.919 15.202,-4.169c8.764,-2.542 15.336,-4.818 19.651,-6.983c1.679,-0.801 3.424,-1.453 5.217,-1.948c6.047,-1.858 8.393,-2.864 11.85,-5.657c4.735,-3.813 9.127,-9.951 13.499,-19.462c11.152,-24.281 13.324,-27.507 22.451,-34.351c2.193,-1.648 4.448,-2.863 7.982,-4.469l1.627,-0.726c8.331,-3.736 11.78,-6.236 14.734,-12.137c0.703,-1.41 1.15,-2.569 1.509,-3.984l0.719,0c-0.378,1.536 -0.849,2.771 -1.606,4.284c-1.551,3.183 -3.87,5.931 -6.746,7.996c-2.179,1.578 -4.155,2.605 -8.331,4.469l-1.613,0.727c-3.499,1.585 -5.712,2.786 -7.856,4.392c-9.009,6.76 -11.124,9.895 -22.242,34.078c-4.406,9.609 -8.868,15.838 -13.687,19.728c-3.547,2.863 -5.957,3.889 -12.081,5.775c-1.759,0.484 -3.471,1.122 -5.119,1.906c-4.357,2.179 -10.963,4.47 -19.762,7.025c-5.056,1.456 -10.131,2.846 -15.223,4.169c-2.633,0.706 -5.538,2.165 -8.771,4.323c-3.152,2.162 -6.172,4.51 -9.044,7.032c-1.564,1.341 -6.62,5.796 -6.62,5.796c-1.747,1.576 -3.575,3.061 -5.475,4.449c-0.816,0.571 -3.275,2.15 -5.925,3.851l0,0ZM553.811,120l-2.275,0c1.484,-1.091 2.879,-2.297 4.174,-3.607c1.069,-1.048 4.861,-4.979 4.972,-5.098c5.014,-5.098 8.869,-8.072 13.785,-10.042c2.347,-0.935 5.678,-1.948 12.186,-3.757c2.742,-0.765 5.484,-1.528 8.226,-2.29c2.959,-0.829 5.908,-1.69 8.848,-2.584c14.246,-4.357 23.743,-8.436 28.485,-12.877c6.103,-5.726 8.226,-9.665 10.984,-18.17c1.411,-4.344 2.158,-6.313 3.541,-8.883c6.662,-12.367 20.048,-27.493 30.377,-31.739c9.881,-4.071 13.533,-8.198 13.533,-12.625c0,-1.791 1.501,-5.023 3.84,-8.328l1.727,0c-2.514,3.372 -4.17,6.771 -4.17,8.328c0,5.076 -4.05,9.65 -14.4,13.91c-9.965,4.106 -23.156,19.002 -29.678,31.11c-1.327,2.48 -2.06,4.386 -3.443,8.66c-2.828,8.708 -5.049,12.842 -11.362,18.757c-4.944,4.636 -14.574,8.777 -29.029,13.191c-2.947,0.896 -5.903,1.759 -8.869,2.591c-2.743,0.774 -5.49,1.538 -8.24,2.29c-6.452,1.802 -9.755,2.8 -12.039,3.715c-4.7,1.879 -8.415,4.749 -13.303,9.721c-0.105,0.105 -3.911,4.05 -4.993,5.112c-0.912,0.922 -1.873,1.795 -2.877,2.615l0,0ZM561.758,120l-1.007,0c2.658,-2.594 5.149,-4.689 8.193,-6.861c6.941,-4.958 14.944,-8.631 24.567,-10.88c25.858,-6.034 35.614,-8.869 41.082,-12.521c6.005,-4.001 14.874,-17.297 25.726,-38.275c3.645,-7.053 8.568,-12.849 14.756,-17.954c3.582,-2.961 6.676,-5.063 12.255,-8.54c5.182,-3.227 6.718,-4.288 7.947,-5.699c0.837,-1.035 1.53,-2.179 2.06,-3.4c0.426,-0.908 2.004,-4.519 2.095,-4.728c0.95,-2.095 1.788,-3.771 2.758,-5.398c1.267,-2.129 2.695,-4.045 4.326,-5.744l0.981,0c-1.794,1.777 -3.344,3.812 -4.706,6.1c-1.012,1.721 -1.921,3.5 -2.724,5.328c-0.083,0.196 -1.668,3.82 -2.101,4.742c-0.557,1.28 -1.285,2.478 -2.165,3.561c-1.299,1.488 -2.842,2.556 -8.101,5.831c-5.551,3.464 -8.624,5.552 -12.179,8.485c-6.117,5.049 -10.984,10.775 -14.587,17.737c-10.901,21.09 -19.805,34.441 -25.95,38.541c-5.573,3.715 -15.342,6.557 -41.32,12.618c-9.532,2.221 -17.444,5.859 -24.315,10.768c-2.809,2.008 -5.147,3.948 -7.591,6.289l0,0ZM570.325,120l-1.116,0c6.883,-5.553 12.977,-9.368 15.985,-9.368c6.927,0 37.597,-8.366 45.935,-12.535c6.606,-3.303 16.983,-14.791 25.712,-26.432c0.496,-0.663 9.428,-15.083 13.408,-20.67c6.529,-9.169 12.724,-15.747 18.82,-19.225c5.091,-2.912 9.19,-7.178 13.128,-13.079c1.348,-2.025 7.347,-12.326 8.89,-14.253c1.075,-1.348 2.095,-2.242 3.156,-2.716c1.402,-0.623 2.748,-1.196 4.056,-1.722l1.919,0c-1.818,0.689 -3.699,1.476 -5.695,2.364c-0.936,0.419 -1.879,1.243 -2.891,2.514c-1.509,1.871 -7.486,12.144 -8.855,14.197c-3.994,5.984 -8.17,10.335 -13.359,13.296c-5.985,3.422 -12.123,9.937 -18.596,19.022c-3.967,5.566 -12.898,20 -13.422,20.691c-8.799,11.732 -19.218,23.269 -25.964,26.641c-8.421,4.211 -39.203,12.605 -46.242,12.605c-2.752,0 -8.395,3.505 -14.869,8.67l0,0ZM579.079,120l-1.495,0c1.43,-0.807 3.196,-1.584 5.403,-2.364c2.591,-0.915 6.075,-1.885 11.243,-3.177c1.802,-0.454 11.543,-2.822 14.357,-3.527c13.68,-3.443 22.032,-6.215 26.697,-9.323c10.426,-6.948 25.747,-23.659 30.608,-33.379c1.571,-3.143 3.247,-4.456 5.363,-4.365c0.88,0.042 1.822,0.314 3.016,0.838c0.84,0.364 1.664,0.76 2.473,1.187l0.879,0.44c3.338,1.634 5.852,2.403 8.834,2.403c5.028,0 6.99,2.143 5.831,5.523c-0.977,2.835 -4.134,6.222 -7.751,8.394c-5.796,3.478 -8.205,12.081 -8.205,23.443c0,2.507 -0.957,4.385 -2.78,5.838c-1.382,1.103 -2.933,1.815 -5.915,2.905l-0.712,0.258c-3.387,1.222 -4.874,1.934 -6.061,3.115c-0.67,0.671 -1.399,1.267 -2.176,1.791l-1.328,0c1.102,-0.628 2.116,-1.385 3.015,-2.28c1.278,-1.285 2.821,-2.025 6.313,-3.282l0.712,-0.259c6.006,-2.185 8.233,-3.959 8.233,-8.086c0,-11.592 2.465,-20.391 8.548,-24.043c3.491,-2.095 6.529,-5.357 7.444,-8.017c0.991,-2.884 -0.58,-4.602 -5.168,-4.602c-3.107,0 -5.719,-0.796 -9.141,-2.472c-5.251,-2.563 -4.734,-2.333 -6.089,-2.395c-1.802,-0.07 -3.247,1.061 -4.707,3.98c-4.916,9.825 -20.321,26.634 -30.845,33.652c-4.755,3.17 -13.156,5.95 -26.92,9.413c-2.814,0.713 -12.556,3.073 -14.358,3.527c-5.146,1.285 -8.61,2.256 -11.173,3.156c-1.61,0.568 -2.978,1.133 -4.145,1.708l0,0ZM687.828,120l-1.115,0c3.937,-3.141 7.633,-6.588 10.659,-9.948c7.242,-8.051 24.406,-16.18 36.571,-16.18c3.541,0 6.823,-0.929 10.656,-2.842c1.348,-0.67 2.724,-1.432 4.595,-2.528c-0.209,0.126 3.722,-2.207 4.875,-2.87c7.556,-4.337 13.729,-6.753 21.725,-7.821c12.032,-1.606 15.991,-3.317 19.951,-7.43c2.967,-3.08 3.519,-3.604 5.74,-5.084c3.268,-2.172 6.99,-4.986 12.255,-9.176c1.134,-0.903 2.265,-1.808 3.394,-2.717l0.894,-0.712c1.449,-1.16 2.899,-2.32 4.351,-3.478c2.562,-2.025 4.574,-3.575 6.333,-4.853c3.052,-2.228 6.397,-7.374 9.281,-13.547l0,1.613c-2.794,5.692 -5.95,10.37 -8.869,12.5c-1.752,1.271 -3.757,2.807 -6.312,4.832c-1.455,1.154 -2.905,2.313 -4.351,3.478l-0.887,0.712c-1.132,0.909 -2.266,1.817 -3.401,2.723c-5.272,4.19 -9.008,7.019 -12.297,9.211c-2.165,1.439 -2.696,1.942 -5.629,4.979c-4.078,4.239 -8.184,6.02 -20.356,7.647c-7.891,1.047 -13.994,3.429 -21.473,7.73c-1.152,0.657 -5.077,2.982 -4.867,2.864c-1.886,1.103 -3.276,1.878 -4.637,2.555c-3.932,1.956 -7.312,2.912 -10.971,2.912c-11.962,0 -28.938,8.038 -36.054,15.943c-2.876,3.198 -6.349,6.47 -10.061,9.487l0,0ZM698.53,120l-0.99,0c13.114,-13.2 20.729,-17.05 32.213,-17.05c5.782,0 10.154,-1.361 15.363,-4.399c1.243,-0.719 9.651,-6.159 12.682,-7.87c1.976,-1.111 3.952,-2.116 6.026,-3.066c5.531,-2.514 9.756,-3.107 18.576,-3.352c5.258,-0.139 7.472,-0.342 9.958,-1.103c3.177,-0.978 5.628,-2.793 7.632,-5.887c1.537,-2.381 4.784,-4.944 10.238,-8.422c1.124,-0.719 2.283,-1.431 3.945,-2.444c6.655,-4.085 8.073,-4.979 10.342,-6.683c3.729,-2.793 6.495,-5.845 9.553,-10.314c1.36,-2.003 2.669,-4.041 3.925,-6.11l0,1.326c-1.376,2.214 -2.374,3.757 -3.352,5.182c-3.087,4.525 -5.908,7.626 -9.707,10.475c-2.297,1.718 -3.715,2.619 -10.398,6.711c-1.317,0.803 -2.628,1.618 -3.931,2.444c-5.377,3.422 -8.562,5.95 -10.028,8.212c-2.095,3.233 -4.679,5.161 -8.017,6.18c-2.57,0.782 -4.818,0.992 -10.146,1.138c-8.729,0.238 -12.877,0.825 -18.296,3.283c-2.036,0.926 -4.03,1.939 -5.978,3.037c-3.003,1.697 -11.411,7.137 -12.675,7.87c-5.307,3.094 -9.797,4.491 -15.712,4.491c-11.122,0 -18.543,3.681 -31.223,16.351l0,0ZM712.517,120l-2.128,0c4.671,-4.223 9.437,-6.924 13.079,-6.924c8.632,0 13.967,-1.369 20.538,-6.145c4.721,-3.436 6.634,-4.609 8.708,-5.21c1.55,-0.447 2.654,-0.517 6.369,-0.517c1.299,0 2.465,-0.579 3.889,-1.829c0.755,-0.671 3.569,-3.576 3.911,-3.911c4.218,-4.085 8.366,-6.131 14.546,-6.131c1.711,0 3.17,0.028 5.112,0.084c5.244,0.16 6.194,0.119 7.87,-0.489c2.116,-0.768 3.861,-2.116 10.3,-7.8c5.587,-4.93 7.486,-6.229 15.971,-11.502c1.005,-0.628 1.808,-1.138 2.576,-1.655c2.35,-1.55 4.561,-3.303 6.607,-5.237c2.876,-2.709 5.6,-5.481 8.128,-8.31l0,2.081c-2.303,2.502 -4.695,4.92 -7.172,7.248c-2.22,2.095 -4.329,3.737 -6.787,5.378c-0.783,0.53 -1.593,1.047 -2.619,1.676c-8.415,5.237 -10.272,6.508 -15.782,11.368c-6.606,5.831 -8.387,7.207 -10.747,8.066c-1.914,0.698 -2.926,0.74 -8.387,0.572c-1.928,-0.055 -3.373,-0.083 -5.07,-0.083c-5.775,0 -9.602,1.885 -13.568,5.74c-0.308,0.3 -3.157,3.24 -3.967,3.952c-1.655,1.46 -3.114,2.179 -4.811,2.179c-3.562,0 -4.609,0.07 -5.978,0.461c-1.864,0.545 -3.694,1.655 -8.275,4.993c-6.844,4.979 -12.465,6.418 -21.362,6.418c-2.978,0 -6.93,2.121 -10.951,5.527l0,0ZM739.549,120l-2.258,0c2.44,-0.757 4.312,-1.44 5.884,-2.127c1.266,-0.554 2.497,-1.183 3.687,-1.885c0.768,-0.454 1.222,-0.726 2.961,-1.816c1.885,-1.173 3.645,-1.452 7.947,-1.592c3.799,-0.126 5.517,-0.3 7.66,-0.985c2.571,-0.821 4.873,-2.322 6.662,-4.343c3.401,-3.701 7.005,-5.314 12.424,-6.215c0.747,-0.126 1.312,-0.21 2.695,-0.405c4.818,-0.678 6.941,-1.18 9.413,-2.528c3.143,-1.711 4.742,-3.101 16.383,-13.743l2.193,-1.99c6.739,-6.083 11.257,-9.658 14.958,-11.509c2.967,-1.48 5.307,-3.274 7.835,-6.005l0,12.667c-4.42,2.605 -8.792,5.147 -9.881,5.817c-7.361,4.553 -12.877,8.708 -17.102,13.213c-3.974,4.245 -8.841,7.157 -15.894,10.055c-1.019,0.419 -2.081,0.831 -3.387,1.334l-3.317,1.271c-6.746,2.584 -10.202,4.316 -13.031,6.914c-1.652,1.512 -3.55,2.778 -5.749,3.872l-1.642,0c2.722,-1.207 4.995,-2.627 6.917,-4.389c2.919,-2.675 6.424,-4.434 13.254,-7.053l3.317,-1.271c1.306,-0.489 2.36,-0.908 3.373,-1.327c6.969,-2.856 11.759,-5.726 15.656,-9.881c4.267,-4.56 9.832,-8.75 17.235,-13.331c1.131,-0.698 5.712,-3.359 10.251,-6.034l0,-10.845c-2.388,2.493 -4.672,4.19 -7.528,5.622c-3.617,1.809 -8.107,5.356 -14.804,11.396l-2.179,1.991c-11.732,10.719 -13.303,12.081 -16.522,13.84c-2.57,1.397 -4.749,1.921 -9.651,2.605c-1.376,0.196 -1.942,0.28 -2.682,0.398c-5.279,0.88 -8.743,2.43 -12.018,6.006c-1.87,2.111 -4.276,3.679 -6.962,4.539c-2.235,0.698 -3.995,0.887 -7.856,1.012c-4.176,0.14 -5.859,0.398 -7.605,1.488c-0.979,0.625 -1.968,1.232 -2.968,1.822c-1.215,0.715 -2.472,1.357 -3.764,1.921c-1.123,0.49 -2.393,0.978 -3.905,1.491l0,0ZM792.855,120l-1.396,0c1.894,-1.11 4.185,-2.451 6.995,-4.096l1.816,-1.061c7.144,-4.19 11.941,-7.123 15.873,-9.742c2.1,-1.392 4.15,-2.859 6.145,-4.399c1.489,-1.174 2.972,-2.357 4.448,-3.548c3.481,-2.788 7.255,-5.188 11.257,-7.158l0,0.783c-3.843,1.91 -7.469,4.228 -10.817,6.913c0.126,-0.098 -3.324,2.681 -4.455,3.561c-2.006,1.553 -4.067,3.032 -6.18,4.435c-3.946,2.625 -8.75,5.558 -15.908,9.755l-1.816,1.069c-2.318,1.355 -4.282,2.504 -5.962,3.488l0,0ZM810.276,120l-1.304,0c7.749,-4.9 8.249,-5.277 10.648,-7.196c7.856,-6.285 13.75,-9.791 18.373,-10.545l0,0.712c-4.448,0.768 -10.209,4.19 -17.94,10.377c-2.33,1.864 -2.875,2.285 -9.777,6.652ZM818.465,120l-1.288,0c0.17,-0.103 0.303,-0.184 0.383,-0.234c0.88,-0.559 1.816,-1.229 3.003,-2.158c0.559,-0.433 2.723,-2.165 3.233,-2.563c5.426,-4.26 9.42,-6.313 14.197,-6.494l0,0.698c-4.581,0.182 -8.457,2.186 -13.764,6.341l-3.233,2.57c-0.817,0.649 -1.661,1.263 -2.531,1.84l0,0ZM422.048,120l-0.764,0c0.346,-0.782 0.667,-1.575 0.963,-2.378c1.879,-5.307 1.194,-8.394 -2.549,-8.394c-0.237,0 -0.468,0 -0.698,0.014l0,-0.705l0.698,-0.007c4.414,0 5.217,3.631 3.213,9.329c-0.268,0.722 -0.556,1.436 -0.863,2.141l0,0ZM2.652,119.142c0.209,-0.502 0.407,-1.009 0.595,-1.52c1.879,-5.307 1.194,-8.394 -2.549,-8.394c-0.237,0 -0.468,0 -0.698,0.014l0,-0.352l0,-0.004l0,-0.349l0,-5.566l0,-0.712c1.942,-0.385 3.956,-0.13 5.74,0.726c5.118,2.559 5.695,4.765 1.824,17.015l-0.725,0c3.837,-12.075 3.317,-14.026 -1.406,-16.393c-1.571,-0.782 -3.351,-0.999 -5.433,-0.636l0,5.566l0.698,-0.007c4.414,0 5.217,3.631 3.213,9.329c-0.202,0.545 -0.415,1.084 -0.64,1.619c-0.214,-0.099 -0.421,-0.212 -0.619,-0.336l0,0ZM666.394,98.593c0.405,0.363 1.746,1.327 1.781,1.348c1.369,1.096 1.425,2.311 0.007,4.441c-2.612,3.938 -6.166,2.158 -6.166,-3.178c0,-2.66 0.356,-3.959 1.445,-4.203c0.824,-0.182 1.397,0.209 2.933,1.592l0,0ZM247.394,98.593c0.405,0.363 1.746,1.327 1.781,1.348c1.369,1.096 1.425,2.311 0.007,4.441c-2.612,3.938 -6.166,2.158 -6.166,-3.178c0,-2.66 0.356,-3.959 1.445,-4.203c0.824,-0.182 1.397,0.209 2.933,1.592ZM567.044,26.379c0,5.28 -0.419,7.626 -1.815,9.986c-0.769,1.285 -5.35,7.018 -6.006,7.891c-4.162,5.545 -6.515,7.179 -12.053,9.609c-0.936,0.405 -1.536,0.699 -2.116,1.048c-0.384,0.23 -0.838,0.461 -1.397,0.712c-0.495,0.23 -3.114,1.327 -3.854,1.669c-4.225,1.941 -6.278,4.05 -6.278,7.493c0,7.661 -13.233,25.223 -24.099,31.334c-5.713,3.212 -14.875,6.536 -22.891,8.282c-9.309,2.025 -15.706,1.732 -17.193,-1.62c-0.922,-2.074 -3.073,-2.975 -8.366,-4.058l-0.419,-0.083c-3.38,-0.692 -4.846,-1.083 -6.306,-1.844c-2.039,-1.047 -3.128,-2.584 -3.128,-4.776c0,-1.914 0.754,-4.03 2.269,-6.753c0.594,-1.069 1.271,-2.186 2.256,-3.736c-0.112,0.174 1.976,-3.073 2.563,-4.023c4.672,-7.472 6.878,-12.919 6.878,-19.008c0,-12.856 7.835,-23.303 19.204,-29.93c3.645,-2.13 6.446,-2.311 10.615,-1.48c3.519,0.698 4.224,0.628 5.188,-1.062c3.143,-5.482 4.916,-6.634 11.082,-6.634c2.745,0 4.868,-0.684 7.312,-2.207c1.089,-0.677 6.054,-4.308 7.674,-5.363c6.425,-4.176 7.919,-4.888 17.598,-8.345c4.853,-1.732 10.601,0.894 15.594,6.369c4.574,5.021 7.688,11.599 7.688,16.529l0,0ZM148.044,26.379c0,5.28 -0.419,7.626 -1.815,9.986c-0.769,1.285 -5.35,7.018 -6.006,7.891c-4.162,5.545 -6.515,7.179 -12.053,9.609c-0.936,0.405 -1.536,0.699 -2.116,1.048c-0.384,0.23 -0.838,0.461 -1.397,0.712c-0.495,0.23 -3.114,1.327 -3.854,1.669c-4.225,1.941 -6.278,4.05 -6.278,7.493c0,7.661 -13.233,25.223 -24.099,31.334c-5.713,3.212 -14.875,6.536 -22.891,8.282c-9.309,2.025 -15.706,1.732 -17.193,-1.62c-0.922,-2.074 -3.073,-2.975 -8.366,-4.058l-0.419,-0.083c-3.38,-0.692 -4.846,-1.083 -6.306,-1.844c-2.039,-1.047 -3.128,-2.584 -3.128,-4.776c0,-1.914 0.754,-4.03 2.269,-6.753c0.594,-1.069 1.271,-2.186 2.256,-3.736c-0.112,0.174 1.976,-3.073 2.563,-4.023c4.672,-7.472 6.878,-12.919 6.878,-19.008c0,-12.856 7.835,-23.303 19.204,-29.93c3.645,-2.13 6.446,-2.311 10.615,-1.48c3.519,0.698 4.224,0.628 5.188,-1.062c3.143,-5.482 4.916,-6.634 11.082,-6.634c2.745,0 4.868,-0.684 7.312,-2.207c1.089,-0.677 6.054,-4.308 7.674,-5.363c6.425,-4.176 7.919,-4.888 17.598,-8.345c4.853,-1.732 10.601,0.894 15.594,6.369c4.574,5.021 7.688,11.599 7.688,16.529l0,0ZM665.459,99.626c-1.048,-0.942 -1.558,-1.292 -1.697,-1.257c-0.119,0.021 -0.349,0.859 -0.349,2.835c0,4.1 1.864,5.035 3.61,2.41c1.047,-1.579 1.026,-1.984 0.279,-2.584c0.021,0.021 -1.361,-0.978 -1.843,-1.397l0,-0.007l0,0ZM246.459,99.626c-1.048,-0.942 -1.558,-1.292 -1.697,-1.257c-0.119,0.021 -0.349,0.859 -0.349,2.835c0,4.1 1.864,5.035 3.61,2.41c1.047,-1.579 1.026,-1.984 0.279,-2.584c0.021,0.021 -1.361,-0.978 -1.843,-1.397l0,-0.007l0,0ZM565.648,26.378c-0.001,-4.539 -2.969,-10.809 -7.326,-15.585c-4.658,-5.112 -9.888,-7.5 -14.085,-5.999c-9.588,3.422 -10.985,4.085 -17.318,8.205c-1.565,1.02 -6.544,4.665 -7.689,5.378c-2.654,1.648 -5.028,2.416 -8.052,2.416c-5.642,0 -6.969,0.859 -9.867,5.935c-0.768,1.334 -1.753,2.012 -3.038,2.158c-0.907,0.098 -1.326,0.035 -3.645,-0.426c-3.861,-0.768 -6.334,-0.614 -9.637,1.313c-10.977,6.404 -18.505,16.446 -18.505,28.729c0,6.425 -2.291,12.074 -7.088,19.749l-2.57,4.029c-0.971,1.529 -1.641,2.633 -2.214,3.666c-1.41,2.535 -2.095,4.455 -2.095,6.076c0,2.926 2.005,3.959 8.31,5.251l0.426,0.084c5.776,1.187 8.171,2.185 9.358,4.853c2.214,4.986 25.14,0 38.128,-7.304c10.461,-5.887 23.387,-23.038 23.387,-30.119c0,-4.12 2.423,-6.62 7.095,-8.764c0.768,-0.349 3.387,-1.452 3.855,-1.662c0.517,-0.237 0.922,-0.447 1.257,-0.649c0.642,-0.384 1.292,-0.699 2.269,-1.132c5.342,-2.339 7.507,-3.84 11.502,-9.162c0.712,-0.949 5.216,-6.578 5.914,-7.758c1.25,-2.101 1.627,-4.23 1.628,-9.282l0,0ZM146.648,26.378c-0.001,-4.539 -2.969,-10.809 -7.326,-15.585c-4.658,-5.112 -9.888,-7.5 -14.085,-5.999c-9.588,3.422 -10.985,4.085 -17.318,8.205c-1.565,1.02 -6.544,4.665 -7.689,5.378c-2.654,1.648 -5.028,2.416 -8.052,2.416c-5.642,0 -6.969,0.859 -9.867,5.935c-0.768,1.334 -1.753,2.012 -3.038,2.158c-0.907,0.098 -1.326,0.035 -3.645,-0.426c-3.861,-0.768 -6.334,-0.614 -9.637,1.313c-10.977,6.404 -18.505,16.446 -18.505,28.729c0,6.425 -2.291,12.074 -7.088,19.749l-2.57,4.029c-0.971,1.529 -1.641,2.633 -2.214,3.666c-1.41,2.535 -2.095,4.455 -2.095,6.076c0,2.926 2.005,3.959 8.31,5.251l0.426,0.084c5.776,1.187 8.171,2.185 9.358,4.853c2.214,4.986 25.14,0 38.128,-7.304c10.461,-5.887 23.387,-23.038 23.387,-30.119c0,-4.12 2.423,-6.62 7.095,-8.764c0.768,-0.349 3.387,-1.452 3.855,-1.662c0.517,-0.237 0.922,-0.447 1.257,-0.649c0.642,-0.384 1.292,-0.699 2.269,-1.132c5.342,-2.339 7.507,-3.84 11.502,-9.162c0.712,-0.949 5.216,-6.578 5.914,-7.758c1.25,-2.101 1.627,-4.23 1.628,-9.282l0,0ZM426.564,120l-0.725,0c3.837,-12.075 3.317,-14.026 -1.406,-16.393c-1.571,-0.782 -3.352,-0.999 -5.433,-0.636l0,-0.712c1.941,-0.385 3.956,-0.13 5.74,0.726c5.118,2.559 5.695,4.765 1.824,17.015ZM40.733,0c-5.213,12.375 -9.658,26.695 -9.658,33.467c0,11.411 -11.382,31.271 -21.103,37.996c-1.494,1.033 -5.754,3.575 -9.972,6.061l0,25.447l0,-0.712l0,-25.552c3.237,-1.866 6.429,-3.807 9.574,-5.824c9.539,-6.606 20.803,-26.257 20.803,-37.423c0,-6.822 4.388,-21.057 9.598,-33.46l0.758,0ZM529.544,16.561c-1.676,0.912 -3.22,2.049 -4.588,3.38c-0.913,0.956 -1.802,1.934 -2.667,2.933c-1.718,1.836 -3.268,2.563 -6.222,2.563c-3.995,0 -5.859,0.97 -8.08,3.61c-0.16,0.195 -1.417,1.746 -1.836,2.235c-0.743,0.878 -1.553,1.698 -2.424,2.451c-0.454,0.384 -0.907,0.719 -1.368,0.998c-1.746,1.055 -3.178,1.327 -6.613,1.53c-5.161,0.293 -7.857,0.726 -12.375,2.423c-3.729,1.396 -6.159,3.771 -7.8,7.402c-1.348,2.982 -2.095,6.334 -3.08,12.842l-0.453,3.031l-0.489,3.191c-0.398,2.486 -0.782,4.658 -1.229,6.795c-0.755,3.617 -3.171,12.94 -3.373,14.378c-0.412,2.912 0.244,4.316 2.8,5.796c0.943,0.538 2.165,1.104 3.855,1.781c3.813,1.522 7.109,2.13 10.454,1.955c4.671,-0.237 7.905,-1.347 19.308,-6.145c11.32,-4.769 19.497,-17.465 24.937,-34.706c1.041,-3.283 2.877,-5.489 5.566,-6.984c2.046,-1.138 4.008,-1.711 8.289,-2.625c1.341,-0.28 1.592,-0.343 2.179,-0.475c6.368,-1.439 9.944,-3.282 12.639,-7.451c6.928,-10.713 3.876,-20.636 -6.159,-26.041c-4.015,-2.165 -5.607,-2.625 -7.158,-2.13c-0.454,0.14 -0.928,0.377 -1.557,0.755c-0.384,0.223 -1.934,1.201 -2.046,1.27c-2.256,1.407 -4.63,2.615 -7.095,3.611c-1.257,0.524 -2.388,1.061 -3.415,1.627l0,0ZM110.544,16.561c-1.676,0.912 -3.22,2.049 -4.588,3.38c-0.913,0.956 -1.802,1.934 -2.667,2.933c-1.718,1.836 -3.268,2.563 -6.222,2.563c-3.995,0 -5.859,0.97 -8.08,3.61c-0.16,0.195 -1.417,1.746 -1.836,2.235c-0.743,0.878 -1.553,1.698 -2.424,2.451c-0.454,0.384 -0.907,0.719 -1.368,0.998c-1.746,1.055 -3.178,1.327 -6.613,1.53c-5.161,0.293 -7.857,0.726 -12.375,2.423c-3.729,1.396 -6.159,3.771 -7.8,7.402c-1.348,2.982 -2.095,6.334 -3.08,12.842l-0.453,3.031l-0.489,3.191c-0.398,2.486 -0.782,4.658 -1.229,6.795c-0.755,3.617 -3.171,12.94 -3.373,14.378c-0.412,2.912 0.244,4.316 2.8,5.796c0.943,0.538 2.165,1.104 3.855,1.781c3.813,1.522 7.109,2.13 10.454,1.955c4.671,-0.237 7.905,-1.347 19.308,-6.145c11.32,-4.769 19.497,-17.465 24.937,-34.706c1.041,-3.283 2.877,-5.489 5.566,-6.984c2.046,-1.138 4.008,-1.711 8.289,-2.625c1.341,-0.28 1.592,-0.343 2.179,-0.475c6.368,-1.439 9.944,-3.282 12.639,-7.451c6.928,-10.713 3.876,-20.636 -6.159,-26.041c-4.015,-2.165 -5.607,-2.625 -7.158,-2.13c-0.454,0.14 -0.928,0.377 -1.557,0.755c-0.384,0.223 -1.934,1.201 -2.046,1.27c-2.256,1.407 -4.63,2.615 -7.095,3.611c-1.257,0.524 -2.388,1.061 -3.415,1.627l0,0ZM499.942,39.41c11.278,-2.004 18.408,-0.677 22.675,4.302c3.547,4.141 0.789,14.958 -4.141,24.825c-3.345,6.69 -7.402,11.32 -16.173,17.591c-9.881,7.053 -24.791,8.519 -28.429,2.688c-1.299,-2.074 -1.466,-5.684 -0.74,-10.984c0.545,-3.967 1.299,-7.479 3.303,-16.048l0.084,-0.356c1.11,-4.749 1.655,-7.2 2.192,-9.874c1.013,-5.063 2.612,-8.01 5.07,-9.595c1.963,-1.257 3.862,-1.592 8.611,-1.83c3.722,-0.188 5.279,-0.321 7.548,-0.719l0,0ZM80.942,39.41c11.278,-2.004 18.408,-0.677 22.675,4.302c3.547,4.141 0.789,14.958 -4.141,24.825c-3.345,6.69 -7.402,11.32 -16.173,17.591c-9.881,7.053 -24.791,8.519 -28.429,2.688c-1.299,-2.074 -1.466,-5.684 -0.74,-10.984c0.545,-3.967 1.299,-7.479 3.303,-16.048l0.084,-0.356c1.11,-4.749 1.655,-7.2 2.192,-9.874c1.013,-5.063 2.612,-8.01 5.07,-9.595c1.963,-1.257 3.862,-1.592 8.611,-1.83c3.722,-0.188 5.279,-0.321 7.548,-0.719l0,0ZM500.068,40.094c-2.304,0.412 -3.883,0.545 -7.639,0.734c-4.623,0.23 -6.446,0.544 -8.269,1.717c-2.269,1.467 -3.785,4.253 -4.762,9.148c-0.538,2.682 -1.09,5.133 -2.2,9.896l-0.084,0.349c-1.997,8.547 -2.744,12.053 -3.282,15.991c-0.719,5.14 -0.551,8.632 0.629,10.524c3.366,5.377 17.835,3.96 27.437,-2.898c8.68,-6.201 12.66,-10.747 15.949,-17.325c4.791,-9.581 7.507,-20.252 4.239,-24.057c-4.078,-4.756 -10.963,-6.041 -22.018,-4.079ZM81.068,40.094c-2.304,0.412 -3.883,0.545 -7.639,0.734c-4.623,0.23 -6.446,0.544 -8.269,1.717c-2.269,1.467 -3.785,4.253 -4.762,9.148c-0.538,2.682 -1.09,5.133 -2.2,9.896l-0.084,0.349c-1.997,8.547 -2.744,12.053 -3.282,15.991c-0.719,5.14 -0.551,8.632 0.629,10.524c3.366,5.377 17.835,3.96 27.437,-2.898c8.68,-6.201 12.66,-10.747 15.949,-17.325c4.791,-9.581 7.507,-20.252 4.239,-24.057c-4.078,-4.756 -10.963,-6.041 -22.018,-4.079ZM468.706,0c-1.469,4.145 -2.851,9.124 -4.21,14.969c-0.608,2.604 -1.201,5.335 -1.844,8.477l-0.824,4.051l-0.761,3.805c-1.257,6.257 -1.934,9.274 -2.633,11.355c-4.748,14.274 -12.053,29.441 -18.945,35.754c-3.569,3.282 -5.657,4.937 -7.752,6.187c-0.628,0.377 -1.285,0.727 -2.039,1.097c-0.307,0.153 -6.704,3.072 -9.846,4.651l-0.852,0.433l0,-0.79l0.545,-0.272c3.156,-1.578 9.546,-4.497 9.846,-4.644c0.675,-0.332 1.337,-0.691 1.983,-1.075c2.053,-1.222 4.106,-2.856 7.64,-6.097c6.781,-6.215 14.036,-21.305 18.764,-35.467c0.677,-2.039 1.355,-5.042 2.605,-11.264l0.768,-3.813c0.811,-4.197 1.7,-8.378 2.667,-12.542c1.339,-5.761 2.699,-10.688 4.147,-14.815l0.741,0ZM49.706,0c-1.469,4.145 -2.851,9.124 -4.21,14.969c-0.608,2.604 -1.201,5.335 -1.844,8.477l-0.824,4.051l-0.761,3.805c-1.257,6.257 -1.934,9.274 -2.633,11.355c-4.748,14.274 -12.053,29.441 -18.945,35.754c-3.569,3.282 -5.657,4.937 -7.752,6.187c-0.628,0.377 -1.285,0.727 -2.039,1.097c-0.307,0.153 -6.704,3.072 -9.846,4.651l-0.852,0.433l0,-0.79l0.545,-0.272c3.156,-1.578 9.546,-4.497 9.846,-4.644c0.675,-0.332 1.337,-0.691 1.983,-1.075c2.053,-1.222 4.106,-2.856 7.64,-6.097c6.781,-6.215 14.036,-21.305 18.764,-35.467c0.677,-2.039 1.355,-5.042 2.605,-11.264l0.768,-3.813c0.811,-4.197 1.7,-8.378 2.667,-12.542c1.339,-5.761 2.699,-10.688 4.147,-14.815l0.741,0ZM765.954,32.797c2.402,1.892 4.888,3.561 7.989,5.412c0.74,0.447 5.88,3.422 7.228,4.26c7.87,4.888 10.474,9.322 8.624,17.688c-1.013,4.553 -3.164,7.751 -6.557,10.084c-2.675,1.836 -5.636,2.975 -11.229,4.581c-8.359,2.409 -9.553,2.786 -13.143,4.385c-1.887,0.838 -3.71,1.814 -5.454,2.919c-7.758,4.937 -13.338,5.377 -19.525,2.291c-2.486,-1.236 -12.011,-7.682 -12.011,-7.689c-1.189,-0.75 -2.4,-1.465 -3.631,-2.144c-11.201,-6.166 -23.932,-16.871 -24.106,-22.241c-0.077,-2.416 1.389,-4.588 4.385,-7.165c0.719,-0.628 1.523,-1.264 2.57,-2.06c0.503,-0.384 2.36,-1.788 2.751,-2.095c3.122,-2.374 5.014,-4.043 6.509,-5.901c7.765,-9.651 18.54,-20.028 23.994,-22.542c8.422,-3.868 13.855,-4.029 19.113,0.084c2.27,1.774 3.946,4.567 5.992,9.323c0.202,0.454 1.606,3.806 2.011,4.707c1.131,2.548 2.025,4.05 2.961,4.846c0.503,0.419 1.012,0.838 1.536,1.257l-0.007,0ZM346.954,32.797c2.402,1.892 4.888,3.561 7.989,5.412c0.74,0.447 5.88,3.422 7.228,4.26c7.87,4.888 10.474,9.322 8.624,17.688c-1.013,4.553 -3.164,7.751 -6.557,10.084c-2.675,1.836 -5.636,2.975 -11.229,4.581c-8.359,2.409 -9.553,2.786 -13.143,4.385c-1.887,0.838 -3.71,1.814 -5.454,2.919c-7.758,4.937 -13.338,5.377 -19.525,2.291c-2.486,-1.236 -12.011,-7.682 -12.011,-7.689c-1.189,-0.75 -2.4,-1.465 -3.631,-2.144c-11.201,-6.166 -23.932,-16.871 -24.106,-22.241c-0.077,-2.416 1.389,-4.588 4.385,-7.165c0.719,-0.628 1.523,-1.264 2.57,-2.06c0.503,-0.384 2.36,-1.788 2.751,-2.095c3.122,-2.374 5.014,-4.043 6.509,-5.901c7.765,-9.651 18.54,-20.028 23.994,-22.542c8.422,-3.868 13.855,-4.029 19.113,0.084c2.27,1.774 3.946,4.567 5.992,9.323c0.202,0.454 1.606,3.806 2.011,4.707c1.131,2.548 2.025,4.05 2.961,4.846c0.503,0.419 1.012,0.838 1.536,1.257l-0.007,0ZM763.517,32.601c-1.138,-0.97 -2.116,-2.611 -3.331,-5.342c-0.405,-0.908 -1.816,-4.274 -2.011,-4.72c-1.962,-4.54 -3.548,-7.193 -5.573,-8.771c-4.769,-3.736 -9.672,-3.597 -17.667,0.083c-5.203,2.389 -15.852,12.654 -23.492,22.151c-1.585,1.969 -3.547,3.701 -6.753,6.138l-2.751,2.081c-0.855,0.647 -1.691,1.317 -2.507,2.012c-2.702,2.325 -3.959,4.19 -3.897,6.068c0.147,4.637 12.668,15.168 23.38,21.054c1.229,0.678 2.444,1.397 3.701,2.186c0.084,0.056 9.504,6.439 11.893,7.626c5.74,2.863 10.796,2.458 18.156,-2.221c1.802,-1.14 3.686,-2.146 5.636,-3.01c3.666,-1.641 4.888,-2.025 13.324,-4.455c5.446,-1.564 8.31,-2.667 10.824,-4.399c3.1,-2.123 5.048,-5.014 5.977,-9.232c1.704,-7.696 -0.579,-11.592 -7.996,-16.201c-1.326,-0.824 -6.445,-3.785 -7.206,-4.246c-3.143,-1.878 -5.678,-3.575 -8.129,-5.517c-0.537,-0.419 -1.061,-0.845 -1.578,-1.285l0,0ZM344.517,32.601c-1.138,-0.97 -2.116,-2.611 -3.331,-5.342c-0.405,-0.908 -1.816,-4.274 -2.011,-4.72c-1.962,-4.54 -3.548,-7.193 -5.573,-8.771c-4.769,-3.736 -9.672,-3.597 -17.667,0.083c-5.203,2.389 -15.852,12.654 -23.492,22.151c-1.585,1.969 -3.547,3.701 -6.753,6.138l-2.751,2.081c-0.855,0.647 -1.691,1.317 -2.507,2.012c-2.702,2.325 -3.959,4.19 -3.897,6.068c0.147,4.637 12.668,15.168 23.38,21.054c1.229,0.678 2.444,1.397 3.701,2.186c0.084,0.056 9.504,6.439 11.893,7.626c5.74,2.863 10.796,2.458 18.156,-2.221c1.802,-1.14 3.686,-2.146 5.636,-3.01c3.666,-1.641 4.888,-2.025 13.324,-4.455c5.446,-1.564 8.31,-2.667 10.824,-4.399c3.1,-2.123 5.048,-5.014 5.977,-9.232c1.704,-7.696 -0.579,-11.592 -7.996,-16.201c-1.326,-0.824 -6.445,-3.785 -7.206,-4.246c-3.143,-1.878 -5.678,-3.575 -8.129,-5.517c-0.537,-0.419 -1.061,-0.845 -1.578,-1.285l0,0ZM511.178,44.291c-1.375,0 -2.465,-0.028 -5.174,-0.104l-2.71,-0.07c-5.481,-0.119 -9.022,0.09 -12.011,0.907c-3.715,0.999 -6.054,2.906 -7.004,6.006c-0.37,1.214 -0.742,2.426 -1.117,3.638c-0.475,1.537 -0.887,2.912 -1.271,4.26c-0.629,2.165 -1.173,4.183 -1.648,6.096c-2.395,9.693 -2.703,16.013 -0.28,17.738c4.309,3.086 13.08,2.409 17.752,-0.699c6.047,-4.036 16.99,-15.705 18.715,-21.459c1.606,-5.356 2.193,-8.177 1.906,-10.866c-0.37,-3.561 -2.542,-5.447 -7.158,-5.447l0,0ZM92.178,44.291c-1.375,0 -2.465,-0.028 -5.174,-0.104l-2.71,-0.07c-5.481,-0.119 -9.022,0.09 -12.011,0.907c-3.715,0.999 -6.054,2.906 -7.004,6.006c-0.37,1.214 -0.742,2.426 -1.117,3.638c-0.475,1.537 -0.887,2.912 -1.271,4.26c-0.629,2.165 -1.173,4.183 -1.648,6.096c-2.395,9.693 -2.703,16.013 -0.28,17.738c4.309,3.086 13.08,2.409 17.752,-0.699c6.047,-4.036 16.99,-15.705 18.715,-21.459c1.606,-5.356 2.193,-8.177 1.906,-10.866c-0.37,-3.561 -2.542,-5.447 -7.158,-5.447ZM459.733,0c-5.213,12.375 -9.658,26.695 -9.658,33.467c0,11.411 -11.382,31.271 -21.103,37.996c-1.308,0.904 -4.732,2.963 -8.394,5.13l-1.578,0.931l0,-0.817c3.237,-1.866 6.429,-3.807 9.574,-5.824c9.539,-6.606 20.803,-26.257 20.803,-37.423c0,-6.822 4.388,-21.057 9.598,-33.46l0.758,0ZM672.861,89.92c0.936,-2.724 2.416,-4.309 9.965,-11.495c1.082,-1.026 1.906,-1.829 2.688,-2.605c1.355,-1.361 1.516,-2.011 0.943,-2.325c-0.572,-0.314 -1.655,-0.405 -3.715,-0.37l-0.503,0.007c-2.192,0.042 -2.975,0.014 -3.589,-0.237c-0.74,-0.287 -1.376,-0.629 -2.27,-1.167l-0.963,-0.579c-0.715,-0.456 -1.494,-0.803 -2.312,-1.027c-2.709,-0.677 -4.832,1.516 -7.772,6.914c0.049,-0.091 -1.494,2.779 -1.906,3.505c-0.52,0.975 -1.141,1.892 -1.851,2.738c-4.057,4.518 -5.496,8.379 -5.496,17.925c0,5.44 2.43,8.01 6.683,8.695c1.404,0.23 2.738,0.237 4.686,0.111c0.286,-0.016 0.573,-0.032 0.859,-0.049c0.293,-0.021 0.51,-0.028 0.691,-0.028c2.235,0 3.911,-6.215 3.143,-10.768c-0.713,-4.301 -0.636,-5.335 0.719,-9.245l0,0ZM253.861,89.92c0.936,-2.724 2.416,-4.309 9.965,-11.495c1.082,-1.026 1.906,-1.829 2.688,-2.605c1.355,-1.361 1.516,-2.011 0.943,-2.325c-0.572,-0.314 -1.655,-0.405 -3.715,-0.37l-0.503,0.007c-2.192,0.042 -2.975,0.014 -3.589,-0.237c-0.74,-0.287 -1.376,-0.629 -2.27,-1.167l-0.963,-0.579c-0.715,-0.456 -1.494,-0.803 -2.312,-1.027c-2.709,-0.677 -4.832,1.516 -7.772,6.914c0.049,-0.091 -1.494,2.779 -1.906,3.505c-0.52,0.975 -1.141,1.892 -1.851,2.738c-4.057,4.518 -5.496,8.379 -5.496,17.925c0,5.44 2.43,8.01 6.683,8.695c1.404,0.23 2.738,0.237 4.686,0.111c0.286,-0.016 0.573,-0.032 0.859,-0.049c0.293,-0.021 0.51,-0.028 0.691,-0.028c2.235,0 3.911,-6.215 3.143,-10.768c-0.713,-4.301 -0.636,-5.335 0.719,-9.245l0,0ZM498.755,49.18c2.031,0.046 4.045,0.375 5.985,0.977c3.785,1.243 6.089,3.513 6.089,7.053c0,6.697 -6.641,12.011 -15.6,14.993c-6.858,2.291 -9.511,-1.25 -8.143,-11.55c0.587,-4.386 2.668,-7.451 5.755,-9.399c1.792,-1.123 3.813,-1.831 5.914,-2.074l0,0ZM79.755,49.18c2.031,0.046 4.045,0.375 5.985,0.977c3.785,1.243 6.089,3.513 6.089,7.053c0,6.697 -6.641,12.011 -15.6,14.993c-6.858,2.291 -9.511,-1.25 -8.143,-11.55c0.587,-4.386 2.668,-7.451 5.755,-9.399c1.792,-1.123 3.813,-1.831 5.914,-2.074l0,0ZM673.517,90.143c-1.313,3.799 -1.382,4.721 -0.684,8.911c0.824,4.93 -0.964,11.578 -3.834,11.578c-0.352,0 -0.704,0.017 -1.054,0.049l-0.447,0.028c-1.997,0.125 -3.373,0.118 -4.847,-0.119c-4.574,-0.74 -7.269,-3.589 -7.269,-9.386c0,-9.706 1.494,-13.749 5.677,-18.386c0.676,-0.81 1.265,-1.688 1.76,-2.619c0.412,-0.719 1.941,-3.582 1.899,-3.499c3.101,-5.684 5.385,-8.051 8.555,-7.262c0.817,0.209 1.536,0.538 2.5,1.11l0.971,0.587c0.687,0.435 1.412,0.808 2.164,1.117c0.489,0.189 1.257,0.224 3.317,0.182l0.503,-0.007c2.207,-0.035 3.338,0.056 4.071,0.461c1.125,0.621 0.838,1.787 -0.796,3.421c-0.887,0.887 -1.786,1.762 -2.695,2.626c-7.402,7.053 -8.904,8.659 -9.791,11.208l0,0ZM254.517,90.143c-1.313,3.799 -1.382,4.721 -0.684,8.911c0.824,4.93 -0.964,11.578 -3.834,11.578c-0.352,0 -0.704,0.017 -1.054,0.049l-0.447,0.028c-1.997,0.125 -3.373,0.118 -4.847,-0.119c-4.574,-0.74 -7.269,-3.589 -7.269,-9.386c0,-9.706 1.494,-13.749 5.677,-18.386c0.676,-0.81 1.265,-1.688 1.76,-2.619c0.412,-0.719 1.941,-3.582 1.899,-3.499c3.101,-5.684 5.385,-8.051 8.555,-7.262c0.817,0.209 1.536,0.538 2.5,1.11l0.971,0.587c0.687,0.435 1.412,0.808 2.164,1.117c0.489,0.189 1.257,0.224 3.317,0.182l0.503,-0.007c2.207,-0.035 3.338,0.056 4.071,0.461c1.125,0.621 0.838,1.787 -0.796,3.421c-0.887,0.887 -1.786,1.762 -2.695,2.626c-7.402,7.053 -8.904,8.659 -9.791,11.208l0,0ZM498.336,49.934c-1.82,0.28 -3.564,0.929 -5.125,1.906c-2.919,1.844 -4.875,4.735 -5.426,8.911c-1.32,9.853 0.949,12.884 7.22,10.796c8.701,-2.905 15.126,-8.052 15.126,-14.337c0,-3.184 -2.081,-5.237 -5.608,-6.389c-1.851,-0.597 -3.781,-0.915 -5.726,-0.943c-0.091,0 -0.244,0.021 -0.461,0.056l0,0ZM79.336,49.934c-1.82,0.28 -3.564,0.929 -5.125,1.906c-2.919,1.844 -4.875,4.735 -5.426,8.911c-1.32,9.853 0.949,12.884 7.22,10.796c8.701,-2.905 15.126,-8.052 15.126,-14.337c0,-3.184 -2.081,-5.237 -5.608,-6.389c-1.851,-0.597 -3.781,-0.915 -5.726,-0.943c-0.091,0 -0.244,0.021 -0.461,0.056l0,0ZM731.108,49.871c2.172,-0.259 3.98,-0.091 5.866,0.489c1.501,0.461 1.913,0.649 6.033,2.632c3.317,1.599 5.859,2.696 9.211,3.883c5.852,2.074 7.905,4.351 6.166,6.816c-1.452,2.053 -5.614,4.134 -12.458,6.41c-5.901,1.969 -10.81,1.641 -14.965,-0.628c-3.247,-1.781 -5.817,-4.539 -8.484,-8.59c-2.025,-3.079 -1.907,-5.726 0.111,-7.723c1.732,-1.711 4.798,-2.842 8.52,-3.282l0,-0.007ZM312.108,49.871c2.172,-0.259 3.98,-0.091 5.866,0.489c1.501,0.461 1.913,0.649 6.033,2.632c3.317,1.599 5.859,2.696 9.211,3.883c5.852,2.074 7.905,4.351 6.166,6.816c-1.452,2.053 -5.614,4.134 -12.458,6.41c-5.901,1.969 -10.81,1.641 -14.965,-0.628c-3.247,-1.781 -5.817,-4.539 -8.484,-8.59c-2.025,-3.079 -1.907,-5.726 0.111,-7.723c1.732,-1.711 4.798,-2.842 8.52,-3.282l0,-0.007ZM731.192,50.569c-3.583,0.419 -6.516,1.509 -8.115,3.087c-1.767,1.746 -1.871,4.029 -0.014,6.843c2.605,3.967 5.098,6.641 8.24,8.359c3.981,2.172 8.681,2.493 14.4,0.587c6.697,-2.235 10.782,-4.274 12.109,-6.159c1.354,-1.921 -0.349,-3.806 -5.831,-5.755c-3.38,-1.201 -5.936,-2.304 -9.274,-3.91c-4.078,-1.962 -4.483,-2.144 -5.936,-2.591c-1.805,-0.562 -3.713,-0.72 -5.586,-0.461l0.007,0ZM312.192,50.569c-3.583,0.419 -6.516,1.509 -8.115,3.087c-1.767,1.746 -1.871,4.029 -0.014,6.843c2.605,3.967 5.098,6.641 8.24,8.359c3.981,2.172 8.681,2.493 14.4,0.587c6.697,-2.235 10.782,-4.274 12.109,-6.159c1.354,-1.921 -0.349,-3.806 -5.831,-5.755c-3.38,-1.201 -5.936,-2.304 -9.274,-3.91c-4.078,-1.962 -4.483,-2.144 -5.936,-2.591c-1.805,-0.562 -3.713,-0.72 -5.586,-0.461l0.007,0ZM651.177,0c-8.491,5.378 -15.912,14.427 -20.271,23.146c-0.489,1.05 -0.884,2.142 -1.18,3.261c-0.161,0.559 -1.746,6.627 -2.375,8.729c-1.075,3.699 -2.524,7.279 -4.322,10.685c-4.33,8.072 -10.782,14.371 -20.224,18.687c-11.243,5.139 -16.061,4.574 -15.07,-0.727c0.699,-3.694 4.47,-9.657 9.072,-15.174c1.274,-1.509 2.401,-3.137 3.366,-4.86c3.037,-5.503 3.533,-9.616 3.533,-22.85c0,-6.634 -2.641,-14.021 -7.243,-20.897l0.836,0c4.52,6.88 7.105,14.246 7.105,20.897c0,13.352 -0.509,17.549 -3.617,23.185c-0.988,1.763 -2.144,3.428 -3.45,4.972c-4.518,5.426 -8.247,11.313 -8.91,14.853c-0.838,4.427 3.275,4.909 14.085,-0.035c9.295,-4.246 15.642,-10.44 19.902,-18.38c1.774,-3.368 3.201,-6.908 4.26,-10.565c0.628,-2.081 2.214,-8.136 2.381,-8.715c0.307,-1.159 0.716,-2.287 1.222,-3.373c4.261,-8.516 11.388,-17.331 19.625,-22.839l1.275,0ZM232.177,0c-8.491,5.378 -15.912,14.427 -20.271,23.146c-0.489,1.05 -0.884,2.142 -1.18,3.261c-0.161,0.559 -1.746,6.627 -2.375,8.729c-1.075,3.699 -2.524,7.279 -4.322,10.685c-4.33,8.072 -10.782,14.371 -20.224,18.687c-11.243,5.139 -16.061,4.574 -15.07,-0.727c0.699,-3.694 4.47,-9.657 9.072,-15.174c1.274,-1.509 2.401,-3.137 3.366,-4.86c3.037,-5.503 3.533,-9.616 3.533,-22.85c0,-6.634 -2.641,-14.021 -7.243,-20.897l0.836,0c4.52,6.88 7.105,14.246 7.105,20.897c0,13.352 -0.509,17.549 -3.617,23.185c-0.988,1.763 -2.144,3.428 -3.45,4.972c-4.518,5.426 -8.247,11.313 -8.91,14.853c-0.838,4.427 3.275,4.909 14.085,-0.035c9.295,-4.246 15.642,-10.44 19.902,-18.38c1.774,-3.368 3.201,-6.908 4.26,-10.565c0.628,-2.081 2.214,-8.136 2.381,-8.715c0.307,-1.159 0.716,-2.287 1.222,-3.373c4.261,-8.516 11.388,-17.331 19.625,-22.839l1.275,0ZM452.569,0c-0.44,1.552 -1.471,5.176 -1.809,6.337c-5.929,20.147 -12.486,36.977 -18.247,42.738c-1.956,1.955 -3.534,3.938 -7.263,9.05c-2.374,3.268 -4.351,5.761 -6.25,7.751l0,-1.082c1.913,-2.081 4.001,-4.763 6.62,-8.359c2.814,-3.855 4.413,-5.866 6.404,-7.849c5.635,-5.643 12.178,-22.444 18.065,-42.458c0.325,-1.099 1.285,-4.486 1.751,-6.128l0.729,0ZM33.569,0c-0.44,1.552 -1.471,5.176 -1.809,6.337c-5.929,20.147 -12.486,36.977 -18.247,42.738c-1.956,1.955 -3.534,3.938 -7.263,9.05c-2.3,3.166 -4.227,5.605 -6.072,7.563l-0.178,0.188l0,-1.082c1.913,-2.081 4.001,-4.763 6.62,-8.359c2.814,-3.855 4.413,-5.866 6.404,-7.849c5.635,-5.643 12.178,-22.444 18.065,-42.458c0.325,-1.099 1.285,-4.486 1.751,-6.128l0.729,0ZM446.89,0c-0.563,1.685 -1.158,3.489 -1.794,5.43l-1.103,3.38c-3.317,10.104 -5.265,15.698 -7.584,21.431c-3.629,8.943 -9.553,17.636 -17.051,25.865l-0.358,0.392l0,-2.081c7.074,-7.898 12.661,-16.201 16.11,-24.714c2.305,-5.684 4.253,-11.257 7.549,-21.333l1.11,-3.38c0.581,-1.773 1.128,-3.431 1.647,-4.99l1.474,0ZM27.89,0c-0.563,1.685 -1.158,3.489 -1.794,5.43l-1.103,3.38c-3.317,10.104 -5.265,15.698 -7.584,21.431c-3.629,8.943 -9.553,17.636 -17.051,25.865l-0.358,0.392l0,-2.081c7.074,-7.898 12.661,-16.201 16.11,-24.714c2.305,-5.684 4.253,-11.257 7.549,-21.333l1.11,-3.38c0.581,-1.773 1.128,-3.431 1.647,-4.99l1.474,0ZM636.097,0c-5.792,5.003 -9.398,11.935 -12.419,22.043c-0.405,1.368 -0.803,2.793 -1.271,4.518l-1.18,4.434c-2.081,7.807 -3.492,11.802 -5.705,15.231c-3.527,5.453 -7.94,8.854 -11.097,9.064c-0.051,0.003 -0.101,0.006 -0.151,0.007l-0.148,0.003c-3.006,0.007 -3.307,-3.102 -0.357,-7.364c8.045,-11.62 10.349,-23.763 5.531,-43.016c-0.427,-1.709 -0.957,-3.348 -1.587,-4.92l0.755,0c0.598,1.522 1.104,3.105 1.516,4.752c4.86,19.449 2.514,31.795 -5.642,43.576c-2.773,4.015 -2.459,6.424 0.041,6.263c2.892,-0.195 7.13,-3.456 10.552,-8.742c2.165,-3.352 3.562,-7.298 5.622,-15.035l1.18,-4.435c0.461,-1.725 0.866,-3.156 1.278,-4.539c2.941,-9.879 6.463,-16.782 12.025,-21.84l1.057,0ZM217.097,0c-5.792,5.003 -9.398,11.935 -12.419,22.043c-0.405,1.368 -0.803,2.793 -1.271,4.518l-1.18,4.434c-2.081,7.807 -3.492,11.802 -5.705,15.231c-3.527,5.453 -7.94,8.854 -11.097,9.064c-0.051,0.003 -0.101,0.006 -0.151,0.007l-0.148,0.003c-3.006,0.007 -3.307,-3.102 -0.357,-7.364c8.045,-11.62 10.349,-23.763 5.531,-43.016c-0.427,-1.709 -0.957,-3.348 -1.587,-4.92l0.755,0c0.598,1.522 1.104,3.105 1.516,4.752c4.86,19.449 2.514,31.795 -5.642,43.576c-2.773,4.015 -2.459,6.424 0.041,6.263c2.892,-0.195 7.13,-3.456 10.552,-8.742c2.165,-3.352 3.562,-7.298 5.622,-15.035l1.18,-4.435c0.461,-1.725 0.866,-3.156 1.278,-4.539c2.941,-9.879 6.463,-16.782 12.025,-21.84l1.057,0ZM834.876,1.616c-0.701,0.181 -1.481,0.431 -2.344,0.755c-6.99,2.619 -9.637,3.54 -13.373,4.721c-1.243,0.391 -1.836,0.579 -2.702,0.866c-1.034,0.349 -2.207,0.53 -4.707,0.81c-0.614,0.069 -1.229,0.139 -1.843,0.209c-5.447,0.657 -7.878,1.725 -7.878,4.239c0,3.107 2.019,9.204 5.559,18.024c0.665,1.729 1.208,3.502 1.627,5.307c0.201,0.804 0.397,1.609 0.587,2.416c1.299,5.321 2.213,7.479 3.882,8.149c1.544,0.615 3.283,0.419 5.217,-0.502c2.43,-1.18 5.042,-3.45 7.821,-6.613c1.062,-1.188 2.074,-2.438 3.205,-3.89l2.207,-2.863c1.809,-2.256 4.239,-8.527 5.859,-14.127l0,2.409c-1.599,5.028 -3.68,10.126 -5.314,12.158c-0.307,0.384 -1.865,2.416 -2.2,2.856c-1.138,1.466 -2.165,2.723 -3.226,3.924c-2.849,3.22 -5.517,5.545 -8.052,6.774c-2.088,1.006 -4.029,1.222 -5.782,0.517c-1.983,-0.789 -2.933,-3.031 -4.295,-8.624c-0.196,-0.806 -0.391,-1.611 -0.586,-2.417c-0.559,-2.234 -1.027,-3.805 -1.592,-5.209c-3.59,-8.939 -5.615,-15.049 -5.615,-18.289c0,-3.052 2.682,-4.232 8.492,-4.937c0.616,-0.075 1.233,-0.145 1.85,-0.21c2.444,-0.272 3.597,-0.447 4.56,-0.768c0.88,-0.293 1.467,-0.489 2.71,-0.88c3.729,-1.173 6.362,-2.095 13.338,-4.706c0.651,-0.244 1.261,-0.448 1.831,-0.614c0.265,0.157 0.52,0.329 0.764,0.515l0,0ZM418.993,0.59l0,0.699c-1.222,-0.168 -3.003,0.16 -5.461,1.082c-6.99,2.619 -9.637,3.54 -13.373,4.721c-1.243,0.391 -1.836,0.579 -2.702,0.866c-1.034,0.349 -2.207,0.53 -4.707,0.81c-0.614,0.069 -1.229,0.139 -1.843,0.209c-5.447,0.657 -7.878,1.725 -7.878,4.239c0,3.107 2.019,9.204 5.559,18.024c0.665,1.729 1.208,3.502 1.627,5.307c0.201,0.804 0.397,1.609 0.587,2.416c1.299,5.321 2.213,7.479 3.882,8.149c1.544,0.615 3.283,0.419 5.217,-0.502c2.43,-1.18 5.042,-3.45 7.821,-6.613c1.062,-1.188 2.074,-2.438 3.205,-3.89l2.207,-2.863c1.809,-2.256 4.239,-8.527 5.859,-14.127l0,2.409c-1.599,5.028 -3.68,10.126 -5.314,12.158c-0.307,0.384 -1.865,2.416 -2.2,2.856c-1.138,1.466 -2.165,2.723 -3.226,3.924c-2.849,3.22 -5.517,5.545 -8.052,6.774c-2.088,1.006 -4.029,1.222 -5.782,0.517c-1.983,-0.789 -2.933,-3.031 -4.295,-8.624c-0.196,-0.806 -0.391,-1.611 -0.586,-2.417c-0.559,-2.234 -1.027,-3.805 -1.592,-5.209c-3.59,-8.939 -5.615,-15.049 -5.615,-18.289c0,-3.052 2.682,-4.232 8.492,-4.937c0.616,-0.075 1.233,-0.145 1.85,-0.21c2.444,-0.272 3.597,-0.447 4.56,-0.768c0.88,-0.293 1.467,-0.489 2.71,-0.88c3.729,-1.173 6.362,-2.095 13.338,-4.706c2.465,-0.922 4.343,-1.285 5.712,-1.125l0,0ZM439.519,0c-0.84,3.295 -1.749,6.572 -2.726,9.829c-0.956,3.143 -3.142,10.524 -3.463,11.543c-0.734,2.375 -1.146,3.45 -1.718,4.414c-0.573,0.977 -4.784,6.34 -8.827,12.758l-3.785,6.082l0,-1.326l3.198,-5.133c2.753,-4.35 5.683,-8.586 8.781,-12.697c0.006,-0.072 1.028,-2.184 1.687,-4.307c0.314,-1.006 2.5,-8.387 3.457,-11.543c0.939,-3.095 1.795,-6.201 2.668,-9.62l0.728,0ZM20.519,0c-0.84,3.295 -1.749,6.572 -2.726,9.829c-0.956,3.143 -3.142,10.524 -3.463,11.543c-0.734,2.375 -1.146,3.45 -1.718,4.414c-0.573,0.977 -4.784,6.34 -8.827,12.758l-3.785,6.082l0,-1.326l3.198,-5.133c2.753,-4.35 5.683,-8.586 8.781,-12.697c0.006,-0.072 1.028,-2.184 1.687,-4.307c0.314,-1.006 2.5,-8.387 3.457,-11.543c0.939,-3.095 1.795,-6.201 2.668,-9.62l0.728,0ZM758.224,44.249c-3.387,-1.711 -6.411,-4.043 -10.084,-7.514c-0.733,-0.698 -4.539,-4.427 -5.566,-5.37c-1.976,-1.822 -3.533,-3.002 -5.028,-3.75c-3.317,-1.648 -6.284,-0.977 -9.636,2.591c-1.07,1.135 -2.179,2.232 -3.324,3.289c-1.732,1.606 -3.604,3.226 -6.229,5.426c-9.679,8.101 -10.315,8.659 -12.556,11.32c-2.989,3.547 -3.199,5.866 -0.322,7.409c1.558,0.838 3.422,2.088 6.104,4.029c0.838,0.608 5.915,4.358 7.472,5.482c2.891,2.124 5.886,4.103 8.973,5.929c7.025,4.064 12.619,5.573 16.97,4.036c1.033,-0.363 11.361,-3.819 14.734,-5.028c6.774,-2.444 11.774,-4.615 15.189,-6.787c4.078,-2.591 5.516,-4.958 4.12,-7.165c-0.769,-1.242 -1.626,-2.427 -2.563,-3.548c-1.326,-1.548 -2.932,-2.832 -4.735,-3.784c-1.452,-0.81 -10.251,-4.924 -13.519,-6.565l0,0ZM339.224,44.249c-3.387,-1.711 -6.411,-4.043 -10.084,-7.514c-0.733,-0.698 -4.539,-4.427 -5.566,-5.37c-1.976,-1.822 -3.533,-3.002 -5.028,-3.75c-3.317,-1.648 -6.284,-0.977 -9.636,2.591c-1.07,1.135 -2.179,2.232 -3.324,3.289c-1.732,1.606 -3.604,3.226 -6.229,5.426c-9.679,8.101 -10.315,8.659 -12.556,11.32c-2.989,3.547 -3.199,5.866 -0.322,7.409c1.558,0.838 3.422,2.088 6.104,4.029c0.838,0.608 5.915,4.358 7.472,5.482c2.891,2.124 5.886,4.103 8.973,5.929c7.025,4.064 12.619,5.573 16.97,4.036c1.033,-0.363 11.361,-3.819 14.734,-5.028c6.774,-2.444 11.774,-4.615 15.189,-6.787c4.078,-2.591 5.516,-4.958 4.12,-7.165c-0.769,-1.242 -1.626,-2.427 -2.563,-3.548c-1.326,-1.548 -2.932,-2.832 -4.735,-3.784c-1.452,-0.81 -10.251,-4.924 -13.519,-6.565l0,0ZM758.545,43.621c3.24,1.641 12.06,5.754 13.54,6.585c1.875,0.992 3.545,2.328 4.924,3.939c0.958,1.146 1.833,2.36 2.618,3.631c1.676,2.64 0.028,5.349 -4.329,8.121c-3.471,2.207 -8.506,4.4 -15.328,6.858c-3.38,1.215 -13.709,4.665 -14.735,5.028c-4.602,1.627 -10.37,0.07 -17.556,-4.092c-2.744,-1.586 -5.586,-3.492 -9.036,-5.964c-1.557,-1.124 -6.634,-4.881 -7.472,-5.482c-1.922,-1.453 -3.935,-2.783 -6.027,-3.98c-3.366,-1.816 -3.107,-4.637 0.119,-8.471c2.284,-2.709 2.912,-3.261 12.64,-11.404c2.115,-1.748 4.185,-3.55 6.208,-5.405c1.136,-1.046 2.235,-2.131 3.296,-3.254c3.547,-3.792 6.843,-4.532 10.454,-2.737c1.564,0.768 3.163,1.99 5.188,3.855c1.034,0.956 4.847,4.692 5.573,5.377c3.631,3.428 6.606,5.726 9.916,7.402l0.007,-0.007l0,0ZM339.545,43.621c3.24,1.641 12.06,5.754 13.54,6.585c1.875,0.992 3.545,2.328 4.924,3.939c0.958,1.146 1.833,2.36 2.618,3.631c1.676,2.64 0.028,5.349 -4.329,8.121c-3.471,2.207 -8.506,4.4 -15.328,6.858c-3.38,1.215 -13.709,4.665 -14.735,5.028c-4.602,1.627 -10.37,0.07 -17.556,-4.092c-2.744,-1.586 -5.586,-3.492 -9.036,-5.964c-1.557,-1.124 -6.634,-4.881 -7.472,-5.482c-1.922,-1.453 -3.935,-2.783 -6.027,-3.98c-3.366,-1.816 -3.107,-4.637 0.119,-8.471c2.284,-2.709 2.912,-3.261 12.64,-11.404c2.115,-1.748 4.185,-3.55 6.208,-5.405c1.136,-1.046 2.235,-2.131 3.296,-3.254c3.547,-3.792 6.843,-4.532 10.454,-2.737c1.564,0.768 3.163,1.99 5.188,3.855c1.034,0.956 4.847,4.692 5.573,5.377c3.631,3.428 6.606,5.726 9.916,7.402l0.007,-0.007l0,0ZM511.178,43.593c4.973,0 7.445,2.151 7.857,6.075c0.293,2.808 -0.301,5.685 -1.935,11.132c-1.787,5.949 -12.821,17.723 -18.994,21.843c-4.895,3.261 -13.981,3.96 -18.555,0.691c-2.786,-1.99 -2.465,-8.435 0.014,-18.477c0.475,-1.921 1.027,-3.946 1.655,-6.117c0.68,-2.37 1.39,-4.73 2.13,-7.081l0.259,-0.838c1.033,-3.352 3.561,-5.412 7.493,-6.474c3.072,-0.838 6.662,-1.047 12.206,-0.929l2.717,0.07c2.702,0.077 3.785,0.105 5.153,0.105l0,0ZM92.178,43.593c4.973,0 7.445,2.151 7.857,6.075c0.293,2.808 -0.301,5.685 -1.935,11.132c-1.787,5.949 -12.821,17.723 -18.994,21.843c-4.895,3.261 -13.981,3.96 -18.555,0.691c-2.786,-1.99 -2.465,-8.435 0.014,-18.477c0.475,-1.921 1.027,-3.946 1.655,-6.117c0.68,-2.37 1.39,-4.73 2.13,-7.081l0.259,-0.838c1.033,-3.352 3.561,-5.412 7.493,-6.474c3.072,-0.838 6.662,-1.047 12.206,-0.929l2.717,0.07c2.702,0.077 3.785,0.105 5.153,0.105l0,0ZM821.115,8.712c1.536,-0.768 2.562,-1.159 4.106,-1.648l0.195,-0.063c2.122,-0.626 4.177,-1.456 6.138,-2.479c2.912,-1.453 4.435,-1.313 4.861,0.586c0.307,1.397 0.139,2.801 -0.873,8.869c-1.585,9.511 -6.397,18.254 -14.784,25.349c-3.002,2.535 -5.174,3.066 -6.808,1.704c-1.313,-1.096 -2.165,-3.191 -3.219,-7.318c-0.21,-0.803 -0.999,-4.072 -1.202,-4.861c-0.54,-2.171 -1.171,-4.319 -1.892,-6.438c-1.676,-4.763 -2.116,-7.528 -1.467,-9.036c0.538,-1.278 1.453,-1.565 3.911,-1.711c1.041,-0.063 1.46,-0.098 2.074,-0.196l1.362,-0.23c0.503,-0.084 0.852,-0.14 1.173,-0.203c0.768,-0.139 1.341,-0.265 1.892,-0.419c1.188,-0.342 2.389,-0.838 4.533,-1.906l0,0ZM402.115,8.712c1.536,-0.768 2.562,-1.159 4.106,-1.648l0.195,-0.063c2.122,-0.626 4.177,-1.456 6.138,-2.479c2.912,-1.453 4.435,-1.313 4.861,0.586c0.307,1.397 0.139,2.801 -0.873,8.869c-1.585,9.511 -6.397,18.254 -14.784,25.349c-3.002,2.535 -5.174,3.066 -6.808,1.704c-1.313,-1.096 -2.165,-3.191 -3.219,-7.318c-0.21,-0.803 -0.999,-4.072 -1.202,-4.861c-0.54,-2.171 -1.171,-4.319 -1.892,-6.438c-1.676,-4.763 -2.116,-7.528 -1.467,-9.036c0.538,-1.278 1.453,-1.565 3.911,-1.711c1.041,-0.063 1.46,-0.098 2.074,-0.196l1.362,-0.23c0.503,-0.084 0.852,-0.14 1.173,-0.203c0.768,-0.139 1.341,-0.265 1.892,-0.419c1.188,-0.342 2.389,-0.838 4.533,-1.906l0,0ZM821.422,9.34c-2.172,1.076 -3.408,1.599 -4.644,1.949c-0.587,0.16 -1.18,0.293 -1.962,0.44c-0.884,0.162 -1.771,0.309 -2.661,0.439c-0.538,0.091 -0.971,0.133 -2.039,0.196c-2.186,0.126 -2.912,0.356 -3.31,1.292c-0.545,1.285 -0.14,3.924 1.487,8.519c0.729,2.14 1.368,4.309 1.914,6.502l1.201,4.86c1.019,3.981 1.83,5.992 2.989,6.955c1.306,1.09 3.135,0.65 5.915,-1.704c8.254,-6.983 12.988,-15.572 14.546,-24.93c0.977,-5.9 1.152,-7.339 0.872,-8.596c-0.286,-1.306 -1.298,-1.397 -3.868,-0.112c-1.993,1.037 -4.081,1.879 -6.236,2.514l-0.196,0.07c-1.38,0.418 -2.721,0.955 -4.008,1.606l0,0ZM402.422,9.34c-2.172,1.076 -3.408,1.599 -4.644,1.949c-0.587,0.16 -1.18,0.293 -1.962,0.44c-0.884,0.162 -1.771,0.309 -2.661,0.439c-0.538,0.091 -0.971,0.133 -2.039,0.196c-2.186,0.126 -2.912,0.356 -3.31,1.292c-0.545,1.285 -0.14,3.924 1.487,8.519c0.729,2.14 1.368,4.309 1.914,6.502l1.201,4.86c1.019,3.981 1.83,5.992 2.989,6.955c1.306,1.09 3.135,0.65 5.915,-1.704c8.254,-6.983 12.988,-15.572 14.546,-24.93c0.977,-5.9 1.152,-7.339 0.872,-8.596c-0.286,-1.306 -1.298,-1.397 -3.868,-0.112c-1.993,1.037 -4.081,1.879 -6.236,2.514l-0.196,0.07c-1.38,0.418 -2.721,0.955 -4.008,1.606l0,0ZM554.81,33.558c-1.9,6.844 -10.426,6.886 -18.66,2.305c-7.101,-3.939 -9.636,-12.556 -3.491,-15.971c1.067,-0.587 2.111,-1.216 3.128,-1.886l1.418,-0.907c0.888,-0.577 1.801,-1.113 2.737,-1.607c3.303,-1.696 6.16,-1.955 9.777,-0.502c6.396,2.556 7.667,9.308 5.098,18.575l-0.007,-0.007l0,0ZM135.81,33.558c-1.9,6.844 -10.426,6.886 -18.66,2.305c-7.101,-3.939 -9.636,-12.556 -3.491,-15.971c1.067,-0.587 2.111,-1.216 3.128,-1.886l1.418,-0.907c0.888,-0.577 1.801,-1.113 2.737,-1.607c3.303,-1.696 6.16,-1.955 9.777,-0.502c6.396,2.556 7.667,9.308 5.098,18.575l-0.007,-0.007ZM540.264,16.114c-0.918,0.483 -1.812,1.007 -2.682,1.571l-1.418,0.908c-0.586,0.37 -1.047,0.663 -1.508,0.943c-0.573,0.349 -1.117,0.67 -1.662,0.97c-5.545,3.073 -3.205,11.034 3.492,14.749c7.898,4.392 15.921,4.351 17.653,-1.885c2.493,-8.96 1.292,-15.343 -4.679,-17.738c-3.421,-1.362 -6.068,-1.131 -9.196,0.489l0,-0.007l0,0ZM121.264,16.114c-0.918,0.483 -1.812,1.007 -2.682,1.571l-1.418,0.908c-0.586,0.37 -1.047,0.663 -1.508,0.943c-0.573,0.349 -1.117,0.67 -1.662,0.97c-5.545,3.073 -3.205,11.034 3.492,14.749c7.898,4.392 15.921,4.351 17.653,-1.885c2.493,-8.96 1.292,-15.343 -4.679,-17.738c-3.421,-1.362 -6.068,-1.131 -9.196,0.489l0,-0.007l0,0ZM818.279,13.935c0.957,-0.223 1.746,-0.524 2.724,-0.991c0.244,-0.126 1.795,-0.915 2.318,-1.167c1.048,-0.495 2.074,-0.914 3.282,-1.319c1.886,-0.629 3.241,-0.538 4.107,0.279c0.684,0.656 0.935,1.578 0.984,2.919c0.014,0.279 0.014,0.489 0.014,0.957c0,3.931 -3.233,11.787 -7.919,15.886c-3.031,2.654 -5.105,3.262 -6.927,1.76c-1.439,-1.187 -2.444,-3.247 -4.658,-9.015c-1.299,-3.373 -1.432,-5.657 -0.475,-7.123c0.782,-1.187 2.025,-1.648 4.071,-1.886l0.88,-0.083c0.831,-0.084 1.222,-0.133 1.606,-0.217l-0.007,0l0,0ZM399.279,13.935c0.957,-0.223 1.746,-0.524 2.724,-0.991c0.244,-0.126 1.795,-0.915 2.318,-1.167c1.048,-0.495 2.074,-0.914 3.282,-1.319c1.886,-0.629 3.241,-0.538 4.107,0.279c0.684,0.656 0.935,1.578 0.984,2.919c0.014,0.279 0.014,0.489 0.014,0.957c0,3.931 -3.233,11.787 -7.919,15.886c-3.031,2.654 -5.105,3.262 -6.927,1.76c-1.439,-1.187 -2.444,-3.247 -4.658,-9.015c-1.299,-3.373 -1.432,-5.657 -0.475,-7.123c0.782,-1.187 2.025,-1.648 4.071,-1.886l0.88,-0.083c0.831,-0.084 1.222,-0.133 1.606,-0.217l-0.007,0l0,0ZM426.524,0c0.334,0.973 0.507,2.118 0.507,3.439c0,7.968 -3.527,19.798 -8.031,28.981l0,-1.606c4.141,-8.883 7.332,-19.882 7.332,-27.375c0,-1.348 -0.186,-2.491 -0.552,-3.439l0.744,0ZM7.527,0.009c0.332,0.971 0.504,2.113 0.504,3.43c0,7.968 -3.527,19.798 -8.031,28.981l0,-1.606c4.141,-8.883 7.332,-19.882 7.332,-27.375c0,-1.312 -0.177,-2.431 -0.524,-3.364c0.236,-0.033 0.476,-0.055 0.719,-0.066l0,0ZM552.729,24.599c0,3.98 -1.704,6.284 -4.637,6.955c-2.305,0.531 -5.28,-0.035 -7.738,-1.264l-1.319,-0.657c-0.468,-0.237 -0.825,-0.432 -1.139,-0.614c-2.842,-1.662 -2.884,-3.471 0.238,-7.633c4.748,-6.326 14.595,-5 14.595,3.213l0,0ZM133.729,24.599c0,3.98 -1.704,6.284 -4.637,6.955c-2.305,0.531 -5.28,-0.035 -7.738,-1.264l-1.319,-0.657c-0.468,-0.237 -0.825,-0.432 -1.139,-0.614c-2.842,-1.662 -2.884,-3.471 0.238,-7.633c4.748,-6.326 14.595,-5 14.595,3.213l0,0ZM816.813,15.541l-0.852,0.084c-1.676,0.189 -2.584,0.531 -3.066,1.264c-0.649,0.999 -0.544,2.863 0.608,5.852c2.109,5.475 3.079,7.479 4.246,8.443c1.138,0.936 2.542,0.523 5.118,-1.732c4.372,-3.827 7.444,-11.292 7.444,-14.839c0,-0.447 0,-0.65 -0.013,-0.901c-0.035,-1.006 -0.21,-1.627 -0.552,-1.956c-0.419,-0.398 -1.257,-0.453 -2.703,0.028c-1.066,0.353 -2.108,0.773 -3.121,1.257c-0.503,0.238 -2.046,1.027 -2.319,1.16c-0.954,0.479 -1.962,0.845 -3.002,1.089c-0.461,0.112 -0.894,0.168 -1.788,0.251l0,0ZM397.813,15.541l-0.852,0.084c-1.676,0.189 -2.584,0.531 -3.066,1.264c-0.649,0.999 -0.544,2.863 0.608,5.852c2.109,5.475 3.079,7.479 4.246,8.443c1.138,0.936 2.542,0.523 5.118,-1.732c4.372,-3.827 7.444,-11.292 7.444,-14.839c0,-0.447 0,-0.65 -0.013,-0.901c-0.035,-1.006 -0.21,-1.627 -0.552,-1.956c-0.419,-0.398 -1.257,-0.453 -2.703,0.028c-1.066,0.353 -2.108,0.773 -3.121,1.257c-0.503,0.238 -2.046,1.027 -2.319,1.16c-0.954,0.479 -1.962,0.845 -3.002,1.089c-0.461,0.112 -0.894,0.168 -1.788,0.251l0,0ZM552.03,24.596c-0.001,-3.7 -2.005,-5.968 -5.111,-6.394c-2.954,-0.398 -6.278,1.006 -8.227,3.603c-2.898,3.869 -2.863,5.196 -0.447,6.613c0.308,0.175 0.65,0.357 1.111,0.594l1.306,0.649c2.332,1.167 5.139,1.704 7.276,1.215c2.604,-0.6 4.091,-2.61 4.092,-6.28ZM133.03,24.596c-0.001,-3.7 -2.005,-5.968 -5.111,-6.394c-2.954,-0.398 -6.278,1.006 -8.227,3.603c-2.898,3.869 -2.863,5.196 -0.447,6.613c0.308,0.175 0.65,0.357 1.111,0.594l1.306,0.649c2.332,1.167 5.139,1.704 7.276,1.215c2.604,-0.6 4.091,-2.61 4.092,-6.28ZM565.648,26.378l0,0.001l0,-0.007l0,0.006ZM146.648,26.378l0,0.001l0,-0.007l0,0.006ZM11.979,25.47c0,0.007 0.008,-0.004 0.025,-0.033l-0.025,0.033ZM430.979,25.47c0,0.007 0.008,-0.004 0.025,-0.033l-0.025,0.033ZM552.03,24.596l0,0.003l0,-0.007l0,0.004ZM133.03,24.596l0,0.003l0,-0.007l0,0.004ZM539.684,10.737c0.105,-0.07 1.676,-1.055 2.06,-1.285c0.67,-0.398 1.187,-0.656 1.697,-0.817c1.795,-0.58 3.533,-0.07 7.709,2.179c10.377,5.586 13.569,15.97 6.411,27.032c-2.821,4.357 -6.543,6.285 -13.073,7.758c-0.593,0.14 -0.838,0.189 -2.185,0.475c-4.218,0.901 -6.132,1.452 -8.101,2.549c-2.535,1.41 -4.253,3.477 -5.237,6.592c-5.496,17.409 -13.771,30.265 -25.335,35.133c-11.488,4.839 -14.756,5.956 -19.539,6.208c-3.45,0.174 -6.844,-0.454 -10.755,-2.019c-1.353,-0.512 -2.669,-1.119 -3.938,-1.815c-2.807,-1.627 -3.589,-3.31 -3.143,-6.502c0.21,-1.487 2.633,-10.844 3.38,-14.42c0.44,-2.13 0.831,-4.288 1.222,-6.767c0.335,-2.068 0.649,-4.14 0.943,-6.215c0.992,-6.571 1.746,-9.965 3.136,-13.023c1.717,-3.792 4.28,-6.306 8.184,-7.773c4.602,-1.725 7.36,-2.164 12.591,-2.465c3.317,-0.188 4.664,-0.447 6.285,-1.431c0.426,-0.259 0.851,-0.566 1.27,-0.929c0.846,-0.729 1.633,-1.523 2.354,-2.374c0.412,-0.482 1.662,-2.026 1.836,-2.228c2.347,-2.793 4.4,-3.862 8.611,-3.862c2.751,0 4.12,-0.642 5.712,-2.346c-0.119,0.126 1.92,-2.193 2.689,-2.947c1.413,-1.375 3.009,-2.55 4.741,-3.492c1.048,-0.579 2.2,-1.131 3.485,-1.662c2.428,-0.983 4.767,-2.174 6.99,-3.561l0,0.007ZM120.684,10.737c0.105,-0.07 1.676,-1.055 2.06,-1.285c0.67,-0.398 1.187,-0.656 1.697,-0.817c1.795,-0.58 3.533,-0.07 7.709,2.179c10.377,5.586 13.569,15.97 6.411,27.032c-2.821,4.357 -6.543,6.285 -13.073,7.758c-0.593,0.14 -0.838,0.189 -2.185,0.475c-4.218,0.901 -6.132,1.452 -8.101,2.549c-2.535,1.41 -4.253,3.477 -5.237,6.592c-5.496,17.409 -13.771,30.265 -25.335,35.133c-11.488,4.839 -14.756,5.956 -19.539,6.208c-3.45,0.174 -6.844,-0.454 -10.755,-2.019c-1.353,-0.512 -2.669,-1.119 -3.938,-1.815c-2.807,-1.627 -3.589,-3.31 -3.143,-6.502c0.21,-1.487 2.633,-10.844 3.38,-14.42c0.44,-2.13 0.831,-4.288 1.222,-6.767c0.335,-2.068 0.649,-4.14 0.943,-6.215c0.992,-6.571 1.746,-9.965 3.136,-13.023c1.717,-3.792 4.28,-6.306 8.184,-7.773c4.602,-1.725 7.36,-2.164 12.591,-2.465c3.317,-0.188 4.664,-0.447 6.285,-1.431c0.426,-0.259 0.851,-0.566 1.27,-0.929c0.846,-0.729 1.633,-1.523 2.354,-2.374c0.412,-0.482 1.662,-2.026 1.836,-2.228c2.347,-2.793 4.4,-3.862 8.611,-3.862c2.751,0 4.12,-0.642 5.712,-2.346c-0.119,0.126 1.92,-2.193 2.689,-2.947c1.413,-1.375 3.009,-2.55 4.741,-3.492c1.048,-0.579 2.2,-1.131 3.485,-1.662c2.428,-0.983 4.767,-2.174 6.99,-3.561l0,0.007ZM419,0.59c0.859,0.098 1.522,0.405 2.004,0.915c0.978,1.034 1.117,2.598 0.81,5.293l-0.111,0.908c-0.148,0.899 -0.234,1.806 -0.259,2.717c0,2.234 -1.033,6.648 -2.444,11.103l0,-2.409c1.04,-3.583 1.746,-6.893 1.746,-8.694c0,-0.685 0.056,-1.222 0.258,-2.808l0.112,-0.9c0.293,-2.486 0.168,-3.904 -0.615,-4.728c-0.349,-0.37 -0.845,-0.608 -1.501,-0.698l0,-0.699l0,0ZM2.473,2.156c0.546,1.018 0.59,2.459 0.341,4.642l-0.111,0.908c-0.148,0.899 -0.234,1.806 -0.259,2.717c0,2.164 -0.97,6.374 -2.313,10.685l-0.131,0.418l0,-2.409c1.04,-3.583 1.746,-6.893 1.746,-8.694c0,-0.685 0.056,-1.222 0.258,-2.808l0.112,-0.9c0.222,-1.887 0.204,-3.158 -0.16,-4.022c0.164,-0.187 0.336,-0.366 0.517,-0.537l0,0ZM506.591,0c-6.645,3.177 -13.209,6.522 -19.686,10.032c-11.138,6.047 -15.622,5 -14.302,-1.6c0.47,-2.348 1.628,-5.235 3.257,-8.432l0.791,0c-1.69,3.272 -2.891,6.216 -3.363,8.572c-1.16,5.796 2.562,6.662 13.282,0.845c6.059,-3.284 12.195,-6.424 18.403,-9.417l1.618,0ZM87.591,0c-6.645,3.177 -13.209,6.522 -19.686,10.032c-11.138,6.047 -15.622,5 -14.302,-1.6c0.47,-2.348 1.628,-5.235 3.257,-8.432l0.791,0c-1.69,3.272 -2.891,6.216 -3.363,8.572c-1.16,5.796 2.562,6.662 13.282,0.845c6.059,-3.284 12.195,-6.424 18.403,-9.417l1.618,0ZM624.864,0c-0.589,0.512 -1.154,1.04 -1.71,1.596c-1.514,1.514 -2.838,2.266 -4.057,2.296l-0.135,0.001c-1.615,-0.032 -3.048,-1.345 -4.502,-3.847l-0.025,-0.046l0.806,0c2.296,3.807 4.273,4.244 7.425,1.093c0.376,-0.376 0.756,-0.739 1.145,-1.093l1.053,0ZM205.864,0c-0.589,0.512 -1.154,1.04 -1.71,1.596c-1.514,1.514 -2.838,2.266 -4.057,2.296l-0.135,0.001c-1.615,-0.032 -3.048,-1.345 -4.502,-3.847l-0.025,-0.046l0.806,0c2.296,3.807 4.273,4.244 7.425,1.093c0.376,-0.376 0.756,-0.739 1.145,-1.093l1.053,0ZM671.579,120l-1.896,0c0.469,-0.197 0.95,-0.389 1.453,-0.583c0.656,-0.252 2.696,-0.999 2.989,-1.111c3.457,-1.312 5.195,-2.479 7.081,-5.118c0.943,-1.327 1.871,-3.003 2.835,-5.147c2.074,-4.595 2.367,-7.395 1.899,-11.802c-0.153,-1.058 -0.216,-2.128 -0.188,-3.198c0.154,-3.45 2.242,-6.452 8.17,-10.964c6.516,-4.965 8.143,-9.315 6.02,-13.268c-1.537,-2.856 -4.365,-4.972 -9.462,-7.8c-1.097,-0.614 -2.514,-0.929 -4.484,-1.096c-0.558,-0.049 -0.935,-0.07 -2.06,-0.133c-4.029,-0.209 -5.328,-0.594 -5.391,-2.332c-0.07,-1.963 2.444,-5.496 8.359,-11.655c4.56,-4.749 8.205,-8.164 11.404,-10.789c1.25,-1.027 2.388,-1.9 3.631,-2.815l2.877,-2.053c0.552,-0.405 1.02,-0.754 1.467,-1.11c2.276,-1.816 4.301,-3.946 7.129,-7.64c0.587,-0.769 1.168,-1.542 1.746,-2.318l1.613,-2.158c1.257,-1.669 2.123,-2.793 2.996,-3.827c5.915,-7.102 11.858,-9.748 26.027,-10.684c-0.308,0.014 8.379,-0.629 10,-0.684c2.527,-0.07 4.224,0.111 5.907,0.684c0.559,0.188 1.132,0.433 1.725,0.726c1.585,0.796 2.214,2.703 2.982,7.577l0.307,1.927c0.119,0.748 0.231,1.376 0.349,1.977c1.006,5.37 2.528,8.582 5.447,10.174c4.721,2.57 7.403,3.597 9.77,3.45c2.793,-0.175 4.881,-2.214 6.494,-6.753c1.013,-2.821 1.02,-4.532 0.224,-5.531c-0.629,-0.782 -1.592,-1.131 -3.89,-1.585c-0.624,-0.113 -1.246,-0.241 -1.864,-0.384c-1.774,-0.419 -3.066,-0.978 -4.141,-1.892c-1.102,-0.947 -2.214,-1.881 -3.338,-2.801c-0.977,-0.807 -1.927,-1.645 -2.85,-2.514c-1.906,-1.815 -2.695,-3.093 -2.29,-4.155c0.712,-1.843 5.461,-2.472 13.219,-2.353c3.901,0.063 7.797,0.268 11.683,0.615c1.927,0.272 2.235,0.342 2.57,0.419c0.978,0.209 2.06,0.433 3.226,0.635c3.356,0.606 6.758,0.915 10.168,0.922c3.882,-0.028 7.151,-0.601 9.588,-1.816c0.719,-0.36 1.435,-0.706 2.146,-1.037l1.678,0c-1.157,0.511 -2.332,1.066 -3.517,1.659c-2.542,1.271 -5.908,1.864 -9.895,1.892c-3.282,0.028 -6.788,-0.328 -10.287,-0.929c-1.187,-0.209 -2.276,-0.426 -3.261,-0.649c-0.818,-0.18 -1.646,-0.313 -2.479,-0.398c-3.871,-0.323 -7.75,-0.528 -11.634,-0.615c-7.276,-0.111 -12.011,0.517 -12.549,1.907c-0.265,0.677 0.419,1.781 2.116,3.401c0.706,0.677 1.551,1.417 2.821,2.479c1.114,0.937 2.229,1.873 3.345,2.807c0.971,0.838 2.165,1.341 3.841,1.746c0.489,0.111 0.601,0.139 1.844,0.377c2.465,0.489 3.512,0.873 4.294,1.836c0.985,1.229 0.978,3.171 -0.104,6.202c-1.704,4.769 -3.995,7.018 -7.116,7.213c-2.535,0.161 -5.307,-0.901 -10.14,-3.533c-3.163,-1.725 -4.762,-5.098 -5.81,-10.657c-0.119,-0.607 -0.223,-1.243 -0.349,-1.997l-0.3,-1.927c-0.734,-4.595 -1.327,-6.425 -2.605,-7.06c-0.566,-0.28 -1.11,-0.517 -1.648,-0.699c-1.585,-0.537 -3.212,-0.712 -5.656,-0.642c-1.6,0.049 -10.266,0.698 -9.616,0.649c-14.351,0.957 -20.112,3.527 -25.901,10.468c-1.022,1.241 -2.012,2.507 -2.968,3.799l-1.606,2.158l-1.753,2.318c-2.863,3.743 -4.93,5.922 -7.255,7.766c-0.454,0.363 -0.929,0.726 -1.488,1.131l-2.87,2.053c-1.229,0.892 -2.431,1.821 -3.603,2.786c-3.178,2.612 -6.802,6.006 -11.348,10.74c-5.761,5.992 -8.226,9.456 -8.17,11.139c0.048,1.152 1.145,1.473 4.741,1.662c1.124,0.063 1.502,0.084 2.081,0.139c2.06,0.168 3.555,0.51 4.756,1.174c5.223,2.898 8.121,5.069 9.741,8.086c2.305,4.295 0.559,8.995 -6.208,14.148c-5.782,4.4 -7.751,7.242 -7.898,10.447c-0.042,0.817 0,1.348 0.182,3.094c0.482,4.518 0.174,7.437 -1.956,12.164c-0.795,1.843 -1.768,3.604 -2.905,5.259c-1.969,2.772 -3.819,4.008 -7.402,5.37c-0.275,0.102 -2.002,0.738 -2.79,1.037l0,0ZM252.579,120l-1.896,0c0.469,-0.197 0.95,-0.389 1.453,-0.583c0.656,-0.252 2.696,-0.999 2.989,-1.111c3.457,-1.312 5.195,-2.479 7.081,-5.118c0.943,-1.327 1.871,-3.003 2.835,-5.147c2.074,-4.595 2.367,-7.395 1.899,-11.802c-0.153,-1.058 -0.216,-2.128 -0.188,-3.198c0.154,-3.45 2.242,-6.452 8.17,-10.964c6.516,-4.965 8.143,-9.315 6.02,-13.268c-1.537,-2.856 -4.365,-4.972 -9.462,-7.8c-1.097,-0.614 -2.514,-0.929 -4.484,-1.096c-0.558,-0.049 -0.935,-0.07 -2.06,-0.133c-4.029,-0.209 -5.328,-0.594 -5.391,-2.332c-0.07,-1.963 2.444,-5.496 8.359,-11.655c4.56,-4.749 8.205,-8.164 11.404,-10.789c1.25,-1.027 2.388,-1.9 3.631,-2.815l2.877,-2.053c0.552,-0.405 1.02,-0.754 1.467,-1.11c2.276,-1.816 4.301,-3.946 7.129,-7.64c0.587,-0.769 1.168,-1.542 1.746,-2.318l1.613,-2.158c1.257,-1.669 2.123,-2.793 2.996,-3.827c5.915,-7.102 11.858,-9.748 26.027,-10.684c-0.308,0.014 8.379,-0.629 10,-0.684c2.527,-0.07 4.224,0.111 5.907,0.684c0.559,0.188 1.132,0.433 1.725,0.726c1.585,0.796 2.214,2.703 2.982,7.577l0.307,1.927c0.119,0.748 0.231,1.376 0.349,1.977c1.006,5.37 2.528,8.582 5.447,10.174c4.721,2.57 7.403,3.597 9.77,3.45c2.793,-0.175 4.881,-2.214 6.494,-6.753c1.013,-2.821 1.02,-4.532 0.224,-5.531c-0.629,-0.782 -1.592,-1.131 -3.89,-1.585c-0.624,-0.113 -1.246,-0.241 -1.864,-0.384c-1.774,-0.419 -3.066,-0.978 -4.141,-1.892c-1.102,-0.947 -2.214,-1.881 -3.338,-2.801c-0.977,-0.807 -1.927,-1.645 -2.85,-2.514c-1.906,-1.815 -2.695,-3.093 -2.29,-4.155c0.712,-1.843 5.461,-2.472 13.219,-2.353c3.901,0.063 7.797,0.268 11.683,0.615c1.927,0.272 2.235,0.342 2.57,0.419c0.978,0.209 2.06,0.433 3.226,0.635c3.356,0.606 6.758,0.915 10.168,0.922c3.882,-0.028 7.151,-0.601 9.588,-1.816c0.719,-0.36 1.435,-0.706 2.146,-1.037l1.678,0c-1.157,0.511 -2.332,1.066 -3.517,1.659c-2.542,1.271 -5.908,1.864 -9.895,1.892c-3.282,0.028 -6.788,-0.328 -10.287,-0.929c-1.187,-0.209 -2.276,-0.426 -3.261,-0.649c-0.818,-0.18 -1.646,-0.313 -2.479,-0.398c-3.871,-0.323 -7.75,-0.528 -11.634,-0.615c-7.276,-0.111 -12.011,0.517 -12.549,1.907c-0.265,0.677 0.419,1.781 2.116,3.401c0.706,0.677 1.551,1.417 2.821,2.479c1.114,0.937 2.229,1.873 3.345,2.807c0.971,0.838 2.165,1.341 3.841,1.746c0.489,0.111 0.601,0.139 1.844,0.377c2.465,0.489 3.512,0.873 4.294,1.836c0.985,1.229 0.978,3.171 -0.104,6.202c-1.704,4.769 -3.995,7.018 -7.116,7.213c-2.535,0.161 -5.307,-0.901 -10.14,-3.533c-3.163,-1.725 -4.762,-5.098 -5.81,-10.657c-0.119,-0.607 -0.223,-1.243 -0.349,-1.997l-0.3,-1.927c-0.734,-4.595 -1.327,-6.425 -2.605,-7.06c-0.566,-0.28 -1.11,-0.517 -1.648,-0.699c-1.585,-0.537 -3.212,-0.712 -5.656,-0.642c-1.6,0.049 -10.266,0.698 -9.616,0.649c-14.351,0.957 -20.112,3.527 -25.901,10.468c-1.022,1.241 -2.012,2.507 -2.968,3.799l-1.606,2.158l-1.753,2.318c-2.863,3.743 -4.93,5.922 -7.255,7.766c-0.454,0.363 -0.929,0.726 -1.488,1.131l-2.87,2.053c-1.229,0.892 -2.431,1.821 -3.603,2.786c-3.178,2.612 -6.802,6.006 -11.348,10.74c-5.761,5.992 -8.226,9.456 -8.17,11.139c0.048,1.152 1.145,1.473 4.741,1.662c1.124,0.063 1.502,0.084 2.081,0.139c2.06,0.168 3.555,0.51 4.756,1.174c5.223,2.898 8.121,5.069 9.741,8.086c2.305,4.295 0.559,8.995 -6.208,14.148c-5.782,4.4 -7.751,7.242 -7.898,10.447c-0.042,0.817 0,1.348 0.182,3.094c0.482,4.518 0.174,7.437 -1.956,12.164c-0.795,1.843 -1.768,3.604 -2.905,5.259c-1.969,2.772 -3.819,4.008 -7.402,5.37c-0.275,0.102 -2.002,0.738 -2.79,1.037l0,0Z" style="fill:#b0b0b0;"/><path id="Pill" d="M147,53.515c0,-3.579 -2.906,-6.485 -6.485,-6.485l-100.219,0c-3.58,0 -6.485,2.906 -6.485,6.485l0,12.97c0,3.579 2.905,6.485 6.485,6.485l100.219,0c3.579,0 6.485,-2.906 6.485,-6.485l0,-12.97Z" style="fill:#fff;"/><path id="WettkampfDB" d="M147,53.515c0,-3.579 -2.906,-6.485 -6.485,-6.485l-100.219,0c-3.58,0 -6.485,2.906 -6.485,6.485l0,12.97c0,3.579 2.905,6.485 6.485,6.485l100.219,0c3.579,0 6.485,-2.906 6.485,-6.485l0,-12.97ZM121.738,70.953l1.862,-21.906l-82.294,0c-3.022,0 -5.476,2.454 -5.476,5.477l0,10.952c0,3.023 2.454,5.477 5.476,5.477l80.432,0ZM80.45,67.687l4.513,0l0.647,-3.304l3.001,0l0.648,3.304l2.202,0l-3.433,-15.373l-1.835,0l-3.425,15.337l-3.549,-9.184l3.001,-6.153l-2.202,0l-3.217,7.017l-0.043,0l0,-7.017l-2.203,0l0,15.373l2.203,0l0,-4.599l1.187,-2.224l2.505,6.823ZM104.546,52.314l0,15.373l2.202,0l0,-6.003l1.123,0c0.82,0 1.482,-0.14 1.986,-0.421c0.504,-0.281 0.907,-0.673 1.209,-1.177c0.259,-0.417 0.428,-0.867 0.508,-1.349c0.079,-0.482 0.118,-1.062 0.118,-1.738c0,-0.921 -0.072,-1.652 -0.216,-2.192c-0.144,-0.54 -0.403,-1.011 -0.777,-1.414c-0.374,-0.403 -0.792,-0.684 -1.252,-0.842c-0.461,-0.158 -0.993,-0.237 -1.598,-0.237l-3.303,0l0,0ZM113.333,52.314l0,15.373l2.202,0l0,-6.564l3.801,0l0,-2.073l-3.801,0l0,-4.664l4.362,0l0,-2.072l-6.564,0l0,0ZM54.432,54.386l0,4.513l3.801,0l0,2.073l-3.801,0l0,4.512l4.362,0l0,2.203l-6.564,0l0,-15.373l21.354,0l0,2.072l-2.548,0l0,13.301l-2.202,0l0,-13.301l-4.966,0l0,13.301l-2.203,0l0,-13.301l-7.233,0l0,0ZM126.691,52.314l0,15.373l3.066,0c1.31,0 2.314,-0.342 3.012,-1.026c0.698,-0.684 1.047,-1.745 1.047,-3.185l0,-7.19c0,-1.252 -0.331,-2.227 -0.993,-2.925c-0.662,-0.698 -1.619,-1.047 -2.871,-1.047l-3.261,0l0,0ZM135.889,67.687l3.001,0c1.44,0 2.487,-0.36 3.142,-1.08c0.655,-0.72 0.982,-1.756 0.982,-3.109l0,-0.864c0,-0.806 -0.122,-1.45 -0.367,-1.932c-0.245,-0.483 -0.626,-0.846 -1.144,-1.091c0.244,-0.143 0.461,-0.298 0.648,-0.464c0.187,-0.165 0.345,-0.356 0.474,-0.572c0.13,-0.216 0.227,-0.468 0.292,-0.756c0.065,-0.287 0.097,-0.64 0.097,-1.058l0,-0.561c0,-0.504 -0.068,-0.99 -0.205,-1.457c-0.137,-0.468 -0.363,-0.882 -0.68,-1.242c-0.317,-0.36 -0.723,-0.648 -1.22,-0.863c-0.497,-0.217 -1.098,-0.324 -1.803,-0.324l-3.217,0l0,15.373ZM128.894,65.614l1.014,0c0.619,0 1.058,-0.155 1.317,-0.464c0.26,-0.31 0.389,-0.796 0.389,-1.458l0,-7.406c0,-0.604 -0.122,-1.072 -0.367,-1.403c-0.245,-0.331 -0.691,-0.497 -1.339,-0.497l-1.014,0l0,11.228ZM138.091,65.484l0.95,0c0.447,0 0.796,-0.064 1.048,-0.194c0.252,-0.13 0.442,-0.31 0.572,-0.54c0.129,-0.23 0.208,-0.504 0.237,-0.82c0.029,-0.317 0.043,-0.663 0.043,-1.037c0,-0.388 -0.021,-0.727 -0.064,-1.015c-0.044,-0.287 -0.134,-0.528 -0.27,-0.723c-0.137,-0.194 -0.328,-0.342 -0.573,-0.442c-0.244,-0.101 -0.568,-0.152 -0.971,-0.152l-0.972,0l0,4.923ZM87.122,56.74l1.079,5.57l-2.202,0l1.079,-5.57l0.044,0ZM48.56,67.687l2.288,-15.373l-2.332,0l-1.058,9.996l-0.043,0l-1.792,-9.996l-1.684,0l-1.727,9.759l-0.044,0l-1.101,-9.759l-2.331,0l2.288,15.373l2.073,0l1.662,-9.976l0.044,0l1.684,9.976l2.073,0ZM92.541,52.314l0,15.373l2.202,0l0,-9.35l0.043,0l2.16,6.607l1.101,0l2.18,-6.607l0.044,0l0,9.35l2.202,0l0,-15.373l-2.138,0l-2.807,8.139l-0.043,0l-2.828,-8.139l-2.116,0l0,0ZM106.748,59.611l0,-5.225l1.144,0c0.432,0 0.763,0.069 0.993,0.205c0.231,0.137 0.4,0.324 0.508,0.562c0.108,0.237 0.173,0.518 0.194,0.842c0.022,0.324 0.033,0.665 0.033,1.026c0,0.388 -0.011,0.741 -0.033,1.057c-0.021,0.317 -0.09,0.587 -0.205,0.81c-0.115,0.223 -0.295,0.4 -0.54,0.529c-0.244,0.13 -0.59,0.194 -1.036,0.194l-1.058,0l0,0ZM138.091,58.618l0.994,0c0.734,0 1.227,-0.183 1.479,-0.55c0.251,-0.367 0.377,-0.904 0.377,-1.609c0,-0.691 -0.14,-1.209 -0.421,-1.555c-0.28,-0.345 -0.788,-0.518 -1.522,-0.518l-0.907,0l0,4.232Z" style="fill:#111;"/></svg>